<?xml version="1.0" encoding="UTF-8"?>
<svg version="1.1" xmlns="http://www.w3.org/2000/svg" width="752" height="886">
<path d="M0 0 C3.64663255 5.69197627 6.64472608 11.0527475 6 18 C1.71548143 27.10460195 -7.13195248 31.35960736 -15.875 35.3125 C-17.93218996 36.27086502 -19.98817168 37.23182766 -22.04296875 38.1953125 C-23.55769775 38.90349121 -23.55769775 38.90349121 -25.10302734 39.62597656 C-58.18045574 55.31447875 -84.79247276 77.39475149 -98.20703125 112.125 C-100.4284919 118.92213856 -101.99326147 125.91679644 -103.625 132.875 C-103.8314917 133.74785645 -104.0379834 134.62071289 -104.25073242 135.52001953 C-107.24318181 148.76656308 -108.4131043 161.8996983 -108.375 175.4375 C-108.37445618 176.17301086 -108.37391235 176.90852173 -108.37335205 177.6663208 C-108.19807953 229.62971579 -84.50369909 276.03373864 -49 313 C-48.27079346 313.76207764 -48.27079346 313.76207764 -47.52685547 314.53955078 C-37.01661988 325.46047613 -25.56098355 334.55278849 -13 343 C-22.95166271 322.09594872 -35.6803474 303.04949827 -49.79907227 284.71801758 C-65.43768932 264.38201305 -75.10978162 243.07162636 -73 217 C-72.20069452 212.93534997 -70.98301266 209.62412658 -69 206 C-68.59910156 205.21753906 -68.19820312 204.43507812 -67.78515625 203.62890625 C-64.00214137 197.12650676 -58.49493239 192.70598762 -52 189 C-50.34118055 188.62958548 -48.67469728 188.29030657 -47 188 C-46.69932617 188.60247559 -46.39865234 189.20495117 -46.08886719 189.82568359 C-39.21727894 203.50912974 -31.94921614 216.56312362 -23 229 C-22.30390625 229.97195312 -21.6078125 230.94390625 -20.890625 231.9453125 C-11.91076646 243.78239876 -0.41987519 252.13757656 11.9375 260.0625 C36.66602464 276.03450938 36.66602464 276.03450938 46.75 286.25 C47.28238281 286.78665283 47.81476563 287.32330566 48.36328125 287.8762207 C53.90141941 293.65039698 58.05468814 300.07083883 62 307 C62.48984375 307.85078125 62.9796875 308.7015625 63.484375 309.578125 C81.04167033 342.30839159 76.65630555 380.41868685 66.6171875 414.71875 C56.85492593 446.98484977 42.11975331 476.535689 26 506 C18.25810144 506.27979361 11.18577325 505.58602834 3.625 503.9375 C2.58625732 503.71416992 1.54751465 503.49083984 0.47729492 503.26074219 C-30.4875219 496.33201386 -61.44434152 482.61915149 -87.29248047 464.21337891 C-89.03885569 462.97238879 -90.80081179 461.75642416 -92.56640625 460.54296875 C-99.84644037 455.4940732 -106.6689233 450.05988403 -113.35546875 444.25 C-115.97618005 441.93159922 -115.97618005 441.93159922 -119 440 C-119 439.34 -119 438.68 -119 438 C-119.82951172 437.65775391 -119.82951172 437.65775391 -120.67578125 437.30859375 C-128.6356506 432.82698664 -135.24135303 423.76088877 -140.83984375 416.7109375 C-142.21727439 414.98229941 -143.62368778 413.27609773 -145.06640625 411.6015625 C-189.98625655 359.15370782 -203.7081279 288.66477916 -199.7890625 221.37841797 C-195.99303062 174.79794348 -176.50410426 128.0495526 -147 92 C-146.26394531 91.07316406 -145.52789062 90.14632812 -144.76953125 89.19140625 C-132.69389156 74.12357265 -119.29155362 59.82968831 -104 48 C-103.4229834 47.54657227 -102.8459668 47.09314453 -102.25146484 46.62597656 C-77.12720989 26.92919224 -49.18036531 12.53689403 -18.75 3 C-17.79770508 2.69682861 -16.84541016 2.39365723 -15.86425781 2.08129883 C-10.36958329 0.42325498 -5.73793166 -0.32326376 0 0 Z " fill="#FFBA48" transform="translate(311,0)"/>
<path d="M0 0 C2.28914253 2.00090049 4.55446132 4.0266349 6.8125 6.0625 C7.90691406 7.02929688 7.90691406 7.02929688 9.0234375 8.015625 C39.37362785 36.44491723 53.227322 80.4842765 54.9387207 121.0546875 C55.82399659 155.45397892 51.25358506 190.4082273 32.8125 220.0625 C32.27802246 220.92230469 31.74354492 221.78210938 31.19287109 222.66796875 C23.55346543 234.85739182 15.56222912 246.451684 6.22460938 257.39892578 C4.17216119 259.81686871 2.18247867 262.28457423 0.1875 264.75 C-3.08220874 268.74564407 -6.40627306 272.69143871 -9.75 276.625 C-13.66073618 281.22590571 -17.48344344 285.88355655 -21.23828125 290.61328125 C-26.62524768 297.38207474 -32.14725842 304.03450298 -37.75 310.625 C-41.59374211 315.14980311 -45.36978174 319.715885 -49.05078125 324.375 C-50.63645769 326.36941571 -52.23680919 328.34523241 -53.85546875 330.3125 C-68.43148936 348.11263029 -80.84122995 367.45056697 -93.40234375 386.69140625 C-94.02265724 387.64100471 -94.02265724 387.64100471 -94.65550232 388.60978699 C-97.77551719 393.3989858 -100.81782607 398.23393799 -103.81469727 403.10131836 C-105.1875 405.0625 -105.1875 405.0625 -107.1875 406.0625 C-104.36154569 392.40701449 -100.21689158 379.22107819 -96.03038025 365.93058777 C-93.95290846 359.33092184 -91.90530553 352.72252484 -89.89559937 346.10189819 C-89.33400059 344.25808951 -88.76444665 342.41670959 -88.19458008 340.57543945 C-75.28086389 297.94443846 -91.24646312 264.04677084 -111.078125 226.5390625 C-114.81099621 219.61486256 -118.72911154 212.81064105 -122.7578125 206.0546875 C-123.35907959 205.04591553 -123.96034668 204.03714355 -124.57983398 202.99780273 C-125.75401555 201.03700096 -126.93553893 199.08057229 -128.12524414 197.12915039 C-128.65496826 196.2499292 -129.18469238 195.37070801 -129.73046875 194.46484375 C-130.20508545 193.68616943 -130.67970215 192.90749512 -131.16870117 192.10522461 C-132.1875 190.0625 -132.1875 190.0625 -132.1875 187.0625 C-117.31981432 195.05951275 -104.2970672 205.35884008 -92.1875 217.0625 C-91.26453125 217.93390625 -90.3415625 218.8053125 -89.390625 219.703125 C-69.60986122 238.81335441 -51.87974545 265.10632252 -45.1875 292.0625 C-45.1875 293.0525 -45.1875 294.0425 -45.1875 295.0625 C-44.5275 295.0625 -43.8675 295.0625 -43.1875 295.0625 C-42.92195312 294.4746875 -42.65640625 293.886875 -42.3828125 293.28125 C-41.16357916 291.01809792 -39.78390866 289.45854432 -38.0625 287.5625 C-34.07659374 282.2577277 -34.32499931 277.45559725 -35.1875 271.0625 C-39.85369612 246.49296116 -51.32234101 222.40514793 -63.26953125 200.61328125 C-65.63501869 196.28394767 -67.78470661 191.8520785 -69.95727539 187.42382812 C-73.31541327 180.65980243 -77.01374694 174.08595432 -80.77075195 167.53637695 C-81.22925537 166.72257568 -81.68775879 165.90877441 -82.16015625 165.0703125 C-82.57531494 164.34473145 -82.99047363 163.61915039 -83.41821289 162.87158203 C-83.79901001 161.97608643 -83.79901001 161.97608643 -84.1875 161.0625 C-83.8575 160.4025 -83.5275 159.7425 -83.1875 159.0625 C-79.47302156 161.90697602 -75.76400567 164.75837721 -72.06054688 167.6171875 C-70.85433864 168.54794255 -69.64736643 169.47770882 -68.43945312 170.40625 C-56.12734224 179.88361371 -44.29608879 189.81001478 -33.25 200.75 C-32.64027344 201.35046143 -32.03054688 201.95092285 -31.40234375 202.56958008 C-27.1875 206.81566758 -27.1875 206.81566758 -27.1875 209.0625 C-26.5275 209.0625 -25.8675 209.0625 -25.1875 209.0625 C-19.95590204 214.51699812 -15.72338015 221.04480031 -11.4375 227.25 C-10.97802979 227.91451172 -10.51855957 228.57902344 -10.04516602 229.26367188 C-7.20641306 233.42393999 -4.63207646 237.6588354 -2.1875 242.0625 C-1.5275 242.0625 -0.8675 242.0625 -0.1875 242.0625 C1.8225278 239.68924933 3.39990661 236.99906566 5.0625 234.375 C5.5471875 233.65376953 6.031875 232.93253906 6.53125 232.18945312 C9.28383722 228.0876122 9.28383722 228.0876122 9.3359375 223.359375 C7.67303295 220.8522266 6.00429589 218.39947346 4.1875 216 C1.39971872 212.24472397 -1.29710397 208.46492011 -3.875 204.5625 C-7.3251641 199.34008364 -10.83665301 194.16307151 -14.375 189 C-15.20994995 187.78147339 -15.20994995 187.78147339 -16.06176758 186.53833008 C-17.20455377 184.8711202 -18.34754029 183.20404763 -19.49072266 181.53710938 C-24.395959 174.383228 -29.29196882 167.22302476 -34.1875 160.0625 C-34.80447754 159.16031738 -35.42145508 158.25813477 -36.05712891 157.32861328 C-43.83539089 145.9513072 -51.57975254 134.55467381 -59.1875 123.0625 C-54.67151077 121.61365892 -51.56990776 123.14257029 -47.375 124.9375 C-46.62452393 125.25412598 -45.87404785 125.57075195 -45.10083008 125.89697266 C-17.41605004 137.94295526 7.72736177 160.40157045 26.2109375 184.0234375 C27.79811294 186.12765511 27.79811294 186.12765511 29.8125 188.0625 C33.38053495 180.7642467 35.67381688 172.22450286 34.8125 164.0625 C33.42371024 161.47917709 32.05961753 159.24518202 30.375 156.875 C29.91834961 156.2157251 29.46169922 155.5564502 28.99121094 154.87719727 C16.71028387 137.36006758 2.05714359 123.57055415 -15.1875 111.0625 C-16.10273438 110.38574219 -17.01796875 109.70898438 -17.9609375 109.01171875 C-23.38518732 105.09220268 -29.07391675 101.6500336 -34.83642578 98.25683594 C-38.70862482 95.97616324 -42.51131068 93.65049217 -46.1875 91.0625 C-46.1875 90.7325 -46.1875 90.4025 -46.1875 90.0625 C-19.5763533 89.12328306 7.42758879 93.06032352 32.8125 101.0625 C32.05150463 97.0813877 31.27690779 93.10303503 30.5 89.125 C30.28666016 88.00802734 30.07332031 86.89105469 29.85351562 85.74023438 C28.3908783 74.40614452 28.3908783 74.40614452 22.53515625 65.37890625 C21.65730469 65.13011719 20.77945313 64.88132812 19.875 64.625 C19.02035156 64.35816406 18.16570312 64.09132813 17.28515625 63.81640625 C16.13917969 63.56761719 14.99320313 63.31882812 13.8125 63.0625 C13.04139893 62.88662354 12.27029785 62.71074707 11.47583008 62.52954102 C2.3771036 60.70979572 -6.65935355 60.79271512 -15.89575195 60.85668945 C-18.61614416 60.87494059 -21.33619347 60.87719841 -24.05664062 60.87695312 C-33.48181249 60.89660568 -42.80213838 61.12363972 -52.1875 62.0625 C-52.1875 61.4025 -52.1875 60.7425 -52.1875 60.0625 C-50.16015625 58.5390625 -50.16015625 58.5390625 -47.25 56.6875 C-42.06213532 53.31630239 -36.97920014 49.83590058 -31.9375 46.25 C-26.15300609 42.14601256 -20.34619955 38.07817493 -14.5 34.0625 C-13.85321289 33.61801514 -13.20642578 33.17353027 -12.54003906 32.71557617 C-8.77534122 30.13461845 -4.99074301 27.58631103 -1.1875 25.0625 C-3.58432236 17.87203293 -9.60795636 12.42998137 -15.9375 8.4375 C-19.59886847 6.88845949 -20.48872475 6.94795029 -24.1875 8.0625 C-26.08321233 9.11598649 -27.9336567 10.25240251 -29.75 11.4375 C-35.42349115 15.06883576 -41.25594969 18.31058718 -47.1875 21.5 C-56.75764316 26.67854377 -65.50252072 32.50779866 -74.1875 39.0625 C-73.5729419 33.94643871 -72.47122592 29.15626253 -70.97265625 24.22265625 C-70.7568541 23.49686874 -70.54105194 22.77108124 -70.31871033 22.02330017 C-69.63379456 19.7224463 -68.94227673 17.4236487 -68.25 15.125 C-67.56242122 12.82960422 -66.87629894 10.5337876 -66.19200134 8.2374115 C-65.76785686 6.81534956 -65.34170019 5.39388552 -64.9131012 3.97315979 C-63.53377474 -0.63448713 -62.32621244 -5.26438053 -61.1875 -9.9375 C-68.51568303 -12.69206525 -75.08785826 -14.27913681 -82.9375 -13.625 C-88.89709079 -10.53059709 -90.23592491 -4.78199329 -92.27734375 1.3203125 C-95.39911281 12.04034965 -96.8010951 23.00799733 -98.1875 34.0625 C-102.10234978 32.75755007 -103.60239094 30.3000946 -106 27.125 C-106.97524075 25.85805778 -107.95050224 24.59113152 -108.92578125 23.32421875 C-109.44736816 22.64149902 -109.96895508 21.9587793 -110.50634766 21.25537109 C-112.92411968 18.10166382 -115.37087717 14.97080255 -117.81518555 11.83764648 C-119.61836912 9.52611985 -121.41966535 7.21315564 -123.21875 4.8984375 C-123.71955078 4.25438965 -124.22035156 3.6103418 -124.73632812 2.94677734 C-125.21521484 2.32496582 -125.69410156 1.7031543 -126.1875 1.0625 C-127.0218457 0.01570068 -127.0218457 0.01570068 -127.87304688 -1.05224609 C-129.1875 -2.9375 -129.1875 -2.9375 -129.1875 -4.9375 C-131.16786486 -3.96075896 -133.14676133 -2.98104018 -135.125 -2 C-136.22714844 -1.45472656 -137.32929688 -0.90945312 -138.46484375 -0.34765625 C-141.03544414 0.80954978 -141.03544414 0.80954978 -142.1875 2.0625 C-141.84445854 4.70684977 -141.43576778 7.30563388 -140.97265625 9.9296875 C-140.83806503 10.72021515 -140.70347382 11.5107428 -140.56480408 12.32522583 C-140.13186431 14.8635975 -139.69135984 17.40057993 -139.25 19.9375 C-138.81329733 22.46744652 -138.37821685 24.99764981 -137.94590759 27.52835083 C-137.67606915 29.10588177 -137.40349866 30.68294829 -137.12794495 32.25949097 C-136.61630699 35.23466451 -136.1875 38.03723462 -136.1875 41.0625 C-150.54681974 40.36562369 -164.86147743 39.25440656 -179.1875 38.0625 C-181.6625 44.0025 -181.6625 44.0025 -184.1875 50.0625 C-182.5375 50.7225 -180.8875 51.3825 -179.1875 52.0625 C-177.36860761 53.15590679 -175.57685284 54.2952221 -173.80859375 55.46875 C-172.80505859 56.13003906 -171.80152344 56.79132813 -170.76757812 57.47265625 C-169.73052734 58.16230469 -168.69347656 58.85195312 -167.625 59.5625 C-165.5624703 60.92900575 -163.49871707 62.29366702 -161.43359375 63.65625 C-160.52279053 64.26146484 -159.6119873 64.86667969 -158.67358398 65.49023438 C-156.55298459 66.83135782 -154.45493396 67.99516067 -152.1875 69.0625 C-156.16096387 78.01762006 -165.73915659 84.134646 -173.1875 90.0625 C-174.15300781 90.83722656 -175.11851562 91.61195312 -176.11328125 92.41015625 C-178.46796926 94.29856941 -180.82604731 96.18255827 -183.1875 98.0625 C-182.0210158 101.86720079 -180.74373932 105.10823999 -178.5625 108.4375 C-177.89347656 109.47003906 -177.89347656 109.47003906 -177.2109375 110.5234375 C-176.87320312 111.03132812 -176.53546875 111.53921875 -176.1875 112.0625 C-172.47978056 110.71220628 -169.42757915 109.03237314 -166.17578125 106.8046875 C-165.25345703 106.17949219 -164.33113281 105.55429688 -163.38085938 104.91015625 C-162.43017578 104.25917969 -161.47949219 103.60820312 -160.5 102.9375 C-158.60312413 101.63903574 -156.70352049 100.34454442 -154.80078125 99.0546875 C-153.96329346 98.48089355 -153.12580566 97.90709961 -152.26293945 97.31591797 C-150.1875 96.0625 -150.1875 96.0625 -148.1875 96.0625 C-148.1875 106.6225 -148.1875 117.1825 -148.1875 128.0625 C-145.2175 128.3925 -142.2475 128.7225 -139.1875 129.0625 C-136.5475 119.8225 -133.9075 110.5825 -131.1875 101.0625 C-125.55816846 103.87716577 -121.55975793 107.58614069 -117.1875 112.0625 C-115.91799252 113.33465781 -114.64711248 114.6054471 -113.375 115.875 C-112.3125 116.9375 -111.25 118 -110.1875 119.0625 C-102.28825499 115.49509903 -99.27128537 108.66287132 -96.16796875 100.9296875 C-94.67912956 96.57587091 -94.02181989 92.53293399 -93.9375 87.9375 C-93.91171875 87.08929688 -93.8859375 86.24109375 -93.859375 85.3671875 C-94.02323608 83.02744048 -94.02323608 83.02744048 -95.390625 81.2578125 C-97.88666501 79.59740327 -99.23932119 79.57409688 -102.1875 80.0625 C-104.55202477 81.71854275 -104.55202477 81.71854275 -106.6875 83.9375 C-110.93699395 88.11217892 -114.57398128 90.3296387 -120.625 90.4375 C-125.24339607 90.28406491 -127.79597488 89.37515244 -131.1875 86.0625 C-134.42639413 80.59563931 -135.93555706 75.3980424 -134.78125 69.09375 C-133.19709895 63.67428588 -130.44294506 60.99533094 -125.6875 58.25 C-117.51581362 53.92628238 -106.98217701 53.32557513 -98.125 55.98046875 C-90.92207162 59.7246739 -87.80474478 65.58465779 -85.1875 73.0625 C-81.13999045 87.2946731 -83.21778141 102.83148979 -90.14208984 115.85839844 C-97.75008542 128.90171117 -108.89878866 137.44467155 -123.375 141.4609375 C-141.02170038 145.23537064 -159.21144527 142.54929332 -174.51171875 132.984375 C-188.84141143 122.70007862 -198.18268884 109.03081135 -201.91015625 91.703125 C-205.9642343 66.68060353 -200.32313175 40.77986573 -186.1953125 19.71484375 C-165.9000764 -7.09540005 -136.4869922 -22.36522484 -103.5871582 -27.41625977 C-65.74141654 -32.5879057 -29.5114954 -25.20700459 0 0 Z " fill="#6AB230" transform="translate(514.1875,32.9375)"/>
<path d="M0 0 C0.99 0.495 0.99 0.495 2 1 C-12.8510575 35.12583426 -31.020819 66.07840614 -57 93 C-57.56654297 93.58845703 -58.13308594 94.17691406 -58.71679688 94.78320312 C-66.08083507 102.39135308 -73.56284099 109.57268532 -82 116 C-83.00691895 116.7729541 -83.00691895 116.7729541 -84.03417969 117.56152344 C-106.78219791 134.95239825 -131.06365188 149.15628868 -158 159 C-159.27230469 159.46599609 -159.27230469 159.46599609 -160.5703125 159.94140625 C-192.12079203 171.33198723 -192.12079203 171.33198723 -206 171 C-197.02992182 137.59006743 -185.48949918 105.93005952 -166.27099609 76.96582031 C-164.95023576 74.92303079 -163.72107117 72.83902894 -162.48828125 70.7421875 C-156.34820938 60.78012734 -156.34820938 60.78012734 -150.484375 58.83203125 C-147.78962167 58.55655545 -145.20413543 58.37764044 -142.5078125 58.29296875 C-137.27324506 58.10043562 -132.50147873 56.72885319 -127.5 55.25 C-126.2927124 54.90666626 -126.2927124 54.90666626 -125.06103516 54.55639648 C-111.35608457 50.51108997 -98.07763132 44.93339573 -84.875 39.5 C-84.14600494 39.20009155 -83.41700989 38.90018311 -82.66592407 38.59118652 C-63.76332352 30.79055926 -45.32162564 22.0993944 -26.97265625 13.08203125 C-25.69729256 12.4565892 -25.69729256 12.4565892 -24.39616394 11.81851196 C-20.19347937 9.75723058 -15.99533447 7.68771047 -11.80541992 5.60058594 C-10.28187052 4.84934113 -8.75819521 4.09835161 -7.234375 3.34765625 C-6.53067276 2.99322952 -5.82697052 2.6388028 -5.10194397 2.27363586 C-3.42975669 1.45487259 -1.71764429 0.71852743 0 0 Z " fill="#0063B0" transform="translate(618,334)"/>
<path d="M0 0 C7.59 0 15.18 0 23 0 C26.27061519 7.77610948 29.42889387 15.57776236 32.44140625 23.45703125 C32.84634811 24.51184189 33.25128998 25.56665253 33.66850281 26.65342712 C34.96800594 30.03920993 36.26524031 33.42585708 37.5625 36.8125 C38.90463061 40.31060769 40.2473979 43.8084705 41.59024048 47.30630493 C42.47760656 49.61773916 43.36479446 51.9292418 44.25180054 54.24081421 C47.90145732 63.75024875 51.5688951 73.25269965 55.25 82.75 C55.50202179 83.40038239 55.75404358 84.05076477 56.01370239 84.72085571 C57.34163053 88.14756239 58.67032337 91.57397142 60 95 C65.28183233 84.78726314 70.01013256 74.38538351 74.59420776 63.84399414 C75.77086029 61.13955432 76.95321357 58.43766848 78.13696289 55.73632812 C81.34993216 48.39904156 84.55577009 41.0590474 87.70278931 33.69319153 C88.47819504 31.87920665 89.25804107 30.06712176 90.03808594 28.25512695 C90.94776988 26.13914369 91.84866672 24.01935349 92.73925781 21.89526367 C93.3304541 20.52398315 93.3304541 20.52398315 93.93359375 19.125 C94.4294397 17.95324219 94.4294397 17.95324219 94.93530273 16.7578125 C96 15 96 15 99 14 C108.04051245 34.04443229 117.06519942 54.09568033 126 74.1875 C126.34224609 74.95630493 126.68449219 75.72510986 127.03710938 76.51721191 C128.00497748 78.69199002 128.97149589 80.86736215 129.9375 83.04296875 C130.22004639 83.67770615 130.50259277 84.31244354 130.79370117 84.96641541 C132.26503845 88.28563794 133.67626961 91.61913183 135 95 C136.62449707 92.5632544 137.59192398 90.72406791 138.60961914 88.04321289 C138.91557007 87.24294174 139.221521 86.44267059 139.53674316 85.6181488 C139.86621948 84.74513626 140.1956958 83.87212372 140.53515625 82.97265625 C141.06163757 81.59153404 141.06163757 81.59153404 141.59875488 80.18251038 C142.35902892 78.18699886 143.11764051 76.19085335 143.87478638 74.19415283 C145.47574467 69.9728949 147.08526759 65.75492074 148.69432068 61.53674316 C149.52900726 59.34834049 150.36328095 57.15978029 151.19715881 54.97106934 C155.25491482 44.3215295 159.33610194 33.68110997 163.43624878 23.04782104 C164.1871374 21.0991323 164.93691369 19.15001458 165.68557739 17.20046997 C166.72668395 14.48944556 167.77109554 11.77971812 168.81640625 9.0703125 C169.28077087 7.85807762 169.28077087 7.85807762 169.7545166 6.62135315 C171.88577414 1.11422586 171.88577414 1.11422586 173 0 C174.70772358 -0.08713831 176.41898649 -0.10700007 178.12890625 -0.09765625 C179.68061523 -0.09282227 179.68061523 -0.09282227 181.26367188 -0.08789062 C182.35228516 -0.07951172 183.44089844 -0.07113281 184.5625 -0.0625 C186.2012207 -0.05573242 186.2012207 -0.05573242 187.87304688 -0.04882812 C190.58208495 -0.03699826 193.29101599 -0.02051543 196 0 C195.28448052 4.74493338 193.56042703 8.93390395 191.7722168 13.35327148 C191.44021774 14.18363419 191.10821869 15.01399689 190.76615906 15.86952209 C189.66459045 18.62170003 188.55691735 21.37137793 187.44921875 24.12109375 C186.67188706 26.05974876 185.89494177 27.99855875 185.11836243 29.93751526 C183.06356345 35.06495697 181.00361762 40.19031562 178.94256592 45.31524658 C176.89297815 50.41404842 174.84798879 55.51469314 172.80273438 60.61523438 C169.64575495 68.48695302 166.48613603 76.3576065 163.32470703 84.22753906 C159.61451671 93.46430975 155.91578443 102.70561551 152.22265625 111.94921875 C148.43062913 121.43783479 144.61989977 130.91785892 140.75 140.375 C140.27949219 141.52742187 139.80898437 142.67984375 139.32421875 143.8671875 C138.2170937 146.57851415 137.10906493 149.28946645 136 152 C135.34 152 134.68 152 134 152 C125.35621133 131.40237905 117.03735072 110.67881781 108.76855469 89.92822266 C108.34391434 88.8632959 107.91927399 87.79836914 107.48176575 86.70117188 C106.68115755 84.69289406 105.88137176 82.68428812 105.08256531 80.67529297 C103.52319669 76.76297231 101.95403161 72.86983134 100.23461914 69.02490234 C99 66 99 66 99 63 C98.34 63 97.68 63 97 63 C96.84072021 63.58265625 96.68144043 64.1653125 96.51733398 64.765625 C94.52601425 71.74587633 91.89898017 78.32535583 89.0625 85 C84.87665392 94.95268205 80.80941041 104.94637892 76.83203125 114.984375 C76.38346268 116.1146814 75.9348941 117.24498779 75.47273254 118.4095459 C73.64871011 123.00717571 71.8253421 127.60500115 70.0149231 132.20800781 C68.73201251 135.46917268 67.44092334 138.72699565 66.1484375 141.984375 C65.75932693 142.9809613 65.37021637 143.97754761 64.96931458 145.0043335 C64.6073851 145.9126593 64.24545563 146.82098511 63.87255859 147.75683594 C63.55789642 148.55539001 63.24323425 149.35394409 62.91903687 150.17669678 C62 152 62 152 60 153 C54.60043741 139.56717769 49.20117178 126.13423605 43.80223465 112.70116234 C41.293909 106.4602262 38.78548927 100.21932791 36.27685547 93.97851562 C33.37700705 86.76443206 30.47748848 79.55021597 27.578125 72.3359375 C27.10779343 71.16572807 26.63746185 69.99551865 26.15287781 68.78984833 C17.3613642 46.91493365 17.3613642 46.91493365 13.10742188 36.26660156 C12.82456203 35.55862993 12.54170219 34.8506583 12.25027084 34.12123299 C11.02298073 31.04858947 9.79700156 27.975438 8.57305908 24.90145874 C8.16319763 23.87388458 7.75333618 22.84631042 7.33105469 21.78759766 C6.9509021 20.83298645 6.57074951 19.87837524 6.17907715 18.89483643 C5.33727235 16.8280614 4.47059968 14.7713438 3.58752441 12.72186279 C3.12712769 11.65268616 2.66673096 10.58350952 2.19238281 9.48193359 C1.56290741 8.04725235 1.56290741 8.04725235 0.92071533 6.58358765 C0 4 0 4 0 0 Z " fill="#000000" transform="translate(0,610)"/>
<path d="M0 0 C9.68464201 -0.06810087 19.36912187 -0.12300217 29.05395031 -0.15543652 C33.55225291 -0.17101274 38.05038149 -0.19210173 42.54858398 -0.22631836 C46.89932753 -0.25920168 51.24990497 -0.27691329 55.60076332 -0.28463173 C57.25074181 -0.29012375 58.90071245 -0.30084636 60.55061913 -0.31719017 C78.34949249 -0.48629942 92.97992303 2.07816674 106.375 14.8125 C117.61962276 26.72494145 121.47729188 39.73763772 121.2109375 55.859375 C120.72192961 69.03240234 115.33911399 80.74506684 105.76953125 89.79296875 C98.98206861 95.20187762 88.88173359 103 80 103 C86.69826858 114.34765501 95.98247512 122.8533474 108.90283203 126.54345703 C112.91357858 127.54143622 116.92825217 128.26708539 121 129 C121 136.92 121 144.84 121 153 C102.55492117 152.10024006 86.8427145 146.31766968 73 134 C72.30132812 133.39542969 71.60265625 132.79085937 70.8828125 132.16796875 C62.35659765 124.2886846 57.63720384 114.91161151 54 104 C44.1 104 34.2 104 24 104 C24 120.17 24 136.34 24 153 C16.08 153 8.16 153 0 153 C0 128.91 0 104.82 0 80 C7.96447266 79.96132813 7.96447266 79.96132813 16.08984375 79.921875 C19.4668442 79.89668888 22.84375666 79.87034251 26.22070312 79.83984375 C31.57300067 79.79161433 36.92509435 79.74753016 42.27758789 79.72900391 C46.59613506 79.7137864 50.91414651 79.67925147 55.2324543 79.63169098 C56.87450041 79.61692945 58.51662303 79.608962 60.15873528 79.60811615 C72.00580567 79.59588371 81.20273448 78.59267795 90 70 C95.53641558 62.77190188 96.98425741 55.95552727 96 47 C93.81008609 38.74935138 89.97217154 32.54936465 82.5 28.1875 C76.9923469 25.19125914 71.94841217 24.86984263 65.73120117 24.79467773 C65.01846039 24.78477814 64.3057196 24.77487854 63.57138062 24.76467896 C61.2286098 24.73323226 58.88581876 24.70837354 56.54296875 24.68359375 C54.9134317 24.66300966 53.28389981 24.64201282 51.65437317 24.62062073 C47.37517492 24.56555024 43.09592968 24.516075 38.81665039 24.46777344 C34.446084 24.41744841 30.07558545 24.36181988 25.70507812 24.30664062 C17.13677467 24.19924291 8.56841326 24.09824785 0 24 C0 16.08 0 8.16 0 0 Z " fill="#000000" transform="translate(411,610)"/>
<path d="M0 0 C2.15648448 1.92080312 4.06914925 3.8484806 6 6 C4.56588544 9.30949515 2.79026636 11.39664885 0.1875 13.875 C-3.12521355 17.09720225 -6.11464018 20.39330023 -9 24 C-12.07734984 22.62400437 -14.20053841 21.01395144 -16.625 18.6875 C-27.68909062 8.85048043 -41.21883216 6.20042813 -55.6171875 6.6484375 C-64.27595236 7.16744065 -71.68715285 10.4654659 -79.0625 14.8515625 C-81.00105119 16.00062309 -82.97431866 17.01428899 -85 18 C-85 18.66 -85 19.32 -85 20 C-86.051875 21.0209375 -86.051875 21.0209375 -87.125 22.0625 C-96.51919004 31.19131744 -101.97276454 44.18853354 -102.29272461 57.17919922 C-102.42317702 72.48883676 -98.41632244 86.45773078 -87.625 97.875 C-75.07011492 109.34179504 -60.82205214 112.89914313 -44.1640625 112.18359375 C-31.48888902 111.10826315 -21.00005039 104.50958443 -12 96 C-7.4857225 99.66866356 -3.49848894 103.33534808 0 108 C0 108.66 0 109.32 0 110 C0.66 110 1.32 110 2 110 C2.99 112.475 2.99 112.475 4 115 C-15.36633449 131.50166868 -35.56490517 138.65482562 -61.23046875 136.76171875 C-81.58939269 134.25795046 -100.02233767 123.81909754 -113 108 C-126.13832171 89.89928389 -131.33723461 69.17245202 -128.49609375 47.08203125 C-124.7804984 26.25346532 -113.82886763 8.33672934 -96.90625 -4.3125 C-66.37802523 -24.26163698 -28.51901743 -22.31404293 0 0 Z " fill="#000000" transform="translate(393,627)"/>
<path d="M0 0 C1.35645574 1.11355553 2.65378913 2.29889113 3.9296875 3.50390625 C0.16091499 10.54987225 -4.47875745 16.97958123 -9.0703125 23.50390625 C-9.82054687 23.03339844 -10.57078125 22.56289063 -11.34375 22.078125 C-23.31320761 14.7969562 -34.45402542 11.09330833 -48.66796875 14.04296875 C-53.69769799 15.75401683 -56.81593845 18.18331425 -59.3203125 22.81640625 C-60.94738996 28.64676715 -60.40866503 33.35000202 -57.515625 38.58984375 C-52.06708809 45.80547371 -42.02884094 48.96369889 -33.99951172 52.38671875 C-13.771279 61.04276615 -13.771279 61.04276615 -7.0703125 66.50390625 C-7.0703125 67.16390625 -7.0703125 67.82390625 -7.0703125 68.50390625 C-6.4103125 68.50390625 -5.7503125 68.50390625 -5.0703125 68.50390625 C3.90682325 78.86546776 6.36232916 90.08560534 5.9296875 103.50390625 C4.54186355 116.58717868 -0.27611541 126.02065579 -10.30078125 134.52734375 C-23.61937432 144.03257379 -41.13614281 145.24842818 -56.8828125 142.75390625 C-72.53462061 139.40159875 -85.71168252 130.45975964 -95.0703125 117.50390625 C-93.71794673 114.56511141 -92.17088591 112.21157714 -90.0703125 109.75390625 C-89.5546875 109.1403125 -89.0390625 108.52671875 -88.5078125 107.89453125 C-87.0703125 106.50390625 -87.0703125 106.50390625 -85.0703125 106.50390625 C-84.8228125 105.90578125 -84.5753125 105.30765625 -84.3203125 104.69140625 C-82.90184343 102.20908538 -81.37766512 101.1406259 -79.0703125 99.50390625 C-78.34328125 100.30054688 -77.61625 101.0971875 -76.8671875 101.91796875 C-68.7676891 110.54339096 -60.01701846 117.86857556 -47.71484375 118.7421875 C-39.40486441 118.90313511 -31.89077683 118.96341793 -25.453125 113.0078125 C-21.10798609 108.08577662 -20.642119 103.6764621 -20.7421875 97.35546875 C-21.2778487 92.70031783 -22.91210857 89.89650471 -26.0703125 86.50390625 C-34.46100728 80.43770221 -44.31044069 76.61711871 -53.7265625 72.44726562 C-66.99808233 66.43901779 -78.51095505 59.55159548 -84.34375 45.6796875 C-88.1602367 34.25074615 -86.84187028 21.39550553 -82.0703125 10.50390625 C-80.36788237 7.48687771 -78.45184439 5.01282241 -76.0703125 2.50390625 C-75.49539063 1.88902344 -74.92046875 1.27414062 -74.328125 0.640625 C-55.22185069 -17.87105571 -20.33224132 -14.69292156 0 0 Z " fill="#000000" transform="translate(746.0703125,620.49609375)"/>
<path d="M0 0 C1.77094305 5.31282916 -1.65183294 10.16451524 -4 15 C-12.28063545 29.79687401 -23.88662309 43.3340496 -37.203125 53.78125 C-39.0044898 55.21026565 -40.76939618 56.68713369 -42.484375 58.21875 C-70.46377827 83.05253988 -120.23748613 112.88563278 -158 118 C-158.99 117.67 -159.98 117.34 -161 117 C-159.62001235 114.04589294 -158.01821039 111.53444579 -156.05078125 108.9375 C-155.4575708 108.15093018 -154.86436035 107.36436035 -154.25317383 106.55395508 C-153.61275146 105.7111499 -152.9723291 104.86834473 -152.3125 104 C-151.64694092 103.11787842 -150.98138184 102.23575684 -150.2956543 101.3269043 C-148.19985623 98.54917734 -146.10022085 95.77438392 -144 93 C-134.78260556 80.81240474 -125.70434198 68.56039518 -117 56 C-116.50983398 55.29294922 -116.01966797 54.58589844 -115.51464844 53.85742188 C-113.19299985 50.50342267 -110.87707672 47.14550519 -108.5703125 43.78125 C-108.135979 43.17619629 -107.70164551 42.57114258 -107.25415039 41.94775391 C-105.92503177 40.01099954 -105.92503177 40.01099954 -105.05639648 37.72021484 C-103.40395856 34.23298105 -101.76423827 31.78777391 -98.14074707 30.1697998 C-93.10922271 28.46591512 -87.93250901 27.35142313 -82.74172974 26.24920654 C-77.75269003 25.18606315 -72.79278734 23.99893302 -67.828125 22.828125 C-66.82632706 22.59503632 -65.82452911 22.36194763 -64.79237366 22.12179565 C-55.4253741 19.92197541 -46.22993464 17.29019596 -37.0625 14.375 C-35.99116821 14.03560898 -35.99116821 14.03560898 -34.89819336 13.68936157 C-22.94153052 9.87147048 -11.36069996 5.34388326 0 0 Z " fill="#0063B0" transform="translate(637,261)"/>
<path d="M0 0 C10.46528507 11.91100487 13.69345223 26.67128158 12.89453125 42.15625 C12.39953125 43.14625 12.39953125 43.14625 11.89453125 44.15625 C-12.19546875 44.48625 -36.28546875 44.81625 -61.10546875 45.15625 C-55.99029306 55.38660138 -53.5031085 59.37529009 -43.10546875 63.15625 C-34.31925038 65.57246005 -26.3633405 63.67649754 -18.10546875 60.15625 C-15.12678156 58.08006057 -12.57534267 55.81267029 -10.10546875 53.15625 C-6.05332696 54.90147938 -2.79942914 57.5790657 0.64453125 60.28125 C1.54751953 60.98314453 1.54751953 60.98314453 2.46875 61.69921875 C3.94639741 62.84850007 5.4207913 64.00196235 6.89453125 65.15625 C2.60180451 74.93658618 -6.65251722 80.23087182 -16.10546875 84.15625 C-28.9666091 89.15780458 -43.71753412 87.60510392 -56.43359375 82.93359375 C-69.16115789 77.07565077 -78.44780306 67.53975514 -83.41796875 54.46875 C-88.32346055 40.49741261 -87.00025168 25.50819916 -81.04296875 12.09375 C-74.17415547 -0.67730702 -63.33154366 -8.5808917 -49.8046875 -13.08984375 C-32.05198629 -18.04826826 -13.18121371 -12.71656982 0 0 Z M-54.91796875 14.53125 C-59.54309741 19.71565925 -59.54309741 19.71565925 -61.10546875 26.15625 C-44.93546875 26.15625 -28.76546875 26.15625 -12.10546875 26.15625 C-13.11580786 20.09421533 -14.03419533 16.45970507 -19.04296875 12.703125 C-30.2831396 5.51272159 -44.60214618 5.82011094 -54.91796875 14.53125 Z " fill="#000000" transform="translate(631.10546875,676.84375)"/>
<path d="M0 0 C-0.46043827 13.81314821 -8.4822287 24.22017132 -17.79296875 33.85546875 C-34.8451975 49.70312505 -70.97880044 74 -95 74 C-93.63089444 69.35957253 -91.72073438 65.5482656 -89.21875 61.4140625 C-88.84943863 60.79937607 -88.48012726 60.18468964 -88.09962463 59.55137634 C-86.08480201 56.20557509 -84.04245682 52.87665963 -82.00170898 49.54663086 C-81.1767951 48.1991328 -80.3520055 46.85155863 -79.52734375 45.50390625 C-79.12366074 44.84593552 -78.71997772 44.18796478 -78.30406189 43.51005554 C-75.76260639 39.34015905 -73.40481949 35.13102285 -71.30297852 30.71850586 C-67.26923865 23.70768973 -64.11457938 20.9841326 -56.5234375 18.55078125 C-55.69492783 18.2658078 -54.86641815 17.98083435 -54.01280212 17.68722534 C-52.24915067 17.0828538 -50.4822813 16.48780333 -48.71255493 15.90145874 C-46.02400859 15.00797873 -43.34750542 14.08508769 -40.67260742 13.15161133 C-36.2112072 11.59714192 -31.74237425 10.0658933 -27.26928711 8.54541016 C-24.51115764 7.60754165 -21.75454176 6.66531692 -18.99804688 5.72265625 C-17.22925249 5.11953992 -15.4603755 4.51666576 -13.69140625 3.9140625 C-12.87483047 3.63495026 -12.0582547 3.35583801 -11.2169342 3.06826782 C-10.07810036 2.68183609 -10.07810036 2.68183609 -8.91625977 2.28759766 C-7.92300438 1.94953598 -7.92300438 1.94953598 -6.90968323 1.60464478 C-1.84164437 0 -1.84164437 0 0 0 Z " fill="#0063B0" transform="translate(640,207)"/>
<path d="M0 0 C1.51356026 5.20072962 1.31111431 10.09182209 -0.8671875 15.02734375 C-9.72891337 30.45896983 -27.63552577 36.03724694 -43.73828125 40.640625 C-51.38561663 42.7072416 -59.16126529 43.92075392 -67 45 C-66.76932314 37.96435563 -65.18502928 31.79065323 -63.0625 25.125 C-62.79743652 24.29250732 -62.53237305 23.46001465 -62.25927734 22.60229492 C-59.60841335 14.49091439 -59.60841335 14.49091439 -58 12 C-55.98242188 10.99853516 -55.98242188 10.99853516 -53.46875 10.2890625 C-52.52499512 10.01650635 -51.58124023 9.7439502 -50.60888672 9.46313477 C-49.06998779 9.04825806 -49.06998779 9.04825806 -47.5 8.625 C-46.44441895 8.32972412 -45.38883789 8.03444824 -44.30126953 7.73022461 C-36.2015314 5.50395645 -28.05152573 3.48577318 -19.875 1.5625 C-18.77994141 1.30355957 -17.68488281 1.04461914 -16.55664062 0.77783203 C-15.52474609 0.54306152 -14.49285156 0.30829102 -13.4296875 0.06640625 C-12.52460449 -0.14040771 -11.61952148 -0.34722168 -10.68701172 -0.56030273 C-6.9821898 -1.16655244 -3.42737392 -1.71368696 0 0 Z " fill="#FFBA48" transform="translate(293,91)"/>
<path d="M0 0 C0.08849232 3.77068057 0.14088454 7.54108765 0.1875 11.3125 C0.21263672 12.36501953 0.23777344 13.41753906 0.26367188 14.50195312 C0.40730176 30.06185699 -5.03279665 43.91744839 -15.80078125 55.24609375 C-22.42163891 61.31028215 -31.46209428 67.15403143 -40 70 C-39.91435791 69.43716309 -39.82871582 68.87432617 -39.74047852 68.29443359 C-36.94073636 49.74165202 -35.8343877 31.75750335 -36 13 C-31.36045415 10.97558832 -26.71571413 8.96381178 -22.06567383 6.96362305 C-20.48409766 6.28121214 -18.90400455 5.59535341 -17.32543945 4.90600586 C-15.0580001 3.91653892 -12.78554095 2.93953664 -10.51171875 1.96484375 C-9.80536789 1.65344955 -9.09901703 1.34205536 -8.3712616 1.02122498 C-3.34161512 -1.11387171 -3.34161512 -1.11387171 0 0 Z " fill="#0063B0" transform="translate(616,138)"/>
<path d="M0 0 C1.78574617 5.95248725 0.76009344 11.68832592 -2.12109375 17.109375 C-12.13538551 31.74782981 -31.55062085 36.93215113 -47.90234375 40.703125 C-50.6111852 41.08649921 -53.267332 41.01767363 -56 41 C-56.02908633 36.77084783 -56.04682792 32.54172148 -56.0625 28.3125 C-56.07087891 27.11431641 -56.07925781 25.91613281 -56.08789062 24.68164062 C-56.09111328 23.52470703 -56.09433594 22.36777344 -56.09765625 21.17578125 C-56.10289307 20.11270752 -56.10812988 19.04963379 -56.11352539 17.9543457 C-56.00716844 15.1865491 -55.62894788 12.69207103 -55 10 C-11.19684349 -5.59842174 -11.19684349 -5.59842174 0 0 Z " fill="#FFBA48" transform="translate(279,137)"/>
<path d="M0 0 C2 2 2 2 2.375 5.6875 C2.13690625 13.02872395 -2.39730987 18.10212594 -7.5 22.9609375 C-20.43704957 33.51271856 -37.19042177 39.06065348 -53.1875 42.9375 C-54.06027588 43.14914795 -54.93305176 43.3607959 -55.83227539 43.57885742 C-60.67184072 44.67882249 -65.0390205 45.22153224 -70 45 C-67.28674885 39.22630442 -64.23581376 34.19558519 -60.375 29.125 C-59.84938477 28.43245117 -59.32376953 27.73990234 -58.78222656 27.02636719 C-48.2795481 13.41788761 -39.2305536 7.49211523 -22.5625 3.25 C-21.38623047 2.93417969 -20.20996094 2.61835937 -18.99804688 2.29296875 C-12.50666524 0.61660301 -6.70862866 -0.58275575 0 0 Z " fill="#FFBA48" transform="translate(310,48)"/>
<path d="M0 0 C20.46 0 40.92 0 62 0 C62 7.92 62 15.84 62 24 C41.54 24 21.08 24 0 24 C0 16.08 0 8.16 0 0 Z " fill="#000000" transform="translate(182,690)"/>
<path d="M0 0 C7.35898647 15.27972764 9.60828303 29.24433247 4.34765625 45.6484375 C2.16216831 51.08365099 -0.49738444 56.28958597 -4 61 C-4.66 61 -5.32 61 -6 61 C-6.08975098 60.38294189 -6.17950195 59.76588379 -6.27197266 59.13012695 C-8.63059841 43.2380415 -11.81454465 27.83569163 -17.1796875 12.6640625 C-18 10 -18 10 -18 6 C-15.37646482 4.99600476 -12.75132205 3.99665555 -10.125 3 C-9.37863281 2.71382813 -8.63226562 2.42765625 -7.86328125 2.1328125 C-2.2265625 0 -2.2265625 0 0 0 Z " fill="#0063B0" transform="translate(586,85)"/>
<path d="M0 0 C21 0 21 0 27 4 C29.8277772 8.2416658 29.66437928 12.01715536 29 17 C27.91077993 19.41049138 26.72315725 20.95375076 25 23 C25.804375 23.598125 26.60875 24.19625 27.4375 24.8125 C30.30620273 27.26139257 30.8562861 28.60998032 31.23828125 32.3046875 C31.35771732 36.44094719 31.40911443 39.23086487 29.4375 42.9375 C20.30566505 50.66443727 12.45123899 48 0 48 C0 32.16 0 16.32 0 0 Z M6 6 C6 10.62 6 15.24 6 20 C14.58288216 20.65449475 14.58288216 20.65449475 22 17 C23.30746709 15.90076459 23.30746709 15.90076459 23.3125 13.1875 C23.27120106 9.98200793 23.27120106 9.98200793 21.40234375 7.81640625 C18.2024338 5.39696214 16.21335714 5.59146571 12.25 5.75 C9.15625 5.87375 9.15625 5.87375 6 6 Z M6 26 C6 31.28 6 36.56 6 42 C8.8153125 42.0928125 8.8153125 42.0928125 11.6875 42.1875 C13.27111328 42.23970703 13.27111328 42.23970703 14.88671875 42.29296875 C19.34076628 41.87383002 21.88501354 40.11498646 25 37 C25.36599043 33.63288809 25.37424895 31.65939101 23.6875 28.6875 C21.21866494 26.21866494 19.30235444 26.00941328 15.86328125 25.90234375 C12.57552083 25.93489583 9.28776042 25.96744792 6 26 Z " fill="#000000" transform="translate(0,821)"/>
<path d="M0 0 C4.00125 -0.0825 8.0025 -0.165 12.125 -0.25 C13.37555176 -0.28641602 14.62610352 -0.32283203 15.91455078 -0.36035156 C22.2316853 -0.42345167 26.28495305 -0.40442731 31 4 C33.9224897 8.38373454 34.559524 11.77777599 34 17 C32.65714442 20.67518369 31.63726336 22.52205248 28.5 24.875 C26 26 26 26 23 26 C23.29245605 26.52432617 23.58491211 27.04865234 23.88623047 27.58886719 C25.21672063 29.97541082 26.54587276 32.36269708 27.875 34.75 C28.33519531 35.575 28.79539062 36.4 29.26953125 37.25 C29.71425781 38.04921875 30.15898437 38.8484375 30.6171875 39.671875 C31.02565918 40.4050293 31.43413086 41.13818359 31.85498047 41.89355469 C32.95010736 43.90821456 33.98761998 45.94271369 35 48 C29.99029371 48.80975856 29.99029371 48.80975856 27 48 C24.3350004 45.24421809 22.73229098 42.02126625 21 38.625 C20.51144531 37.73554687 20.02289063 36.84609375 19.51953125 35.9296875 C16 29.42299107 16 29.42299107 16 27 C12.7 27 9.4 27 6 27 C6 33.93 6 40.86 6 48 C4.02 48 2.04 48 0 48 C0 32.16 0 16.32 0 0 Z M6 6 C6 10.95 6 15.9 6 21 C8.56364483 21.10845031 11.12266279 21.18749744 13.6875 21.25 C14.40873047 21.28351562 15.12996094 21.31703125 15.87304688 21.3515625 C19.72405754 21.42190059 21.59822944 21.24190374 24.984375 19.203125 C27.31984047 17.0554606 27.31984047 17.0554606 27.5625 13.5 C27.26041277 10.05207433 27.26041277 10.05207433 25.51171875 7.796875 C21.82917916 5.16239877 18.65556802 5.56004184 14.25 5.75 C13.45722656 5.76804687 12.66445313 5.78609375 11.84765625 5.8046875 C9.89791652 5.85166918 7.94880122 5.92340956 6 6 Z " fill="#000000" transform="translate(266,821)"/>
<path d="M0 0 C1.2375 0.7425 1.2375 0.7425 2.5 1.5 C2.83 0.84 3.16 0.18 3.5 -0.5 C5.48 -0.5 7.46 -0.5 9.5 -0.5 C9.54970487 4.21393321 9.585863 8.9277114 9.60986328 13.6418457 C9.61987623 15.24310974 9.6334906 16.84435571 9.65087891 18.44555664 C9.67533565 20.75671876 9.68653029 23.06763762 9.6953125 25.37890625 C9.70563507 26.08648575 9.71595764 26.79406525 9.72659302 27.52308655 C9.72793743 33.57646321 9.09462226 38.61163153 5.125 43.3125 C0.20497267 47.41252278 -3.41342415 47.94316329 -9.734375 47.81640625 C-13.97952663 47.33073212 -16.13769992 46.14691708 -19.5 43.5 C-20.9375 40.75 -20.9375 40.75 -21.5 38.5 C-18.75 37.8125 -18.75 37.8125 -15.5 37.5 C-14.901875 37.974375 -14.30375 38.44875 -13.6875 38.9375 C-10.21291661 41.41934528 -6.62531655 41.15974732 -2.5 40.5 C0.16666667 39.16666667 0.16666667 39.16666667 1.5 36.5 C2.09879858 33.79508229 2.31452473 31.28212899 2.5 28.5 C1.345 29.015625 0.19 29.53125 -1 30.0625 C-5.69561472 31.80468921 -8.62680722 31.67899825 -13.5 30.5 C-18.57826209 27.72132829 -21.66314023 25.01057931 -23.5 19.5 C-24.02166057 14.53139685 -24.0724051 10.64481021 -21.8125 6.125 C-15.64698058 -0.87369772 -8.89529629 -3.81226984 0 0 Z M-14.5 6.5 C-16.79088372 9.36360465 -17.46980455 11.29240629 -18 14.9375 C-17.33624442 19.66675851 -15.84318209 21.15681791 -12.5 24.5 C-9.63391871 25.93304064 -7.68699217 25.80644155 -4.5 25.5 C-1.11694529 23.7434139 0.95478197 22.40079501 2.9375 19.125 C3.64482843 15.82413398 3.44642409 13.74488261 2.5 10.5 C0.03366817 6.89699304 0.03366817 6.89699304 -3.5 4.5 C-9.36400736 4.10367288 -9.36400736 4.10367288 -14.5 6.5 Z " fill="#000000" transform="translate(226.5,838.5)"/>
<path d="M0 0 C1.98 0 3.96 0 6 0 C6 15.84 6 31.68 6 48 C4.02 48 2.04 48 0 48 C-0.33 47.34 -0.66 46.68 -1 46 C-1.969375 46.515625 -2.93875 47.03125 -3.9375 47.5625 C-8.45565779 49.48317437 -12.30317064 49.23420334 -17 48 C-21.89413192 45.69144721 -24.17779785 42.90887127 -26.3046875 38.07421875 C-27.90675149 33.29502785 -27.40982778 29.42789301 -25.5 24.875 C-23.02442131 20.39455124 -19.74217914 17.86238308 -15 16 C-9.37495048 14.90448474 -6.23604015 16.38197992 -1 19 C-0.67 12.73 -0.34 6.46 0 0 Z M-19 26 C-21.05124631 28.7039156 -21.00081224 29.97766328 -20.875 33.4375 C-19.88095077 37.48470045 -19.18124767 39.29593948 -16 42 C-12.9237854 43.05269701 -10.23150076 43.39694905 -7 43 C-3.87233904 41.3453246 -1.60289581 39.20579162 0 36 C0.52963135 31.44093956 0.52963135 31.44093956 -1.046875 27.2421875 C-2.83594493 25.06373176 -4.45915625 23.27042188 -7 22 C-12.49230917 21.48185763 -15.12064736 22.00980872 -19 26 Z " fill="#000000" transform="translate(135,821)"/>
<path d="M0 0 C9.9 0 19.8 0 30 0 C30 1.65 30 3.3 30 5 C29 6 29 6 26.86694336 6.11352539 C25.95050049 6.10828857 25.03405762 6.10305176 24.08984375 6.09765625 C23.10048828 6.09443359 22.11113281 6.09121094 21.09179688 6.08789062 C20.05087891 6.07951172 19.00996094 6.07113281 17.9375 6.0625 C16.89271484 6.05798828 15.84792969 6.05347656 14.77148438 6.04882812 C12.18096546 6.03699927 9.59047578 6.01906319 7 6 C7 10.62 7 15.24 7 20 C13.27 20 19.54 20 26 20 C26 21.98 26 23.96 26 26 C19.73 26 13.46 26 7 26 C7 33.26 7 40.52 7 48 C4.69 48 2.38 48 0 48 C0 32.16 0 16.32 0 0 Z " fill="#000000" transform="translate(539,821)"/>
<path d="M0 0 C4.31367027 2.41157944 5.89341854 4.87340391 7.75 9.4375 C7.75 11.7475 7.75 14.0575 7.75 16.4375 C-4.625 16.9325 -4.625 16.9325 -17.25 17.4375 C-14.74943407 22.41371743 -14.74943407 22.41371743 -11.25 24.4375 C-7.06426024 24.63682094 -3.26424265 24.77558088 0.75 23.4375 C0.75 22.7775 0.75 22.1175 0.75 21.4375 C2.4 22.0975 4.05 22.7575 5.75 23.4375 C5.38225772 25.90292713 5.15922938 27.10685082 3.18359375 28.703125 C-2.52890353 31.52024695 -7.20046554 32.75285973 -13.390625 30.7421875 C-18.19491503 28.62474115 -20.92356623 26.27648223 -23.25 21.4375 C-24.79377559 15.15947926 -24.23113875 10.22844768 -21.25 4.4375 C-18.8125 2 -18.8125 2 -16.25 0.4375 C-15.651875 0.025 -15.05375 -0.3875 -14.4375 -0.8125 C-9.38290023 -2.54550563 -4.80844501 -2.09023822 0 0 Z M-17.25 9.4375 C-17.25 10.4275 -17.25 11.4175 -17.25 12.4375 C-10.98 12.4375 -4.71 12.4375 1.75 12.4375 C0.67817367 8.15019469 0.29929275 6.92200493 -3.25 4.4375 C-9.49899643 3.16433998 -13.38647567 4.07841787 -17.25 9.4375 Z " fill="#000000" transform="translate(328.25,838.5625)"/>
<path d="M0 0 C3.44068939 2.25180129 5.44868094 4.62825636 7.25 8.375 C7.25 11.015 7.25 13.655 7.25 16.375 C-1 16.375 -9.25 16.375 -17.75 16.375 C-15.41151858 22.29231018 -15.41151858 22.29231018 -11.75 24.375 C-6.05182562 24.84206347 -2.76571703 24.38443022 2.25 21.375 C3.24 22.035 4.23 22.695 5.25 23.375 C4.88225772 25.84042713 4.65922938 27.04435082 2.68359375 28.640625 C-2.43667142 31.16568727 -6.0385202 32.01984449 -11.75 31.375 C-17.42507225 29.37203332 -21.05675089 25.76149821 -23.75 20.375 C-24.26421665 15.29184193 -24.55734489 10.11317687 -22.25 5.4375 C-16.62326711 -1.45524779 -8.2750384 -4.19927322 0 0 Z M-16.75 8.375 C-17.08 9.695 -17.41 11.015 -17.75 12.375 C-11.48 12.375 -5.21 12.375 1.25 12.375 C0.72667355 7.62758256 0.72667355 7.62758256 -1.3125 5.5625 C-7.25274531 2.66853434 -12.36141602 3.58745384 -16.75 8.375 Z " fill="#000000" transform="translate(715.75,838.625)"/>
<path d="M0 0 C4.71824845 3.07009317 6.8916009 6.69328115 8.0625 12.1875 C8.124375 13.239375 8.18625 14.29125 8.25 15.375 C7.25 16.375 7.25 16.375 4.84155273 16.48852539 C3.79942627 16.48328857 2.7572998 16.47805176 1.68359375 16.47265625 C0.55888672 16.46943359 -0.56582031 16.46621094 -1.72460938 16.46289062 C-2.90861328 16.45451172 -4.09261719 16.44613281 -5.3125 16.4375 C-6.50037109 16.43298828 -7.68824219 16.42847656 -8.91210938 16.42382812 C-11.85812226 16.41199675 -14.80403681 16.39551287 -17.75 16.375 C-15.63673474 21.08342624 -15.63673474 21.08342624 -11.75 24.375 C-7.54115555 24.9718343 -3.89215294 25.04357733 -0.1875 22.875 C0.286875 22.38 0.76125 21.885 1.25 21.375 C2.57 22.035 3.89 22.695 5.25 23.375 C4.88225772 25.84042713 4.65922938 27.04435082 2.68359375 28.640625 C-2.43667142 31.16568727 -6.0385202 32.01984449 -11.75 31.375 C-17.42507225 29.37203332 -21.05675089 25.76149821 -23.75 20.375 C-24.26421665 15.29184193 -24.55734489 10.11317687 -22.25 5.4375 C-16.62326711 -1.45524779 -8.2750384 -4.19927322 0 0 Z M-16.75 8.375 C-17.08 9.695 -17.41 11.015 -17.75 12.375 C-11.48 12.375 -5.21 12.375 1.25 12.375 C0.72667355 7.62758256 0.72667355 7.62758256 -1.3125 5.5625 C-7.25274531 2.66853434 -12.36141602 3.58745384 -16.75 8.375 Z " fill="#000000" transform="translate(443.75,838.625)"/>
<path d="M0 0 C3.75212276 2.01502889 5.63644095 3.45466142 8 7 C9.26953707 12.25380751 9.11505356 17.5064514 9.0625 22.875 C9.05798828 23.75414062 9.05347656 24.63328125 9.04882812 25.5390625 C9.03712337 27.69273803 9.01919069 29.84637817 9 32 C7.02 32 5.04 32 3 32 C2.92652344 30.02966797 2.92652344 30.02966797 2.8515625 28.01953125 C2.77650532 26.28383405 2.70095877 24.54815797 2.625 22.8125 C2.5940625 21.94818359 2.563125 21.08386719 2.53125 20.19335938 C2.259855 13.86509688 2.259855 13.86509688 0 8 C-3.01868434 6.49065783 -5.67297229 6.82489328 -9 7 C-12.24849977 8.72226496 -12.24849977 8.72226496 -13 12 C-13.1464714 13.55266653 -13.24694074 15.10995662 -13.31640625 16.66796875 C-13.35830078 17.56064453 -13.40019531 18.45332031 -13.44335938 19.37304688 C-13.50233398 20.76620117 -13.50233398 20.76620117 -13.5625 22.1875 C-13.60568359 23.12787109 -13.64886719 24.06824219 -13.69335938 25.03710938 C-13.79938665 27.35792854 -13.90145029 29.67885325 -14 32 C-15.98 32 -17.96 32 -20 32 C-20 21.77 -20 11.54 -20 1 C-17 1 -14 1 -11 1 C-7.27599129 -0.24133624 -3.86824 -0.54111486 0 0 Z " fill="#000000" transform="translate(187,837)"/>
<path d="M0 0 C3.11291877 2.05169646 4.12116458 3.49132969 5.75 6.8125 C6.09057617 9.58325195 6.09057617 9.58325195 6.04296875 12.55078125 C6.03330078 13.61748047 6.02363281 14.68417969 6.01367188 15.78320312 C5.98853516 16.88599609 5.96339844 17.98878906 5.9375 19.125 C5.91719727 20.80819336 5.91719727 20.80819336 5.89648438 22.52539062 C5.8612138 25.28825229 5.81192235 28.05012829 5.75 30.8125 C4.1 30.8125 2.45 30.8125 0.75 30.8125 C0.70101563 29.66652344 0.65203125 28.52054688 0.6015625 27.33984375 C0.52647199 25.80987465 0.45092694 24.27992782 0.375 22.75 C0.3440625 21.99783203 0.313125 21.24566406 0.28125 20.47070312 C0.02985889 15.63142416 -0.59754208 11.3835077 -2.25 6.8125 C-5.34173752 5.26663124 -7.84429552 5.51890479 -11.25 5.8125 C-13.64403057 7.08995543 -13.64403057 7.08995543 -15.25 9.8125 C-15.88761207 13.38852335 -15.94688812 16.93640732 -16 20.5625 C-16.02964844 21.54605469 -16.05929687 22.52960937 -16.08984375 23.54296875 C-16.16042411 25.96622776 -16.21317701 28.38853154 -16.25 30.8125 C-18.23 30.8125 -20.21 30.8125 -22.25 30.8125 C-22.25 20.5825 -22.25 10.3525 -22.25 -0.1875 C-19.25 -0.1875 -16.25 -0.1875 -13.25 -0.1875 C-8.51800479 -1.76483174 -4.69388532 -1.71507348 0 0 Z " fill="#000000" transform="translate(481.25,838.1875)"/>
<path d="M0 0 C1.98 0 3.96 0 6 0 C6.01981934 0.58491211 6.03963867 1.16982422 6.06005859 1.77246094 C6.15553481 4.43208025 6.26512142 7.09093838 6.375 9.75 C6.4059375 10.67039062 6.436875 11.59078125 6.46875 12.5390625 C6.50742187 13.42851563 6.54609375 14.31796875 6.5859375 15.234375 C6.6173584 16.05131836 6.6487793 16.86826172 6.68115234 17.70996094 C7.02868454 20.20601917 7.67095532 21.86620725 9 24 C12.04983996 25.52491998 14.6423369 25.23562548 18 25 C20.61593153 23.16884793 20.96989455 22.09031634 22 19 C22.14573058 17.52034074 22.24663268 16.03596157 22.31640625 14.55078125 C22.35830078 13.70322266 22.40019531 12.85566406 22.44335938 11.98242188 C22.48267578 11.10134766 22.52199219 10.22027344 22.5625 9.3125 C22.60568359 8.41982422 22.64886719 7.52714844 22.69335938 6.60742188 C22.79935353 4.40509892 22.90142051 2.20266527 23 0 C24.98 0 26.96 0 29 0 C29.0878954 3.35399849 29.14068879 6.7076964 29.1875 10.0625 C29.21263672 11.00544922 29.23777344 11.94839844 29.26367188 12.91992188 C29.32474987 18.7630499 28.82562581 22.84940539 26 28 C21.87679914 31.99019438 17.65260032 32.3025527 12.02734375 32.21875 C7.87781932 31.77101711 4.95108128 30.049469 2.1875 27 C0.14404963 23.55839938 -0.120285 20.80930469 -0.09765625 16.89453125 C-0.09443359 15.91162109 -0.09121094 14.92871094 -0.08789062 13.91601562 C-0.07951172 12.89185547 -0.07113281 11.86769531 -0.0625 10.8125 C-0.05798828 9.77673828 -0.05347656 8.74097656 -0.04882812 7.67382812 C-0.0370401 5.11582734 -0.02058515 2.55794267 0 0 Z " fill="#000000" transform="translate(573,838)"/>
<path d="M0 0 C1.98 0 3.96 0 6 0 C6.01981934 0.58491211 6.03963867 1.16982422 6.06005859 1.77246094 C6.15553481 4.43208025 6.26512142 7.09093838 6.375 9.75 C6.4059375 10.67039062 6.436875 11.59078125 6.46875 12.5390625 C6.50742187 13.42851563 6.54609375 14.31796875 6.5859375 15.234375 C6.6173584 16.05131836 6.6487793 16.86826172 6.68115234 17.70996094 C7.02868454 20.20601917 7.67095532 21.86620725 9 24 C12.04983996 25.52491998 14.6423369 25.23562548 18 25 C20.10358381 23.45737187 20.84054159 22.31891683 22 20 C22.15123831 18.4804236 22.24881693 16.95527498 22.31640625 15.4296875 C22.35830078 14.53378906 22.40019531 13.63789062 22.44335938 12.71484375 C22.48267578 11.77769531 22.52199219 10.84054687 22.5625 9.875 C22.60568359 8.93011719 22.64886719 7.98523438 22.69335938 7.01171875 C22.79959072 4.67462908 22.90163176 2.3374317 23 0 C24.98 0 26.96 0 29 0 C29.0878954 3.35399849 29.14068879 6.7076964 29.1875 10.0625 C29.21263672 11.00544922 29.23777344 11.94839844 29.26367188 12.91992188 C29.32474987 18.7630499 28.82562581 22.84940539 26 28 C22.48446205 31.4021335 19.45161675 31.89044402 14.6875 32.25 C9.65535539 31.90883765 5.63890557 30.74816594 2.125 27 C0.17601659 23.53514061 -0.12018667 20.79229413 -0.09765625 16.89453125 C-0.09443359 15.91162109 -0.09121094 14.92871094 -0.08789062 13.91601562 C-0.07951172 12.89185547 -0.07113281 11.86769531 -0.0625 10.8125 C-0.05798828 9.77673828 -0.05347656 8.74097656 -0.04882812 7.67382812 C-0.0370401 5.11582734 -0.02058515 2.55794267 0 0 Z " fill="#000000" transform="translate(39,838)"/>
<path d="M0 0 C1.65 0 3.3 0 5 0 C5.04898438 1.15757812 5.09796875 2.31515625 5.1484375 3.5078125 C5.22351478 5.0468967 5.29906043 6.5859581 5.375 8.125 C5.4059375 8.88554688 5.436875 9.64609375 5.46875 10.4296875 C5.87319318 18.41088824 5.87319318 18.41088824 10 25 C13.62876213 25.40319579 16.02407595 25.60514287 19.1796875 23.6484375 C22.04625903 19.47776046 21.67750759 15.1992544 21.75 10.25 C21.77964844 9.26644531 21.80929687 8.28289063 21.83984375 7.26953125 C21.91042411 4.84627224 21.96317701 2.42396846 22 0 C23.98 0 25.96 0 28 0 C28.11674705 3.70806596 28.18743274 7.4156554 28.25 11.125 C28.28351562 12.17171875 28.31703125 13.2184375 28.3515625 14.296875 C28.4305084 20.53360101 28.26433767 24.30304836 24 29 C19.45599564 32.09818479 15.34977943 32.7810678 10 32 C5.27122894 30.2721798 2.54155441 28.35079653 0 24 C-0.49477587 19.8855679 -0.37570967 15.82383154 -0.25 11.6875 C-0.22292969 10.00430664 -0.22292969 10.00430664 -0.1953125 8.28710938 C-0.14827856 5.52386553 -0.08256317 2.76237302 0 0 Z " fill="#000000" transform="translate(634,838)"/>
<path d="M0 0 C0.804375 0.495 1.60875 0.99 2.4375 1.5 C2.125 3.4375 2.125 3.4375 1.4375 5.5 C0.4475 5.83 -0.5425 6.16 -1.5625 6.5 C-2.2225 6.17 -2.8825 5.84 -3.5625 5.5 C-4.93592831 5.4310528 -6.31252102 5.41532292 -7.6875 5.4375 C-8.96625 5.458125 -10.245 5.47875 -11.5625 5.5 C-11.5625 6.82 -11.5625 8.14 -11.5625 9.5 C-10.80324219 9.82613281 -10.04398438 10.15226563 -9.26171875 10.48828125 C-8.26785156 10.92527344 -7.27398438 11.36226562 -6.25 11.8125 C-5.26386719 12.24175781 -4.27773438 12.67101562 -3.26171875 13.11328125 C-0.78735145 14.38448298 0.72261443 15.34382466 2.4375 17.5 C3.59194565 21.21071815 3.59171449 23.05449146 2.3125 26.75 C0.12209682 29.96259133 -0.80172188 30.66427153 -4.5625 31.5 C-11.06481611 32.13957208 -14.99089566 30.81925365 -20.5625 27.5 C-19.9025 25.85 -19.2425 24.2 -18.5625 22.5 C-17.7375 22.83 -16.9125 23.16 -16.0625 23.5 C-11.9751017 24.66782809 -8.79326656 24.6458885 -4.5625 24.5 C-4.2325 23.18 -3.9025 21.86 -3.5625 20.5 C-4.39394531 20.17386719 -5.22539063 19.84773437 -6.08203125 19.51171875 C-7.16871094 19.07472656 -8.25539063 18.63773438 -9.375 18.1875 C-10.45394531 17.75824219 -11.53289063 17.32898438 -12.64453125 16.88671875 C-15.28448862 15.63212054 -16.79621716 14.78021798 -18.5625 12.5 C-19.72714768 8.75648961 -19.7301593 6.95885704 -18.375 3.25 C-14.12097471 -3.2043832 -6.54370994 -2.75524629 0 0 Z " fill="#000000" transform="translate(748.5625,838.5)"/>
<path d="M0 0 C-0.3125 1.9375 -0.3125 1.9375 -1 4 C-1.99 4.33 -2.98 4.66 -4 5 C-4.66 4.67 -5.32 4.34 -6 4 C-7.37342831 3.9310528 -8.75002102 3.91532292 -10.125 3.9375 C-11.40375 3.958125 -12.6825 3.97875 -14 4 C-14 5.32 -14 6.64 -14 8 C-13.24074219 8.32613281 -12.48148437 8.65226563 -11.69921875 8.98828125 C-10.70535156 9.42527344 -9.71148437 9.86226562 -8.6875 10.3125 C-7.70136719 10.74175781 -6.71523438 11.17101562 -5.69921875 11.61328125 C-3.19948616 12.89751434 -1.64275703 13.74394701 0 16 C0.6228087 19.04671283 0.50943248 21.93786782 0 25 C-2.19831364 28.03215675 -3.44963194 28.81654398 -7 30 C-13.50514946 30.55128385 -17.4209758 29.32367399 -23 26 C-22.34 24.35 -21.68 22.7 -21 21 C-20.175 21.33 -19.35 21.66 -18.5 22 C-14.4126017 23.16782809 -11.23076656 23.1458885 -7 23 C-6.67 21.35 -6.34 19.7 -6 18 C-6.66386719 17.82984375 -7.32773437 17.6596875 -8.01171875 17.484375 C-17.70773152 14.82327952 -17.70773152 14.82327952 -21 11 C-22.14009771 7.08091414 -22.40888632 4.96841496 -20.8125 1.1875 C-15.11369608 -5.6903668 -7.04118356 -3.52059178 0 0 Z " fill="#000000" transform="translate(364,840)"/>
<path d="M0 0 C1.98 0 3.96 0 6 0 C6 3.63 6 7.26 6 11 C8.97 11 11.94 11 15 11 C15 12.65 15 14.3 15 16 C12.03 16 9.06 16 6 16 C6.14016167 19.14618209 6.28684905 22.29181816 6.4375 25.4375 C6.49647461 26.78424805 6.49647461 26.78424805 6.55664062 28.15820312 C6.61948242 29.43920898 6.61948242 29.43920898 6.68359375 30.74609375 C6.72025146 31.53685303 6.75690918 32.3276123 6.79467773 33.14233398 C6.80563257 35.01401441 6.80563257 35.01401441 8 36 C10.32817964 36.36760731 12.6618385 36.70241581 15 37 C15.042721 38.66611905 15.04063832 40.33382885 15 42 C13.44049449 43.55950551 11.91122869 43.28196698 9.75 43.375 C8.98171875 43.42398438 8.2134375 43.47296875 7.421875 43.5234375 C3.52924137 42.68212636 2.27516119 41.25879854 0 38 C-0.6039513 34.20865266 -0.47163618 30.51411315 -0.3125 26.6875 C-0.27866211 25.14739258 -0.27866211 25.14739258 -0.24414062 23.57617188 C-0.18537575 21.0492821 -0.10327849 18.52539745 0 16 C-1.65 16 -3.3 16 -5 16 C-5 14.35 -5 12.7 -5 11 C-3.35 11 -1.7 11 0 11 C0 7.37 0 3.74 0 0 Z " fill="#000000" transform="translate(498,827)"/>
<path d="M0 0 C1.98 0 3.96 0 6 0 C6 3.63 6 7.26 6 11 C8.97 11 11.94 11 15 11 C15 12.65 15 14.3 15 16 C12.03 16 9.06 16 6 16 C6.33 22.6 6.66 29.2 7 36 C9.31 36.33 11.62 36.66 14 37 C14.042721 38.66611905 14.04063832 40.33382885 14 42 C12.16867694 43.83132306 9.6480529 43.29047035 7.203125 43.42578125 C3.63720588 42.73662312 2.34635772 41.82620211 0 39 C-0.62630846 35.06954759 -0.46877828 31.21706411 -0.3125 27.25 C-0.27866211 25.63158203 -0.27866211 25.63158203 -0.24414062 23.98046875 C-0.1852565 21.3189065 -0.10307001 18.66015772 0 16 C-1.65 16 -3.3 16 -5 16 C-5 14.35 -5 12.7 -5 11 C-3.35 11 -1.7 11 0 11 C0 7.37 0 3.74 0 0 Z " fill="#000000" transform="translate(613,827)"/>
<path d="M0 0 C1.98 0 3.96 0 6 0 C6.33 14.19 6.66 28.38 7 43 C8.65 43 10.3 43 12 43 C12 44.98 12 46.96 12 49 C5.66169154 49.36567164 5.66169154 49.36567164 2.625 47.6875 C-0.01310436 44.94793009 -0.12414942 42.33495333 -0.11352539 38.7121582 C-0.11344986 37.85149246 -0.11337433 36.99082672 -0.11329651 36.1040802 C-0.10813522 35.17899155 -0.10297394 34.25390289 -0.09765625 33.30078125 C-0.0962413 32.35059616 -0.09482635 31.40041107 -0.09336853 30.4214325 C-0.08776875 27.38508971 -0.07521632 24.34882052 -0.0625 21.3125 C-0.05748497 19.25455836 -0.05292207 17.19661556 -0.04882812 15.13867188 C-0.0377994 10.09241954 -0.02053493 5.04622225 0 0 Z " fill="#000000" transform="translate(388,821)"/>
<path d="M0 0 C1.98 0 3.96 0 6 0 C6.33 14.19 6.66 28.38 7 43 C8.65 43 10.3 43 12 43 C12.042721 44.66611905 12.04063832 46.33382885 12 48 C11 49 11 49 8.1875 49.25 C4.68166985 48.97503293 3.45377858 48.45377858 1 46 C0.07312675 43.21938025 -0.12193396 41.57948141 -0.11352539 38.7121582 C-0.11344986 37.85149246 -0.11337433 36.99082672 -0.11329651 36.1040802 C-0.10813522 35.17899155 -0.10297394 34.25390289 -0.09765625 33.30078125 C-0.0962413 32.35059616 -0.09482635 31.40041107 -0.09336853 30.4214325 C-0.08776875 27.38508971 -0.07521632 24.34882052 -0.0625 21.3125 C-0.05748497 19.25455836 -0.05292207 17.19661556 -0.04882812 15.13867188 C-0.0377994 10.09241954 -0.02053493 5.04622225 0 0 Z " fill="#000000" transform="translate(93,821)"/>
<path d="M0 0 C0 1.98 0 3.96 0 6 C-2.97851562 6.63476562 -2.97851562 6.63476562 -5.95703125 7.26953125 C-8.40231315 8.14384811 -9.38211211 8.97257721 -11 11 C-11.50246675 13.31250836 -11.50246675 13.31250836 -11.51171875 15.88671875 C-11.56489258 17.2934082 -11.56489258 17.2934082 -11.61914062 18.72851562 C-11.64169922 19.70498047 -11.66425781 20.68144531 -11.6875 21.6875 C-11.72166016 22.67556641 -11.75582031 23.66363281 -11.79101562 24.68164062 C-11.87350538 27.12098053 -11.94265068 29.55996063 -12 32 C-13.98 32 -15.96 32 -18 32 C-18 21.77 -18 11.54 -18 1 C-15 1 -12 1 -9 1 C-5.8035914 -0.06546953 -3.34252724 -0.07427838 0 0 Z " fill="#000000" transform="translate(690,837)"/>
<path d="M0 0 C1.98 0 3.96 0 6 0 C6 10.23 6 20.46 6 31 C4.02 31 2.04 31 0 31 C0 20.77 0 10.54 0 0 Z " fill="#000000" transform="translate(406,838)"/>
<path d="M0 0 C1.98 0 3.96 0 6 0 C6 10.23 6 20.46 6 31 C4.02 31 2.04 31 0 31 C0 20.77 0 10.54 0 0 Z " fill="#000000" transform="translate(372,838)"/>
<path d="M0 0 C1.98 0 3.96 0 6 0 C6 10.23 6 20.46 6 31 C4.02 31 2.04 31 0 31 C0 20.77 0 10.54 0 0 Z " fill="#000000" transform="translate(151,838)"/>
<path d="M0 0 C1.98 0 3.96 0 6 0 C6 10.23 6 20.46 6 31 C4.02 31 2.04 31 0 31 C0 20.77 0 10.54 0 0 Z " fill="#000000" transform="translate(77,838)"/>
<path d="M0 0 C3 0.125 3 0.125 4 1.125 C4.125 3.625 4.125 3.625 4 6.125 C3 7.125 3 7.125 0 7.25 C-3 7.125 -3 7.125 -4 6.125 C-4.125 3.625 -4.125 3.625 -4 1.125 C-3 0.125 -3 0.125 0 0 Z " fill="#000000" transform="translate(409,823.875)"/>
<path d="M0 0 C1.99954746 -0.04254356 4.00041636 -0.04080783 6 0 C7 1 7 1 7.125 3.5 C7 6 7 6 6 7 C4.00041636 7.04080783 1.99954746 7.04254356 0 7 C-1.125 2.25 -1.125 2.25 0 0 Z " fill="#000000" transform="translate(151,824)"/>
<path d="M0 0 C1.99954746 -0.04254356 4.00041636 -0.04080783 6 0 C7 1 7 1 7.125 3.5 C7 6 7 6 6 7 C4.00041636 7.04080783 1.99954746 7.04254356 0 7 C-1.125 2.25 -1.125 2.25 0 0 Z " fill="#000000" transform="translate(77,824)"/>
<path d="M0 0 C1.99954746 -0.04254356 4.00041636 -0.04080783 6 0 C7 1 7 1 7.125 3.5 C7 6 7 6 6 7 C4.00041636 7.04080783 1.99954746 7.04254356 0 7 C-0.93423645 3.98968256 -1.04449911 3.13349732 0 0 Z " fill="#000000" transform="translate(372,824)"/>
<path d="" fill="#6CB32E" transform="translate(0,0)"/>
</svg>
