<?xml version="1.0" encoding="UTF-8"?>
<svg version="1.1" xmlns="http://www.w3.org/2000/svg" width="2375" height="885">
<path d="M0 0 C26.73 0 53.46 0 81 0 C83.61886945 5.89245627 86.13336477 11.73769702 88.44140625 17.74609375 C88.76099304 18.57291153 89.08057983 19.39972931 89.40985107 20.25160217 C90.46319555 22.97929248 91.51297071 25.70833968 92.5625 28.4375 C93.31594499 30.39194804 94.06944561 32.34637463 94.82299805 34.30078125 C100.76566142 49.7289619 106.64129832 65.18243548 112.50375366 80.64123535 C118.58398109 96.6735543 124.71118446 112.68713769 130.875 128.6875 C137.75626035 146.55221366 144.61218946 164.42633128 151.4375 182.3125 C151.87188385 183.45074219 152.3062677 184.58898437 152.7538147 185.76171875 C156.27798261 194.99691752 159.80047101 204.23275665 163.32287598 213.46862793 C174.58938899 243.0090403 185.87960679 272.53998701 197.24125671 302.04396057 C197.99780747 304.00925508 198.75376982 305.97477621 199.5091095 307.9405365 C201.5925366 313.3598684 203.69045456 318.773185 205.80322266 324.18115234 C206.26678665 325.37286545 206.73035065 326.56457855 207.20796204 327.79240417 C208.10735593 330.10414542 209.01067793 332.4143632 209.91838074 334.72285461 C210.32147964 335.7613707 210.72457855 336.79988678 211.13989258 337.86987305 C211.49956619 338.78947311 211.85923981 339.70907318 212.22981262 340.65653992 C213 343 213 343 213 346 C213.66 346 214.32 346 215 346 C215.17482407 345.44530029 215.34964813 344.89060059 215.5297699 344.3190918 C217.25274574 338.98548181 219.25744363 333.90202842 221.59765625 328.8125 C221.94372421 328.04949585 222.28979218 327.2864917 222.64634705 326.50036621 C223.39188 324.8572426 224.13929457 323.21497165 224.88842773 321.57348633 C226.92671512 317.1056994 228.94953072 312.63091837 230.97265625 308.15625 C231.39100739 307.23154907 231.80935852 306.30684814 232.24038696 305.35412598 C236.56948536 295.76919558 240.78960803 286.13751302 245 276.5 C251.28307764 262.12773148 257.66617097 247.80433777 264.125 233.51025391 C269.83186486 220.87539382 275.44529107 208.20244314 281 195.5 C286.9651063 181.86072397 293.00168618 168.25650951 299.125 154.6875 C299.68770599 153.4404982 299.68770599 153.4404982 300.26177979 152.16830444 C300.6357489 151.33956818 301.00971802 150.51083191 301.39501953 149.65698242 C307.90282782 135.23388854 314.33919571 120.77991018 320.75398254 106.31524658 C323.61165757 99.87232235 326.47524514 93.43203599 329.33984375 86.9921875 C330.25733113 84.92928367 331.17481162 82.86637678 332.09228516 80.8034668 C333.44208192 77.76851686 334.79198211 74.73361321 336.14227295 71.69888306 C337.39346489 68.88669004 338.6440605 66.07423252 339.89453125 63.26171875 C340.26569565 62.42788666 340.63686005 61.59405457 341.01927185 60.73495483 C343.04776007 56.17098065 345.04389588 51.59548122 347 47 C347.66 47 348.32 47 349 47 C358.10248864 67.12206089 367.15176795 87.26466052 376 107.5 C381.9650217 121.13931292 388.00168657 134.74349136 394.125 148.3125 C394.50013733 149.14383453 394.87527466 149.97516907 395.26177979 150.83169556 C395.6357489 151.66043182 396.00971802 152.48916809 396.39501953 153.34301758 C401.25341605 164.11056111 406.08272564 174.8903611 410.875 185.6875 C411.19652039 186.41185242 411.51804077 187.13620483 411.8493042 187.88250732 C413.17688503 190.87384179 414.50416438 193.86530974 415.83102417 196.85696411 C419.70980446 205.60224575 423.59633014 214.34408272 427.48248291 223.08609009 C429.60836475 227.86847969 431.7338488 232.65104608 433.859375 237.43359375 C434.71809707 239.3657235 435.57682103 241.2978524 436.43554688 243.22998047 C441.51757813 254.66455079 441.51757813 254.66455079 442.76785278 257.47770691 C443.60023284 259.35053659 444.4326507 261.22334948 445.2651062 263.09614563 C447.33078141 267.74347289 449.39581634 272.3910825 451.45947266 277.03930664 C455.36543632 285.8353373 459.27811978 294.62821794 463.21173096 303.41192627 C465.07108385 307.56482445 466.92703179 311.71924022 468.78271484 315.8737793 C469.66903194 317.8554992 470.5570203 319.83647258 471.44677734 321.81665039 C472.6796837 324.56079324 473.90682839 327.30744656 475.1328125 330.0546875 C475.49641876 330.85989838 475.86002502 331.66510925 476.23464966 332.49472046 C478.21222621 336.94315804 479.78405966 341.28421849 481 346 C481.66 346 482.32 346 483 346 C483.1658963 345.41421677 483.3317926 344.82843353 483.50271606 344.22489929 C485.47476777 337.44095003 487.84227881 330.8651363 490.3671875 324.26953125 C490.79397293 323.1463298 491.22075836 322.02312836 491.66047668 320.8658905 C492.82007277 317.81626759 493.98277387 314.76785188 495.14693832 311.7199707 C496.38150088 308.48550309 497.61198242 305.24948325 498.84301758 302.01367188 C501.64454907 294.65231945 504.45226366 287.29333399 507.26140594 279.93488312 C508.43583629 276.85824659 509.60973069 273.78140559 510.78369141 270.70458984 C514.29112969 261.51298829 517.79991968 252.32190454 521.31201172 243.13208008 C527.05858413 228.09457578 532.78620859 213.04998856 538.5 198 C545.5888468 179.32858478 552.70467965 160.66760582 559.83300781 142.01123047 C566.0723039 125.68057106 572.29479788 109.34364341 578.5 93 C585.43980176 74.72207806 592.40037943 56.45215813 599.375 38.1875 C599.82415771 37.0111499 600.27331543 35.8347998 600.73608398 34.62280273 C602.01912751 31.26276597 603.30245668 27.9028385 604.5859375 24.54296875 C604.95911102 23.56587448 605.33228455 22.58878021 605.71676636 21.58207703 C608.46733835 14.38394947 611.23377588 7.19218272 614 0 C641.06 0 668.12 0 696 0 C695.29752923 3.51235383 694.66409041 6.15377127 693.37515259 9.38510132 C693.03942734 10.23278076 692.70370209 11.08046021 692.35780334 11.9538269 C691.98916672 12.87189117 691.62053009 13.78995544 691.24072266 14.73583984 C690.85169266 15.71445984 690.46266266 16.69307983 690.06184387 17.70135498 C688.76670592 20.95620832 687.46543767 24.20857347 686.1640625 27.4609375 C685.24659786 29.76244782 684.3294799 32.06409638 683.41268921 34.36587524 C681.47660406 39.22428104 679.53786026 44.0816165 677.59667969 48.93798828 C675.16936926 55.01056773 672.7467756 61.08501775 670.32591343 67.16017056 C659.9033411 93.31444351 649.41722077 119.44226953 638.85101795 145.53882885 C630.58416142 165.95731679 622.3712659 186.39749801 614.15844727 206.83776855 C612.78017042 210.26796037 611.40169559 213.69807258 610.02319336 217.12817383 C595.83094055 252.44416952 581.67798091 287.77574172 567.55465698 323.11935425 C557.96548856 347.11586307 548.3574042 371.1045848 538.7109375 395.078125 C538.23930994 396.25028124 537.76768238 397.42243748 537.28176308 398.6301136 C534.91437248 404.51380303 532.54681107 410.3974237 530.17922974 416.28103638 C529.24447862 418.60402108 528.30973533 420.92700894 527.375 423.25 C526.9167622 424.38879986 526.4585244 425.52759972 525.9864006 426.70090866 C513.08522186 458.76509061 500.23274989 490.84549521 487.71000671 523.05976868 C485.5083939 528.72071924 483.26452763 534.36392786 481 540 C480.34 540 479.68 540 479 540 C467.99198926 513.8538016 457.58545861 487.4662025 447.1171875 461.10070801 C442.89712343 450.47235847 438.67452565 439.84501632 434.44921875 429.21875 C433.99145554 428.06748501 433.53369232 426.91622002 433.0620575 425.73006821 C427.00090748 410.49095976 420.89607188 395.27087838 414.71754456 380.07901001 C406.56346824 360.02808692 398.50200468 339.93980478 390.43066406 319.85546875 C388.56461921 315.21223607 386.69774209 310.56933947 384.83007812 305.92675781 C375.60954208 283.00605048 366.39665368 260.08211924 357.28406906 237.11822891 C356.53268901 235.22566103 355.78020599 233.33353063 355.02656937 231.4418602 C354.0004814 228.86507816 352.97880897 226.28659271 351.95849609 223.70751953 C351.50381266 222.5689897 351.50381266 222.5689897 351.0399437 221.40745926 C349 216.22904605 349 216.22904605 349 214 C348.34 214 347.68 214 347 214 C346.89451843 214.67098724 346.78903687 215.34197449 346.68035889 216.03329468 C345.84670711 219.66843374 344.51589727 223.02369954 343.11425781 226.46728516 C342.81620995 227.20956234 342.51816208 227.95183952 342.21108246 228.71660995 C341.21248568 231.20074797 340.20776375 233.68236249 339.203125 236.1640625 C338.48422629 237.94918465 337.76575128 239.73447747 337.04766846 241.51992798 C335.50513593 245.35342858 333.96013834 249.18592288 332.41333008 253.0177002 C330.01367225 258.96348666 327.62206462 264.91248718 325.23242188 270.86230469 C321.86817281 279.23778493 318.50224465 287.61258647 315.13427734 295.98657227 C299.51201884 334.83092938 283.91227096 373.68406666 268.375 412.5625 C256.75587327 441.63547487 245.10899109 470.69711332 233.42182159 499.7428093 C232.3193735 502.48291608 231.21723819 505.22314849 230.11517334 507.96340942 C228.40979415 512.20352841 226.70347906 516.44326948 224.9963398 520.68268013 C224.3712797 522.23519881 223.74648237 523.7878233 223.12196159 525.34055901 C222.27262549 527.45197467 221.42223471 529.56296229 220.5715332 531.67382812 C220.09609573 532.85464966 219.62065826 534.03547119 219.1308136 535.2520752 C218.47066268 536.85626981 217.77578858 538.44842284 217 540 C216.34 540 215.68 540 215 540 C214.33516853 538.32685982 214.33516853 538.32685982 213.65690613 536.61991882 C192.38297603 483.08490602 171.06211885 429.56983136 149.5625 376.125 C149.10909115 374.99788479 148.6556823 373.87076958 148.18853378 372.70949936 C145.92338022 367.07875717 143.65810327 361.44806461 141.39283752 355.81736755 C140.95531221 354.72981108 140.5177869 353.6422546 140.06700325 352.52174187 C139.19549104 350.35544776 138.32395374 348.18916374 137.45239067 346.02289009 C129.67277241 326.68576009 121.92448816 307.33626335 114.19309235 287.97981262 C106.5682585 268.89085442 98.91852271 249.81207032 91.24609375 230.7421875 C90.36713217 228.55736467 89.4881751 226.37254003 88.60922241 224.18771362 C88.16793943 223.09082529 87.72665646 221.99393696 87.27200127 220.86380959 C84.99378568 215.20089257 82.71560023 209.53796343 80.4375 203.875 C79.98534622 202.75105583 79.53319244 201.62711166 79.06733704 200.46910858 C62.86197321 160.18407071 46.75969847 119.85860902 30.72884274 79.5038166 C29.01955117 75.20124346 27.30961116 70.89892826 25.59945488 66.59669876 C24.77929018 64.53310135 23.95938664 62.46940011 23.13975716 60.40559006 C18.94817334 49.85304747 14.73389715 39.31096399 10.43945312 28.79980469 C9.9023918 27.48369107 9.9023918 27.48369107 9.35448074 26.1409893 C7.68610058 22.05448114 6.0120175 17.97049003 4.3270874 13.89077759 C3.74687342 12.47461233 3.16680612 11.05838696 2.58691406 9.64208984 C2.08419983 8.42355316 1.5814856 7.20501648 1.0635376 5.94955444 C0 3 0 3 0 0 Z " fill="#154F4C" transform="translate(89,63)"/>
<path d="M0 0 C33.27458861 -0.06627795 66.54911257 -0.12161568 99.82374744 -0.15319599 C103.76229984 -0.1569476 107.7008521 -0.16083061 111.6394043 -0.16479492 C112.81542497 -0.16597532 112.81542497 -0.16597532 114.01520363 -0.16717956 C126.66896402 -0.18019295 139.32268305 -0.20382408 151.97641899 -0.23145839 C164.98409056 -0.25962632 177.99174064 -0.27620018 190.99944144 -0.28226548 C199.0099955 -0.28635846 207.02043258 -0.29923111 215.03095058 -0.3237494 C221.1989078 -0.34165324 227.36677797 -0.34333719 233.53475761 -0.33932304 C236.0463711 -0.34014122 238.55798945 -0.34601169 241.06957626 -0.35761642 C259.45450405 -0.43832069 277.85338361 0.2313529 295.5625 5.6875 C296.41634277 5.94313721 297.27018555 6.19877441 298.14990234 6.4621582 C319.66684452 13.09111514 339.52319919 22.66855035 357 37 C357.54962402 37.44956055 358.09924805 37.89912109 358.66552734 38.36230469 C372.03276205 49.36448115 383.6700107 61.09855704 394 75 C394.74765625 75.9796875 395.4953125 76.959375 396.265625 77.96875 C413.40083972 101.39098595 423.02296059 128.43169901 427 157 C427.1016748 157.67353516 427.20334961 158.34707031 427.30810547 159.04101562 C428.35259455 166.85327261 428.24384619 174.75729841 428.25 182.625 C428.25067474 183.40045166 428.25134949 184.17590332 428.25204468 184.97485352 C428.18578311 233.08446882 412.29245059 275.49645489 378.4375 309.9375 C355.08926188 333.20176028 325.87396024 348.35712339 295.8125 361.1875 C294.68303955 361.66977051 293.5535791 362.15204102 292.38989258 362.64892578 C291.33954834 363.08833496 290.2892041 363.52774414 289.20703125 363.98046875 C288.2735083 364.37129639 287.33998535 364.76212402 286.37817383 365.16479492 C284 366 284 366 281 366 C304.3508885 407.16675158 342.17208824 438.13781408 388 451 C400.85707436 454.42066166 413.80240813 456.11462973 427 458 C427 485.06 427 512.12 427 540 C419.25117001 540 412.32326431 539.78734558 404.75 538.8125 C403.71713867 538.68012939 402.68427734 538.54775879 401.62011719 538.41137695 C360.76056232 532.88335605 320.51546776 518.28952901 287 494 C285.97261719 493.26394531 284.94523437 492.52789063 283.88671875 491.76953125 C268.50565195 480.49806207 253.16139986 467.74026813 241 453 C240.195625 452.08347656 239.39125 451.16695312 238.5625 450.22265625 C227.18742994 437.21963606 217.48861102 423.03311838 209 408 C208.63310059 407.35659668 208.26620117 406.71319336 207.88818359 406.05029297 C202.95212997 397.32287089 198.75298889 388.39800067 194.9375 379.125 C194.54304688 378.167146 194.14859375 377.20929199 193.7421875 376.22241211 C191 369.39212922 191 369.39212922 191 366 C155.03 366 119.06 366 82 366 C82 423.42 82 480.84 82 540 C54.94 540 27.88 540 0 540 C0 455.85 0 371.7 0 285 C124.6875 284.625 124.6875 284.625 164.0378418 284.52197266 C175.69205942 284.48205772 175.69205942 284.48205772 187.3462677 284.43954468 C192.53152469 284.42069912 197.71677309 284.40717043 202.90205383 284.39730835 C209.52408174 284.38469315 216.14602391 284.36190611 222.76800311 284.33276629 C225.19334347 284.32367987 227.61869888 284.31785843 230.04405534 284.31574559 C247.12297561 284.35025839 247.12297561 284.35025839 264 282 C264.69182216 281.86581476 265.38364431 281.73162952 266.09643078 281.59337807 C281.80082138 278.35859876 295.77728274 271.27416813 308 261 C309.27230469 259.97132813 309.27230469 259.97132813 310.5703125 258.921875 C329.05694446 243.27488243 340.83890107 220.94736571 344 197 C346.0992215 167.38383092 340.31201677 141.67063142 321.1484375 118.46875 C306.71280759 101.8808989 285.35942302 86.7639253 262.72816849 84.8031702 C259.85181586 84.68353938 256.97580402 84.56956683 254.09863281 84.47094727 C252.8991161 84.42948609 251.69959938 84.38802492 250.46373367 84.34530735 C229.08725594 83.66310543 207.68875202 83.65679065 186.30377483 83.49474788 C180.40481859 83.4493054 174.50589318 83.4002503 168.60696557 83.35125155 C156.94812394 83.25452285 145.28925787 83.16118139 133.63037109 83.07006836 C122.32664497 82.98172339 111.02293396 82.89172203 99.71923828 82.79956055 C99.01867659 82.79384928 98.31811489 82.78813801 97.59632406 82.78225368 C94.08067672 82.75358267 90.56502964 82.72487982 87.04938269 82.69616115 C58.03296027 82.45917234 29.01649173 82.22836377 0 82 C0 54.94 0 27.88 0 0 Z " fill="#154F4C" transform="translate(1858,63)"/>
<path d="M0 0 C3.81081292 0.67494184 6.960478 1.81155665 10.46484375 3.47509766 C44.38291215 19.56777975 83.50947268 28.15129712 121 29 C122.22203125 29.0306958 122.22203125 29.0306958 123.46875 29.06201172 C162.86070667 29.92800495 203.26976225 24.61667002 240.2746582 10.63891602 C244.26411063 9.70364799 247.42510772 10.12935416 251.01953125 12.11645508 C251.90705078 12.81097778 251.90705078 12.81097778 252.8125 13.51953125 C253.48780762 14.04047363 254.16311523 14.56141602 254.85888672 15.09814453 C255.91873779 15.94675049 255.91873779 15.94675049 257 16.8125 C257.74910645 17.40144043 258.49821289 17.99038086 259.27001953 18.59716797 C261.52603128 20.38291787 263.76524536 22.18774891 266 24 C266.6094043 24.48936035 267.21880859 24.9787207 267.84667969 25.48291016 C282.5425796 37.35978524 296.61759538 50.89437891 308 66 C308.93527398 67.19603557 309.87154775 68.39128972 310.80859375 69.5859375 C336.31477652 102.44122012 353.61870099 141.28594818 361.875 182 C362.06602295 182.94061279 362.2570459 183.88122559 362.45385742 184.8503418 C365.51815604 201.00009884 366.30430008 216.86941896 366.20581055 233.27368164 C366.18722355 236.48526735 366.18530385 239.69656852 366.18554688 242.90820312 C366.18064175 244.95833584 366.17481788 247.00846661 366.16796875 249.05859375 C366.16685593 250.01471054 366.1657431 250.97082733 366.16459656 251.95591736 C366.15821671 252.83856766 366.15183685 253.72121796 366.14526367 254.63061523 C366.14145187 255.40461166 366.13764008 256.17860809 366.13371277 256.97605896 C366 259 366 259 365 262 C363.0324707 262.99560547 363.0324707 262.99560547 360.42578125 263.8671875 C359.45938721 264.19307861 358.49299316 264.51896973 357.49731445 264.85473633 C356.44632568 265.19142334 355.39533691 265.52811035 354.3125 265.875 C353.23121826 266.22651123 352.14993652 266.57802246 351.03588867 266.94018555 C282.52714515 288.7041371 207.52017087 281.12490994 143.76660156 248.45751953 C123.4600477 237.75948507 105.04943914 224.3218298 88 209 C87.42491699 208.48663086 86.84983398 207.97326172 86.25732422 207.44433594 C79.75661784 201.62307683 73.5919797 195.71273513 68 189 C67.11439219 187.99656307 66.22612661 186.99546866 65.3359375 185.99609375 C29.4141837 145.3912076 7.59117039 93.59377889 1 40 C0.85316772 38.88431641 0.85316772 38.88431641 0.70336914 37.74609375 C-0.21448426 29.97057574 -0.1117543 22.19063522 -0.0625 14.375 C-0.05747197 12.97526203 -0.05291138 11.5755223 -0.04882812 10.17578125 C-0.03713167 6.78380831 -0.02074086 3.39192767 0 0 Z " fill="#FCC330" transform="translate(785,324)"/>
<path d="M0 0 C1.58723877 0.29801514 1.58723877 0.29801514 3.20654297 0.60205078 C47.99863717 9.23207615 89.6059084 28.16361359 125 57 C125.54543457 57.4424707 126.09086914 57.88494141 126.65283203 58.34082031 C140.3677429 69.55456766 153.19513762 81.93682557 164 96 C164.9897733 97.23917035 165.980749 98.47738088 166.97265625 99.71484375 C178.81351642 114.64742443 189.04797475 130.7377531 197.08496094 148.03417969 C197.70176852 149.35929565 198.32763932 150.6802258 198.96191406 151.99707031 C228.98764515 214.34444242 232.61577488 289.69332993 210 355 C197.54394812 389.84479159 179.26501953 421.12215194 154.3203125 448.45703125 C152.69832348 450.23466568 151.08999545 452.02481821 149.4921875 453.82421875 C145.29726367 458.52586886 141.11510293 463.03854477 136.28125 467.0859375 C134.52502358 468.55948364 132.8018738 470.0725162 131.09375 471.6015625 C99.20291705 500 99.20291705 500 90 500 C89.94054199 498.68286011 89.94054199 498.68286011 89.87988281 497.33911133 C88.18709644 461.35804842 84.00333334 426.18371721 72 392 C71.71962891 391.19353027 71.43925781 390.38706055 71.15039062 389.55615234 C59.1666575 355.5162658 41.41894929 323.50042437 18 296 C17.13571486 294.95134742 16.27248595 293.90182367 15.41015625 292.8515625 C3.90454486 278.97554946 -8.79613509 266.10784777 -23 255 C-25.69460288 252.6977313 -28.35400674 250.35789084 -31 248 C-27.89091829 244.71819153 -24.48733019 242.00726111 -20.875 239.3125 C-15.77858313 235.45379462 -10.95852028 231.40490071 -6.25390625 227.0703125 C-4.24696517 225.22684843 -2.20087758 223.45220907 -0.125 221.6875 C8.19651978 214.4293793 15.86818463 206.41909324 23 198 C23.86882812 197.00871094 24.73765625 196.01742187 25.6328125 194.99609375 C32.90372583 186.67903201 39.71041239 178.07155018 46.32910156 169.22851562 C47.98877675 167.01496871 49.66191746 164.81208439 51.3359375 162.609375 C70.53083285 137.15701557 86.54651553 109.82551969 102 82 C99.19383529 79.79688274 96.36596773 78.02490594 93.2109375 76.36328125 C92.27926758 75.87255127 91.34759766 75.38182129 90.38769531 74.8762207 C18.50001249 37.56336751 -58.71460436 31.64481972 -137 50 C-138.53169676 46.93660648 -138.53191473 43.61840677 -138.875 40.25 C-139.62835875 33.28254603 -140.81399924 26.58580522 -142.4140625 19.7578125 C-143 17 -143 17 -143 14 C-126.24980721 7.96725757 -109.50198596 3.28611979 -92 0 C-91.06945801 -0.17934082 -90.13891602 -0.35868164 -89.18017578 -0.54345703 C-60.8856081 -5.74189339 -28.2222263 -5.4391927 0 0 Z " fill="#1376BC" transform="translate(1101,66)"/>
<path d="M0 0 C129.69 0 259.38 0 393 0 C393 27.06 393 54.12 393 82 C341.52 82 290.04 82 237 82 C237 233.14 237 384.28 237 540 C209.94 540 182.88 540 155 540 C155 388.86 155 237.72 155 82 C103.85 82 52.7 82 0 82 C0 54.94 0 27.88 0 0 Z " fill="#154F4C" transform="translate(1369,63)"/>
<path d="M0 0 C0.98326263 -0.00067474 1.96652527 -0.00134949 2.97958374 -0.00204468 C17.80553521 0.01411563 32.2084288 0.46545093 46.8125 3.25 C48.23731689 3.51538574 48.23731689 3.51538574 49.69091797 3.78613281 C67.50010665 7.18646925 85.28879534 11.65984298 101.8125 19.25 C98.50706627 26.41177308 94.28801714 32.7732221 89.8125 39.25 C89.29300781 40.00458496 88.77351563 40.75916992 88.23828125 41.53662109 C81.02798181 51.99114279 73.70136083 62.29533906 65.8125 72.25 C65.15121094 73.09304687 64.48992187 73.93609375 63.80859375 74.8046875 C54.04157091 87.1565184 43.69071371 98.87077283 32.8125 110.25 C31.91273438 111.19230469 31.01296875 112.13460937 30.0859375 113.10546875 C24.35279611 118.97511351 18.25335544 124.17565038 11.8125 129.25 C10.83796875 130.05308594 9.8634375 130.85617187 8.859375 131.68359375 C-36.08113726 167.87312686 -105.15447737 175.47362724 -160.85546875 169.6875 C-185.25463776 166.90884379 -212.47685359 162.23091911 -234.1875 150.25 C-231.46852218 148.77274207 -229.10112822 147.9064023 -226.0546875 147.390625 C-225.25828857 147.24810303 -224.46188965 147.10558105 -223.64135742 146.95874023 C-222.79033447 146.80735596 -221.93931152 146.65597168 -221.0625 146.5 C-191.99898109 140.91419493 -165.47793816 127.67266249 -143.1875 108.25 C-142.22328125 107.41984375 -141.2590625 106.5896875 -140.265625 105.734375 C-116.98559917 85.30805417 -97.76855268 56.10488406 -91.1171875 25.60546875 C-90.95589355 24.87094482 -90.79459961 24.1364209 -90.62841797 23.37963867 C-90.2155228 21.38535041 -89.85577308 19.38026646 -89.5 17.375 C-88.1875 14.25 -88.1875 14.25 -85.2421875 12.49609375 C-83.9027783 12.04306843 -82.54901387 11.63148252 -81.1875 11.25 C-80.38989258 11.01297363 -79.59228516 10.77594727 -78.77050781 10.53173828 C-75.96281347 9.73703916 -73.14464108 9.01505199 -70.3125 8.3125 C-69.27327393 8.05380127 -68.23404785 7.79510254 -67.16333008 7.52856445 C-55.62768411 4.74677845 -43.9531512 2.77194558 -32.1875 1.25 C-30.98540894 1.09313721 -30.98540894 1.09313721 -29.7590332 0.93310547 C-19.88843039 -0.15422668 -9.91750089 0.00610664 0 0 Z " fill="#6CBE46" transform="translate(1048.1875,143.75)"/>
<path d="M0 0 C7.8486624 32.44113794 0.94292653 66.6871662 -16.0625 95.0625 C-35.29505502 124.92160293 -64.30709161 146.89867154 -99.26367188 154.49169922 C-108.16384645 156.28692594 -116.89323801 157.54159157 -126 157 C-117.90677385 120.24326457 -95.66283729 84.88624763 -71 57 C-70.27554688 56.1646875 -69.55109375 55.329375 -68.8046875 54.46875 C-59.06441821 43.39862844 -48.66953425 33.02862126 -37 24 C-35.99582031 23.20207031 -34.99164062 22.40414062 -33.95703125 21.58203125 C-6.61615126 0 -6.61615126 0 0 0 Z " fill="#6CBE46" transform="translate(922,98)"/>
<path d="M0 0 C44.28571429 0 44.28571429 0 53.9375 5.75 C60.18544404 12.56593895 60.76585768 19.32393167 60.3828125 28.20703125 C59.71924978 34.781719 57.79998304 38.15910826 53.25 42.8125 C49.54459187 45.3065247 46.23206822 46.61363282 42 48 C43.38377712 52.75990349 45.46116458 56.7550152 48.0625 60.9375 C48.86459743 62.25259557 49.6666803 63.56770002 50.46875 64.8828125 C51.312348 66.25530177 52.15610075 67.62769594 53 69 C54.69437007 71.76670788 56.380213 74.53843342 58.0625 77.3125 C58.65333374 78.27240845 58.65333374 78.27240845 59.25610352 79.25170898 C62 83.77413645 62 83.77413645 62 86 C57.71 86 53.42 86 49 86 C48.48953125 85.07703125 47.9790625 84.1540625 47.453125 83.203125 C46.32562472 81.16838892 45.18762462 79.14185034 44.02539062 77.12670898 C41.63848971 72.98529146 39.40878218 68.82394757 37.328125 64.51953125 C36.38637637 62.70002378 35.44368177 60.8810056 34.5 59.0625 C34.10586914 58.18045898 33.71173828 57.29841797 33.30566406 56.38964844 C31.86249813 53.42233401 31.86249813 53.42233401 28 50 C22.39 49.67 16.78 49.34 11 49 C11 61.21 11 73.42 11 86 C7.37 86 3.74 86 0 86 C0 57.62 0 29.24 0 0 Z M11 10 C11 19.24 11 28.48 11 38 C15.29 38.0825 19.58 38.165 24 38.25 C26.00513672 38.30462402 26.00513672 38.30462402 28.05078125 38.36035156 C36.02496459 38.43436344 41.96606959 37.90380362 47.9375 32.125 C49.98173971 28.03652059 50.16208976 24.92391165 49.375 20.4375 C47.78057101 16.45142752 46.41550821 14.59875624 43 12 C36.15329121 9.72563352 29.66207159 9.76449835 22.5 9.875 C16.8075 9.936875 16.8075 9.936875 11 10 Z " fill="#154F4C" transform="translate(89,706)"/>
<path d="M0 0 C1.7890625 1.60546875 1.7890625 1.60546875 3 3 C1.62845496 5.95409701 0.01136276 8.44008376 -2 11 C-4.26320316 10.49706596 -6.11434218 9.94119545 -8.1875 8.875 C-12.28364618 7.60064341 -15.88278443 7.82152163 -20 9 C-22.70552388 11.19823815 -24.44778333 12.89556667 -26 16 C-26.43032996 20.21226823 -26.42629046 23.91059104 -24.875 27.875 C-21.3696712 31.84770597 -17.42506303 33.13833006 -12.2578125 33.51171875 C-10.54740206 33.58408227 -8.83634627 33.64239675 -7.125 33.6875 C-6.24585938 33.72166016 -5.36671875 33.75582031 -4.4609375 33.79101562 C-2.30772295 33.8729314 -0.15388449 33.93815579 2 34 C2 29.38 2 24.76 2 20 C5.3 20 8.6 20 12 20 C12 24.62 12 29.24 12 34 C15.3 34 18.6 34 22 34 C22 37.3 22 40.6 22 44 C18.7 44 15.4 44 12 44 C12 54.23 12 64.46 12 75 C15.3 75 18.6 75 22 75 C22 78.3 22 81.6 22 85 C16.32579364 85.07460523 10.65187792 85.12881608 4.97729492 85.16479492 C3.05016094 85.17980652 1.12306068 85.20022216 -0.80395508 85.22631836 C-3.58683639 85.26303943 -6.36926288 85.27980292 -9.15234375 85.29296875 C-10.00271713 85.30845261 -10.85309052 85.32393646 -11.72923279 85.33988953 C-20.63215403 85.34234918 -27.8026171 83.16035118 -34.26953125 76.92578125 C-40.20368268 70.32186103 -40.44263042 64.35151109 -40.43359375 55.5859375 C-39.65043672 49.10901719 -36.76438921 45.28795029 -32 41 C-31.01 40.34 -30.02 39.68 -29 39 C-29.72316406 38.32904297 -29.72316406 38.32904297 -30.4609375 37.64453125 C-31.09257813 37.03996094 -31.72421875 36.43539062 -32.375 35.8125 C-33.00148438 35.22082031 -33.62796875 34.62914062 -34.2734375 34.01953125 C-38.75108088 28.78210675 -38.42289863 23.04944319 -38.3125 16.453125 C-37.74345331 10.16515907 -35.60707964 6.68182753 -31.3125 2.1875 C-21.48365964 -4.30324363 -10.7527884 -4.71647578 0 0 Z M-26.25 49.5625 C-29.630205 54.27064267 -29.58780534 58.31788175 -29 64 C-27.95928575 67.51986794 -26.36787158 70.02451726 -23.35742188 72.17138672 C-17.80954475 75.13321874 -13.20947528 75.4960276 -7 75.25 C-4.03 75.1675 -1.06 75.085 2 75 C2 64.77 2 54.54 2 44 C-1.361875 43.938125 -4.72375 43.87625 -8.1875 43.8125 C-9.23832764 43.78518799 -10.28915527 43.75787598 -11.37182617 43.72973633 C-18.0584123 43.67010909 -21.69406506 44.37379632 -26.25 49.5625 Z " fill="#154F4C" transform="translate(1610,707)"/>
<path d="M0 0 C1.8203125 1.63671875 1.8203125 1.63671875 3 3 C3.33 1.02 3.66 -0.96 4 -3 C7.3 -3 10.6 -3 14 -3 C14.09317588 5.15452721 14.16400367 13.30882751 14.20724869 21.46375751 C14.22801684 25.25150328 14.25613353 29.03888163 14.30175781 32.82641602 C14.34560532 36.48988073 14.36921783 40.15299477 14.37950897 43.81670189 C14.38683135 45.20600076 14.40112787 46.59528307 14.42292023 47.98443031 C14.57360471 57.9990705 13.42940457 66.15731073 8.3125 74.875 C0.28090234 82.25538704 -8.25744793 83.4538522 -18.74609375 83.28125 C-26.73234386 82.93212431 -32.32541204 79.39777879 -38 74 C-40 71 -40 71 -40 68 C-37.04337589 66.5116314 -34.30493182 65.37785855 -31 65 C-28.96579464 66.22591184 -27.59463715 67.7185657 -25.9375 69.4140625 C-22.19467323 72.47774732 -17.72075547 72.90717616 -13 73 C-7.01420237 72.09474048 -2.73718438 69.8696645 1 65 C3.69958412 59.60083176 3.18872901 53.89253905 3 48 C1.700625 48.928125 1.700625 48.928125 0.375 49.875 C-6.80615024 54.39646496 -13.6957029 54.78850898 -22 54 C-29.37276805 52.12309106 -36.20855863 47.31624604 -40.3515625 40.91015625 C-44.37001882 33.1478863 -45.43842435 24.81123439 -43.31640625 16.23828125 C-39.93422601 7.07411653 -35.16020621 2.08159233 -26.3671875 -2.0546875 C-17.23140323 -5.70297099 -8.72752519 -4.27791808 0 0 Z M-29.3125 12.25 C-32.67334348 17.72693011 -34.76539702 22.57071829 -33.5703125 29.0546875 C-31.72341216 35.35438865 -28.24556224 39.20533796 -23 43 C-17.72845714 44.75718095 -11.99410355 44.98629293 -6.67578125 43.234375 C-0.81904787 40.06616113 1.93887281 35.20237814 4 29 C5.07840027 23.76069249 3.8178189 19.40753469 1.26953125 14.82421875 C-1.75115096 10.48373077 -5.84925742 7.34900401 -11 6 C-18.47167108 5.26508153 -23.8760025 6.96043486 -29.3125 12.25 Z " fill="#154F4C" transform="translate(770,739)"/>
<path d="M0 0 C2.875 2.6875 2.875 2.6875 5 5 C5.66 5 6.32 5 7 5 C7.680625 4.236875 8.36125 3.47375 9.0625 2.6875 C13.626054 -1.48766642 18.4244853 -2.724052 24.5 -3.375 C30.58487392 -2.72304922 35.29091609 -1.56046792 39.875 2.625 C44.26389883 9.59560402 45.44911192 16.27593479 45.29296875 24.41015625 C45.28872391 25.26306747 45.28447906 26.1159787 45.28010559 26.99473572 C45.2634863 29.6843295 45.22586775 32.37313769 45.1875 35.0625 C45.17243143 36.9003797 45.15874686 38.73827131 45.14648438 40.57617188 C45.11363805 45.05107796 45.06197498 49.5254064 45 54 C41.7 54 38.4 54 35 54 C34.98541748 52.98164062 34.97083496 51.96328125 34.95581055 50.9140625 C34.89745571 47.10431328 34.82022822 43.29513234 34.73754883 39.48583984 C34.70447322 37.84303063 34.67638823 36.20011253 34.65356445 34.55712891 C34.61969595 32.183451 34.56736925 29.81075559 34.51171875 27.4375 C34.50532883 26.71320801 34.4989389 25.98891602 34.49235535 25.24267578 C34.34231652 19.93578234 33.17254268 15.85879329 31 11 C28.12967542 8.44860037 26.37166669 8.04730303 22.5625 7.5625 C18.2573409 8.09120375 16.27287321 9.17342768 13 12 C9.93486692 16.89636415 9.53556454 20.86317696 9.48828125 26.4609375 C9.47033005 27.25150543 9.45237885 28.04207336 9.43388367 28.8565979 C9.38003294 31.36267891 9.34596719 33.86857227 9.3125 36.375 C9.27930452 38.08205722 9.24481281 39.78908976 9.20898438 41.49609375 C9.12432148 45.66392653 9.05739093 49.8317061 9 54 C5.37 54 1.74 54 -2 54 C-2.01458252 52.88028809 -2.02916504 51.76057617 -2.04418945 50.60693359 C-2.10234886 46.43571726 -2.17958023 42.26503081 -2.26245117 38.09423828 C-2.29561773 36.29224271 -2.32367525 34.49014533 -2.34643555 32.68798828 C-2.38013432 30.09103177 -2.43245649 27.49500134 -2.48828125 24.8984375 C-2.49467117 24.0982016 -2.5010611 23.2979657 -2.50764465 22.47348022 C-2.63433916 17.60687695 -3.35772052 14.23762575 -6 10 C-9.3539367 7.36476402 -12.87372125 7.64428632 -17 8 C-20.99880456 9.38420158 -22.57737711 10.31505946 -24.8125 13.9375 C-26.73804831 18.90338776 -27.1898391 23.2991224 -27.31640625 28.609375 C-27.33718735 29.33618469 -27.35796844 30.06299438 -27.37937927 30.81182861 C-27.44455512 33.12445991 -27.5036104 35.43720093 -27.5625 37.75 C-27.60571566 39.32162575 -27.64933092 40.89324056 -27.69335938 42.46484375 C-27.80020356 46.30978453 -27.90156024 50.15483524 -28 54 C-31.3 54 -34.6 54 -38 54 C-38 35.52 -38 17.04 -38 -2 C-34.7 -2 -31.4 -2 -28 -2 C-27.67 -0.35 -27.34 1.3 -27 3 C-26.29875 2.38125 -25.5975 1.7625 -24.875 1.125 C-17.26731257 -4.49807332 -8.14706426 -4.46605664 0 0 Z " fill="#154F4C" transform="translate(2187,738)"/>
<path d="M0 0 C1.98140428 1.8854525 3.40292631 3.75411512 5 6 C5.4125 5.60167969 5.825 5.20335937 6.25 4.79296875 C11.56462715 -0.08272714 16.68084777 -3.03124334 24 -3.375 C29.19480332 -3.12035278 33.83132733 -1.94316909 37.765625 1.58203125 C44.4377428 9.01528871 45.16410718 16.72124072 45.09765625 26.4609375 C45.0962413 27.25150543 45.09482635 28.04207336 45.09336853 28.8565979 C45.08780504 31.36277166 45.07525944 33.86885358 45.0625 36.375 C45.05748028 38.08202995 45.0529182 39.78906132 45.04882812 41.49609375 C45.03784759 45.66409748 45.02060839 49.83203321 45 54 C41.37 54 37.74 54 34 54 C33.98541748 52.88028809 33.97083496 51.76057617 33.95581055 50.60693359 C33.89765114 46.43571726 33.82041977 42.26503081 33.73754883 38.09423828 C33.70438227 36.29224271 33.67632475 34.49014533 33.65356445 32.68798828 C33.61986568 30.09103177 33.56754351 27.49500134 33.51171875 24.8984375 C33.50532883 24.0982016 33.4989389 23.2979657 33.49235535 22.47348022 C33.36566084 17.60687695 32.64227948 14.23762575 30 10 C26.6460633 7.36476402 23.12627875 7.64428632 19 8 C15.00119544 9.38420158 13.42262289 10.31505946 11.1875 13.9375 C9.26195169 18.90338776 8.8101609 23.2991224 8.68359375 28.609375 C8.66281265 29.33618469 8.64203156 30.06299438 8.62062073 30.81182861 C8.55544488 33.12445991 8.4963896 35.43720093 8.4375 37.75 C8.39428434 39.32162575 8.35066908 40.89324056 8.30664062 42.46484375 C8.19979644 46.30978453 8.09843976 50.15483524 8 54 C4.7 54 1.4 54 -2 54 C-2.01458252 52.94611084 -2.02916504 51.89222168 -2.04418945 50.80639648 C-2.10244945 46.87181787 -2.17967904 42.93779507 -2.26245117 39.00366211 C-2.29557083 37.30551214 -2.32364261 35.60725552 -2.34643555 33.90893555 C-2.38022169 31.45836213 -2.43254639 29.00875469 -2.48828125 26.55859375 C-2.49467117 25.80726669 -2.5010611 25.05593964 -2.50764465 24.28184509 C-2.64791403 19.17808798 -3.63131644 15.54432067 -6 11 C-8.87878968 8.52104222 -10.66317695 8.04286839 -14.4375 7.5625 C-18.774191 8.09507609 -20.73460574 9.10567327 -24 12 C-26.74563122 17.24232848 -27.46035723 21.47657578 -27.51171875 27.33984375 C-27.52966995 28.10680069 -27.54762115 28.87375763 -27.56611633 29.66395569 C-27.6198448 32.08841626 -27.65399275 34.51268432 -27.6875 36.9375 C-27.72070634 38.59182346 -27.75519902 40.24612162 -27.79101562 41.90039062 C-27.87554886 45.93345393 -27.94253679 49.96646388 -28 54 C-31.3 54 -34.6 54 -38 54 C-38 35.52 -38 17.04 -38 -2 C-34.7 -2 -31.4 -2 -28 -2 C-27.67 -0.68 -27.34 0.64 -27 2 C-25.9275 1.360625 -24.855 0.72125 -23.75 0.0625 C-16.19765332 -4.20359603 -7.61571497 -4.43302812 0 0 Z " fill="#154F4C" transform="translate(1128,738)"/>
<path d="M0 0 C1.90911936 1.55318185 3.38049953 3.12745258 5 5 C7.47277795 3.90098758 9.24873581 2.78487714 11.3125 1 C16.54162169 -2.89143939 22.60318832 -3.75832184 29 -3 C34.68910041 -1.82146696 38.07937685 0.56159963 41.7734375 4.98828125 C45.22661706 10.65193563 45.27178286 16.14035378 45.1953125 22.5546875 C45.1924826 23.45623566 45.18965271 24.35778381 45.18673706 25.28665161 C45.17559439 28.14957276 45.1505008 31.01217434 45.125 33.875 C45.11496255 35.82291213 45.10583804 37.77082919 45.09765625 39.71875 C45.07567443 44.4792887 45.0411855 49.23959027 45 54 C41.7 54 38.4 54 35 54 C34.98541748 52.91058105 34.97083496 51.82116211 34.95581055 50.69873047 C34.89763928 46.63932215 34.82040818 42.58045763 34.73754883 38.52148438 C34.7043878 36.76799373 34.67632858 35.01439862 34.65356445 33.26074219 C34.6198553 30.73327302 34.56753308 28.20675362 34.51171875 25.6796875 C34.50532883 24.90132538 34.4989389 24.12296326 34.49235535 23.3210144 C34.36379742 18.51286289 33.61295516 15.18215588 31 11 C28.11067212 8.59222677 26.30521864 8.03884601 22.5625 7.5625 C18.225809 8.09507609 16.26539426 9.10567327 13 12 C10.25436878 17.24232848 9.53964277 21.47657578 9.48828125 27.33984375 C9.47033005 28.10680069 9.45237885 28.87375763 9.43388367 29.66395569 C9.3801552 32.08841626 9.34600725 34.51268432 9.3125 36.9375 C9.27929366 38.59182346 9.24480098 40.24612162 9.20898438 41.90039062 C9.12445114 45.93345393 9.05746321 49.96646388 9 54 C5.7 54 2.4 54 -1 54 C-1.01458252 53.01717041 -1.02916504 52.03434082 -1.04418945 51.02172852 C-1.1026459 47.33680837 -1.17987058 43.65246944 -1.26245117 39.96801758 C-1.29547979 38.38054922 -1.32357869 36.79296965 -1.34643555 35.20532227 C-1.46199424 22.79733531 -1.46199424 22.79733531 -5 11 C-7.90104935 8.34070476 -9.58945715 8.04398673 -13.5 7.625 C-18.05316691 8.11283931 -20.42989766 9.4880496 -23.6875 12.625 C-28.13483928 20.67256632 -27.42220743 30.62378392 -27.625 39.5625 C-27.6632657 40.96681881 -27.70232212 42.37111631 -27.7421875 43.77539062 C-27.83588029 47.18346604 -27.92160074 50.59154423 -28 54 C-31.3 54 -34.6 54 -38 54 C-38 35.52 -38 17.04 -38 -2 C-34.7 -2 -31.4 -2 -28 -2 C-27.67 -0.35 -27.34 1.3 -27 3 C-26.29875 2.38125 -25.5975 1.7625 -24.875 1.125 C-17.25625247 -4.50624817 -8.15840977 -4.45320448 0 0 Z " fill="#154F4C" transform="translate(1027,738)"/>
<path d="M0 0 C16.83 0 33.66 0 51 0 C51 3.3 51 6.6 51 10 C37.8 10 24.6 10 11 10 C11 18.58 11 27.16 11 36 C21.89 36 32.78 36 44 36 C44 39.3 44 42.6 44 46 C33.11 46 22.22 46 11 46 C11 55.9 11 65.8 11 76 C24.2 76 37.4 76 51 76 C51 79.3 51 82.6 51 86 C34.17 86 17.34 86 0 86 C0 57.62 0 29.24 0 0 Z " fill="#154F4C" transform="translate(1682,706)"/>
<path d="M0 0 C0.804375 0.721875 1.60875 1.44375 2.4375 2.1875 C1.06595496 5.14159701 -0.55113724 7.62758376 -2.5625 10.1875 C-5.90639211 9.57544832 -7.87587577 8.35799799 -10.5625 6.3125 C-18.09704812 1.18653693 -26.73140387 -0.73500439 -35.765625 0.4921875 C-44.94072405 2.77314788 -52.28723576 7.31880976 -57.5625 15.1875 C-62.87207592 24.14537348 -64.33865177 33.75811088 -61.87890625 44.046875 C-58.31038897 53.58266392 -52.61760116 60.44866373 -43.5625 65.1875 C-35.3518964 68.49895891 -25.42158738 68.67714277 -17.125 65.5 C-12.71465357 63.43888333 -8.58231582 60.92726274 -4.5625 58.1875 C-3.55656757 59.3071986 -2.5579151 60.4334412 -1.5625 61.5625 C-1.005625 62.18898438 -0.44875 62.81546875 0.125 63.4609375 C1.4375 65.1875 1.4375 65.1875 1.4375 67.1875 C-8.36414226 75.81974893 -19.64117056 79.32931947 -32.5625 79.1875 C-42.35829581 78.34526888 -50.63368572 74.95391039 -58.5625 69.1875 C-59.366875 68.65125 -60.17125 68.115 -61 67.5625 C-70.01321002 59.20879315 -74.54789647 48.7128084 -75.03344727 36.53540039 C-75.20037957 23.04474549 -71.83066701 12.31095088 -62.5625 2.1875 C-44.63335303 -13.97589765 -18.86572956 -15.52354903 0 0 Z " fill="#154F4C" transform="translate(906.5625,714.8125)"/>
<path d="M0 0 C1.82421875 1.63671875 1.82421875 1.63671875 3 3 C3.33 1.02 3.66 -0.96 4 -3 C7.3 -3 10.6 -3 14 -3 C14 15.48 14 33.96 14 53 C10.7 53 7.4 53 4 53 C3.67 51.35 3.34 49.7 3 48 C1.700625 48.928125 1.700625 48.928125 0.375 49.875 C-6.57903602 54.25346712 -12.92341455 54.6907606 -21 54 C-28.79160784 52.22091621 -35.64440361 47.75918637 -40 41 C-44.33051508 33.10068911 -45.58178388 25.00570351 -43.26953125 16.2265625 C-40.11459702 7.65029231 -35.2447371 2.05353494 -27 -2 C-17.5109036 -5.55610797 -9.0109866 -4.35264135 0 0 Z M-29.3125 12.1875 C-32.63477068 17.72461781 -34.54512291 22.60395708 -33.5625 29.125 C-31.95582295 35.46299598 -28.51933836 39.18373281 -23.3125 42.9375 C-17.77457973 44.71381405 -12.1841368 45.19206452 -6.65234375 43.12109375 C-0.72734055 39.76543773 1.8614767 35.4155699 4 29 C4.53828279 22.64826308 3.67417245 18.27950317 0 13 C-4.28114461 8.36698049 -8.58392715 6.23764651 -14.8125 5.625 C-20.63788522 5.79018106 -25.1358579 8.23662234 -29.3125 12.1875 Z " fill="#154F4C" transform="translate(561,739)"/>
<path d="M0 0 C7.40896376 7.63946486 7.7578125 15.33506274 7.7578125 25.8125 C-7.0921875 26.1425 -21.9421875 26.4725 -37.2421875 26.8125 C-33.06757695 35.25193967 -33.06757695 35.25193967 -25.9921875 40.0625 C-19.33249487 41.87877981 -14.02401366 41.23236961 -7.96875 37.98046875 C-6.15925524 36.75639877 -4.73066403 35.40599174 -3.2421875 33.8125 C0.12373116 35.25503657 2.26828329 37.14514727 4.7578125 39.8125 C0.38244198 45.82863446 -4.24018847 48.47850032 -11.2421875 50.8125 C-21.78978056 51.59238264 -29.81435853 50.61076257 -38.9921875 45.1875 C-46.72190139 37.02835756 -48.628905 29.28698858 -48.515625 18.35546875 C-47.86423979 9.91537752 -43.47533386 3.38952569 -37.2421875 -2.1875 C-25.54336569 -9.88292271 -10.83148876 -8.77043624 0 0 Z M-34.5546875 9.1875 C-36.64772483 12.20576632 -36.64772483 12.20576632 -38.2421875 17.8125 C-26.3621875 17.8125 -14.4821875 17.8125 -2.2421875 17.8125 C-5.1560537 8.50373577 -5.1560537 8.50373577 -12.0703125 3.73828125 C-20.4306177 0.17462598 -28.5332812 3.00335299 -34.5546875 9.1875 Z " fill="#154F4C" transform="translate(1466.2421875,742.1875)"/>
<path d="M0 0 C6.64039809 5.47369432 9.44889719 11.11590125 11.50390625 19.3359375 C11.50390625 22.3059375 11.50390625 25.2759375 11.50390625 28.3359375 C-3.67609375 28.3359375 -18.85609375 28.3359375 -34.49609375 28.3359375 C-30.48054542 37.61444959 -30.48054542 37.61444959 -23.49609375 42.3359375 C-16.63226959 44.62387889 -10.8462179 43.568363 -4.44921875 40.42578125 C-2.3062437 39.23000117 -0.35009235 37.94811019 1.50390625 36.3359375 C3.48390625 37.9859375 5.46390625 39.6359375 7.50390625 41.3359375 C5.51412846 46.70833754 1.18052772 49.48845934 -3.7109375 51.9609375 C-7.548205 53.53985798 -11.25210651 53.83594411 -15.37109375 53.7734375 C-16.07290771 53.76586426 -16.77472168 53.75829102 -17.49780273 53.75048828 C-23.30228624 53.56660246 -27.6693394 52.53378718 -32.49609375 49.3359375 C-33.44548828 48.7171875 -33.44548828 48.7171875 -34.4140625 48.0859375 C-40.36161948 43.62209943 -43.58746607 37.58741764 -45.12890625 30.375 C-46.13272817 22.06677177 -44.70011684 15.49909223 -40.80859375 8.1484375 C-30.50700116 -4.38052646 -14.41798094 -9.61198729 0 0 Z M-32.296875 13.421875 C-33.87347045 15.68696077 -33.87347045 15.68696077 -34.49609375 20.3359375 C-22.94609375 20.3359375 -11.39609375 20.3359375 0.50390625 20.3359375 C-0.58046467 13.82971196 -1.8730441 11.63038804 -6.49609375 7.3359375 C-15.69956478 1.45594212 -25.8933504 6.06034278 -32.296875 13.421875 Z " fill="#154F4C" transform="translate(428.49609375,739.6640625)"/>
<path d="M0 0 C5.31893192 4.16858476 7.7866776 9.37956406 9.88671875 15.6796875 C9.88671875 19.6396875 9.88671875 23.5996875 9.88671875 27.6796875 C-4.96328125 27.6796875 -19.81328125 27.6796875 -35.11328125 27.6796875 C-32.14856291 35.58560308 -30.77446325 38.03415177 -23.80078125 41.9921875 C-16.20813931 43.93449125 -10.94963602 42.59331918 -4.08203125 38.96875 C-1.97689082 37.82633751 -1.97689082 37.82633751 -1.11328125 35.6796875 C2.26175544 36.8655112 4.53394606 37.95542439 6.88671875 40.6796875 C5.49694451 43.95558392 3.98792683 45.69390942 1.13671875 47.8046875 C0.481875 48.30226563 -0.17296875 48.79984375 -0.84765625 49.3125 C-8.62005422 54.00274015 -18.38766855 53.94447232 -27.06640625 52.02734375 C-34.63550393 49.32243614 -39.78742908 44.58989328 -43.48828125 37.4921875 C-47.18913564 29.59166791 -47.2272812 21.16941763 -44.48828125 12.9296875 C-41.04639255 4.54008379 -36.64206213 0.46425421 -28.48046875 -3.375 C-18.68796527 -7.28553769 -8.87214456 -5.54304041 0 0 Z M-32.4921875 11.46484375 C-34.22987035 14.31658111 -35.11328125 16.31583754 -35.11328125 19.6796875 C-23.56328125 19.6796875 -12.01328125 19.6796875 -0.11328125 19.6796875 C-1.14681735 13.47847091 -1.84367418 11.94929457 -6.11328125 7.6796875 C-14.53059551 1.66732017 -26.18697417 3.30200383 -32.4921875 11.46484375 Z " fill="#154F4C" transform="translate(2125.11328125,740.3203125)"/>
<path d="M0 0 C4.23591542 4.19269179 7.27929007 9.7110835 8.53125 15.515625 C8.53125 19.145625 8.53125 22.775625 8.53125 26.515625 C-6.64875 26.515625 -21.82875 26.515625 -37.46875 26.515625 C-36.14875 29.155625 -34.82875 31.795625 -33.46875 34.515625 C-33.13875 35.505625 -32.80875 36.495625 -32.46875 37.515625 C-30.73732146 38.67484628 -30.73732146 38.67484628 -28.46875 39.515625 C-27.56125 39.886875 -26.65375 40.258125 -25.71875 40.640625 C-18.7662632 42.51244837 -12.79919281 41.86291666 -6.46875 38.515625 C-4.02664478 36.49644678 -4.02664478 36.49644678 -2.46875 34.515625 C0.89716866 35.95816157 3.04172079 37.84827227 5.53125 40.515625 C1.26309184 46.42538245 -3.48507893 49.56185988 -10.46875 51.515625 C-21.0106266 52.68444714 -29.6780348 51.98140926 -38.46875 45.515625 C-41.00147648 43.06849763 -42.78960407 40.60289681 -44.46875 37.515625 C-44.80519531 36.92265625 -45.14164063 36.3296875 -45.48828125 35.71875 C-48.71165383 28.83044695 -48.63163124 20.16022805 -46.8125 12.89453125 C-43.63831231 5.00010757 -38.1423897 -1.40024432 -30.3046875 -4.80859375 C-20.19584644 -8.52950759 -8.49250715 -6.64979333 0 0 Z M-33.78125 9.890625 C-35.87428733 12.90889132 -35.87428733 12.90889132 -37.46875 18.515625 C-25.58875 18.515625 -13.70875 18.515625 -1.46875 18.515625 C-3.41964218 11.68750236 -4.39415332 8.69033972 -10.03125 4.703125 C-19.24401139 1.5205347 -26.97061215 2.89591585 -33.78125 9.890625 Z " fill="#154F4C" transform="translate(208.46875,741.484375)"/>
<path d="M0 0 C8.33921341 -0.45754976 15.96633362 2.12278576 22.45703125 7.37890625 C28.80128993 13.43656597 31.74458761 20.21411249 32.33203125 28.87890625 C32.17191542 37.38105672 29.22462051 45.23997641 23.08203125 51.19140625 C13.91010247 57.74890673 6.1753331 59.00005556 -4.91796875 58.19140625 C-12.04387382 56.41500541 -18.33211904 52.04338445 -22.42578125 45.9453125 C-27.02718689 37.93886668 -28.25230262 30.46362535 -26.3046875 21.30859375 C-23.60778413 12.77830027 -18.64559421 6.94338665 -10.73046875 2.75390625 C-7.1264548 1.16841949 -3.91515114 0.39071773 0 0 Z M-10.66796875 15.50390625 C-15.29203094 21.02709165 -16.48766608 25.39284383 -16.265625 32.5078125 C-15.55881325 37.96376387 -13.01827552 41.03992242 -9.23046875 45.00390625 C-4.52793527 48.10935288 -0.22576547 49.72087206 5.44921875 48.8125 C11.98104775 46.8881396 16.44682611 43.97125499 19.95703125 38.00390625 C21.70209281 32.09008652 21.98750976 26.80723305 19.95703125 20.94140625 C16.25355706 15.50964411 12.75599357 11.55343938 6.08203125 10.19140625 C-0.6752632 9.57710675 -5.46552318 11.12912248 -10.66796875 15.50390625 Z " fill="#154F4C" transform="translate(1832.91796875,734.80859375)"/>
<path d="M0 0 C6.39805965 5.22185071 10.17374502 11.20803256 11.0234375 19.546875 C11.13715084 29.5991344 9.95797414 37.03160337 3.0625 44.625 C-4.37429424 51.37826536 -12.00620508 52.96887358 -21.9140625 52.625 C-30.19133072 51.71164627 -36.03290235 48.60179214 -41.6171875 42.4296875 C-47.86727157 34.39386512 -48.3785725 26.2580275 -47.3125 16.25 C-45.47842202 9.07854901 -41.20090438 2.65918795 -34.87890625 -1.2578125 C-23.33101479 -7.26340241 -10.95146537 -7.71346149 0 0 Z M-33.1875 11.125 C-36.74915808 16.36273248 -38.05039267 20.92520565 -37.3125 27.25 C-35.15585445 33.64972029 -32.41288233 38.22449545 -26.34765625 41.41015625 C-20.53400536 43.80926362 -16.13584444 43.4151969 -10.390625 41.265625 C-5.69051805 38.96858025 -2.40716348 34.96299282 -0.3125 30.25 C1.11488318 23.80481595 1.06867318 19.11070018 -2.3125 13.25 C-5.71095256 8.34112408 -8.58177142 5.99835787 -14.3125 4.25 C-21.89858604 3.40710155 -27.99419295 5.33773701 -33.1875 11.125 Z " fill="#154F4C" transform="translate(964.3125,740.75)"/>
<path d="M0 0 C3.63 0 7.26 0 11 0 C15.09078224 8.78114111 18.74607867 17.68581379 22.3125 26.6875 C22.86759382 28.08277968 23.42293087 29.47796261 23.97851562 30.87304688 C25.32180837 34.24759045 26.6618325 37.62342021 28 41 C30.34307052 37.48539422 31.84403112 33.78957877 33.44140625 29.90234375 C33.76914536 29.11227432 34.09688446 28.3222049 34.43455505 27.50819397 C35.48022698 24.98586887 36.52151496 22.46176258 37.5625 19.9375 C38.60791119 17.4100294 39.65421698 14.8829322 40.70115662 12.35609436 C41.35219039 10.78398077 42.00217466 9.21143209 42.65101624 7.63841248 C44.89081619 2.21836762 44.89081619 2.21836762 46 0 C49.63 0 53.26 0 57 0 C56.2954928 3.52253601 55.71855481 5.99263508 54.36450195 9.17480469 C54.02889755 9.96995987 53.69329315 10.76511505 53.34751892 11.58436584 C52.79844627 12.86518288 52.79844627 12.86518288 52.23828125 14.171875 C51.85543472 15.07534164 51.4725882 15.97880829 51.07814026 16.90965271 C49.82738218 19.85835015 48.57000815 22.80417569 47.3125 25.75 C46.45090455 27.77756795 45.58974189 29.80531985 44.72900391 31.83325195 C42.99087964 35.92649671 41.25019888 40.01863902 39.50732422 44.10986328 C37.21777231 49.48558531 34.93696977 54.86496615 32.66015625 60.24609375 C27.52294128 72.38276906 27.52294128 72.38276906 25.4921875 77.16796875 C25.03183105 78.25360107 24.57147461 79.3392334 24.09716797 80.45776367 C23.4363573 81.9889211 22.74580343 83.50839313 22 85 C18.7 85 15.4 85 12 85 C12.63207018 77.98870298 16.01277607 71.90905956 18.9375 65.61132812 C19.34226562 64.70705078 19.74703125 63.80277344 20.1640625 62.87109375 C20.72794678 61.64797485 20.72794678 61.64797485 21.30322266 60.40014648 C22.95328458 54.71627865 19.5132375 49.08451414 17.32421875 43.89453125 C16.95778763 43.01528488 16.59135651 42.13603851 16.21382141 41.23014832 C15.04269316 38.4224412 13.86530726 35.61741101 12.6875 32.8125 C11.52174834 30.02489605 10.35729522 27.23675349 9.1933136 24.44841003 C8.47001768 22.71699102 7.7454837 20.98608845 7.01945496 19.2558136 C6.00715466 16.83957109 5.00130442 14.42081935 4 12 C3.62275787 11.08858246 3.24551575 10.17716492 2.85684204 9.23812866 C2.30665909 7.8898851 2.30665909 7.8898851 1.74536133 6.5144043 C1.41087479 5.69763718 1.07638824 4.88087006 0.73176575 4.03935242 C0 2 0 2 0 0 Z " fill="#154F4C" transform="translate(1923,736)"/>
<path d="M0 0 C6.52299892 6.89574172 7.34547021 14.73840173 7.28515625 23.89453125 C7.2837413 24.70871017 7.28232635 25.5228891 7.28086853 26.36174011 C7.27529317 28.94953156 7.26274524 31.53723492 7.25 34.125 C7.24498181 35.88476437 7.24041946 37.64453011 7.23632812 39.40429688 C7.22533181 43.70706494 7.20808421 48.00976756 7.1875 52.3125 C3.8875 52.3125 0.5875 52.3125 -2.8125 52.3125 C-2.82708252 51.35996338 -2.84166504 50.40742676 -2.85668945 49.42602539 C-2.9151689 45.8529115 -2.99239273 42.28039553 -3.07495117 38.70776367 C-3.10796921 37.16880074 -3.13607122 35.62972344 -3.15893555 34.09057617 C-2.8027528 20.17140396 -2.8027528 20.17140396 -8.8125 8.3125 C-13.09004378 6.17372811 -17.10875275 5.81361772 -21.8125 6.3125 C-25.99155855 7.88950323 -28.52022617 9.45182829 -30.8125 13.3125 C-32.05723532 17.04670597 -32.04459785 20.58615238 -32.12890625 24.48046875 C-32.14968735 25.27528152 -32.17046844 26.0700943 -32.19187927 26.88899231 C-32.25722087 29.42590763 -32.31618808 31.96292573 -32.375 34.5 C-32.41819986 36.22071372 -32.46181463 37.94141708 -32.50585938 39.66210938 C-32.61288648 43.87880113 -32.71419724 48.0955962 -32.8125 52.3125 C-36.4425 52.3125 -40.0725 52.3125 -43.8125 52.3125 C-43.8125 33.8325 -43.8125 15.3525 -43.8125 -3.6875 C-40.1825 -3.6875 -36.5525 -3.6875 -32.8125 -3.6875 C-32.4825 -2.3675 -32.1525 -1.0475 -31.8125 0.3125 C-30.760625 -0.326875 -29.70875 -0.96625 -28.625 -1.625 C-19.29650097 -6.90493045 -8.93533372 -5.36120023 0 0 Z " fill="#154F4C" transform="translate(496.8125,739.6875)"/>
<path d="M0 0 C6.52299892 6.89574172 7.34547021 14.73840173 7.28515625 23.89453125 C7.2837413 24.70871017 7.28232635 25.5228891 7.28086853 26.36174011 C7.27529317 28.94953156 7.26274524 31.53723492 7.25 34.125 C7.24498181 35.88476437 7.24041946 37.64453011 7.23632812 39.40429688 C7.22533181 43.70706494 7.20808421 48.00976756 7.1875 52.3125 C3.8875 52.3125 0.5875 52.3125 -2.8125 52.3125 C-2.842229 50.9212793 -2.842229 50.9212793 -2.87255859 49.50195312 C-2.95112316 46.02774973 -3.03782999 42.55394044 -3.12988281 39.08007812 C-3.16792835 37.58276052 -3.20282167 36.08535911 -3.234375 34.58789062 C-3.28056201 32.42287433 -3.33846017 30.25842314 -3.3984375 28.09375 C-3.4298584 26.79501953 -3.4612793 25.49628906 -3.49365234 24.15820312 C-3.95908311 18.54452363 -4.5602789 13.82158697 -8.25 9.375 C-12.44670379 5.99716524 -16.58889067 5.75848083 -21.8125 6.3125 C-25.96000776 7.87759727 -28.72764065 9.35126723 -30.8125 13.3125 C-33.10507734 21.42270782 -33.24765793 29.50711759 -33.4375 37.875 C-33.4757657 39.27931881 -33.51482212 40.68361631 -33.5546875 42.08789062 C-33.64838029 45.49596604 -33.73410074 48.90404423 -33.8125 52.3125 C-37.1125 52.3125 -40.4125 52.3125 -43.8125 52.3125 C-43.8125 33.8325 -43.8125 15.3525 -43.8125 -3.6875 C-40.5125 -3.6875 -37.2125 -3.6875 -33.8125 -3.6875 C-33.4825 -2.0375 -33.1525 -0.3875 -32.8125 1.3125 C-32.29300781 0.96316406 -31.77351562 0.61382813 -31.23828125 0.25390625 C-21.00048606 -6.4262078 -10.51611561 -6.30966936 0 0 Z " fill="#154F4C" transform="translate(705.8125,739.6875)"/>
<path d="M0 0 C4.59339358 4.04218635 8.63399891 8.71151802 9.17326355 15.03015137 C9.23118647 17.50823343 9.22468663 19.97844252 9.1953125 22.45703125 C9.1924826 23.35999435 9.18965271 24.26295746 9.18673706 25.19328308 C9.17557607 28.06649234 9.15047897 30.93938555 9.125 33.8125 C9.11496493 35.76496944 9.10584 37.71744379 9.09765625 39.66992188 C9.07565008 44.44673566 9.04114831 49.22331431 9 54 C5.7 54 2.4 54 -1 54 C-1.01458252 52.94087402 -1.02916504 51.88174805 -1.04418945 50.79052734 C-1.10237327 46.84292658 -1.17960407 42.89588429 -1.26245117 38.94873047 C-1.29560636 37.24374488 -1.32366737 35.53865202 -1.34643555 33.83349609 C-1.38015568 31.37551366 -1.43247794 28.91850594 -1.48828125 26.4609375 C-1.49467117 25.70444916 -1.5010611 24.94796082 -1.50764465 24.16854858 C-1.63939632 19.37420888 -2.59400847 16.25499982 -5 12 C-5 11.34 -5 10.68 -5 10 C-9.73553946 8.10578422 -13.95402544 7.30642979 -19 8 C-22.30101131 9.39924945 -22.30101131 9.39924945 -25 11 C-25.66 11 -26.32 11 -27 11 C-30.53079954 19.85631989 -30.54743319 28.74959261 -30.6875 38.125 C-30.72074036 39.66929858 -30.75523601 41.21357067 -30.79101562 42.7578125 C-30.87514192 46.5050139 -30.94230856 50.2522874 -31 54 C-34.3 54 -37.6 54 -41 54 C-41 35.52 -41 17.04 -41 -2 C-37.7 -2 -34.4 -2 -31 -2 C-30.67 -0.35 -30.34 1.3 -30 3 C-29.319375 2.38125 -28.63875 1.7625 -27.9375 1.125 C-19.96587926 -4.64170437 -8.56413542 -4.71105446 0 0 Z " fill="#154F4C" transform="translate(1298,738)"/>
<path d="M0 0 C3.3 0 6.6 0 10 0 C10.01458252 0.98806641 10.02916504 1.97613281 10.04418945 2.99414062 C10.10256335 6.69208313 10.17979024 10.38944136 10.26245117 14.08691406 C10.29551798 15.68121798 10.32360559 17.27563383 10.34643555 18.87011719 C10.38032072 21.17430927 10.43264737 23.47749225 10.48828125 25.78125 C10.49467117 26.48366821 10.5010611 27.18608643 10.50764465 27.90979004 C10.68720294 34.07917712 11.95743804 39.72400239 16.1875 44.4375 C20.50279654 46.83488697 24.35904209 47.49847481 29.15234375 46.59375 C33.00648421 45.38798539 34.77468335 44.2657581 37.4375 41.125 C40.02060617 35.95878765 40.17958541 30.99117121 40.31640625 25.29296875 C40.33718735 24.56757401 40.35796844 23.84217926 40.37937927 23.09480286 C40.44442215 20.79245887 40.50354773 18.49000718 40.5625 16.1875 C40.60572835 14.62043186 40.64934398 13.05337435 40.69335938 11.48632812 C40.80005668 7.65766064 40.90144969 3.8288855 41 0 C44.3 0 47.6 0 51 0 C51.07466663 5.24695799 51.12884421 10.49360043 51.16479492 15.7409668 C51.17979643 17.52259719 51.20020433 19.30419119 51.22631836 21.08569336 C51.26308509 23.66008535 51.27981285 26.2339853 51.29296875 28.80859375 C51.30845261 29.59334579 51.32393646 30.37809784 51.33988953 31.18663025 C51.3419196 37.99654568 49.86648027 44.00029957 46.25 49.8125 C39.49715471 56.37776626 32.27143199 57.34297444 23.21948242 57.38500977 C16.12712505 57.2362303 10.47657696 55.47657696 5.35546875 50.35546875 C0.31668792 43.92267363 -0.29772261 36.89183239 -0.1953125 29.00390625 C-0.1924826 28.17036118 -0.18965271 27.3368161 -0.18673706 26.47801208 C-0.17562289 23.8393564 -0.15053515 21.20105152 -0.125 18.5625 C-0.11495885 16.76367681 -0.10583499 14.96484825 -0.09765625 13.16601562 C-0.07571235 8.77721045 -0.04124387 4.38866452 0 0 Z " fill="#154F4C" transform="translate(258,736)"/>
<path d="M0 0 C3.3 0 6.6 0 10 0 C10.01458252 0.98806641 10.02916504 1.97613281 10.04418945 2.99414062 C10.10256335 6.69208313 10.17979024 10.38944136 10.26245117 14.08691406 C10.29551798 15.68121798 10.32360559 17.27563383 10.34643555 18.87011719 C10.38032072 21.17430927 10.43264737 23.47749225 10.48828125 25.78125 C10.49467117 26.48366821 10.5010611 27.18608643 10.50764465 27.90979004 C10.6875796 34.09211865 11.93980177 39.76811858 16.25 44.4375 C20.33477918 46.75839726 23.64229716 47.41489187 28.30859375 46.59375 C32.41428338 45.46114596 34.59104045 44.44985551 37.5 41.25 C40.10672799 35.60208936 40.13783419 29.68313701 40.31640625 23.53515625 C40.33718735 22.85698349 40.35796844 22.17881073 40.37937927 21.48008728 C40.44409309 19.34098169 40.5033909 17.20176704 40.5625 15.0625 C40.60575984 13.60090076 40.64937634 12.13931203 40.69335938 10.67773438 C40.79969251 7.1186016 40.9011733 3.55935003 41 0 C44.3 0 47.6 0 51 0 C51.0746894 5.10454178 51.12885461 10.20875875 51.16479492 15.3137207 C51.17979269 17.04685006 51.20019772 18.77994204 51.22631836 20.51293945 C51.26310203 23.01783525 51.27981651 25.5222252 51.29296875 28.02734375 C51.30845261 28.79022202 51.32393646 29.55310028 51.33988953 30.33909607 C51.34252762 38.955524 48.93550104 46.09866421 42.921875 52.3359375 C36.63448946 57.77989327 28.85891617 57.72086547 20.921875 57.40234375 C14.30342396 56.72335923 9.50035118 54.88541553 5.09765625 49.8046875 C1.70022415 44.96034903 -0.1328534 40.91884802 -0.11352539 34.96582031 C-0.11344986 34.18531311 -0.11337433 33.40480591 -0.11329651 32.60064697 C-0.10813522 31.76821472 -0.10297394 30.93578247 -0.09765625 30.078125 C-0.0962413 29.21813904 -0.09482635 28.35815308 -0.09336853 27.47210693 C-0.08778097 24.73136891 -0.07523075 21.99071324 -0.0625 19.25 C-0.05748339 17.3893241 -0.05292077 15.52864691 -0.04882812 13.66796875 C-0.03781561 9.11194754 -0.02055951 4.55598772 0 0 Z " fill="#154F4C" transform="translate(1189,736)"/>
<path d="M0 0 C2.9345692 2.37136905 4.93496117 4.66647998 6.5625 8.125 C3.5925 9.775 0.6225 11.425 -2.4375 13.125 C-3.489375 12.17625 -4.54125 11.2275 -5.625 10.25 C-10.32484063 6.26453515 -13.98260892 4.62899647 -20.31640625 4.80859375 C-25.36737208 5.56205274 -29.24591776 7.93341776 -32.8125 11.5 C-35.96095655 16.58596827 -37.13318671 21.16197102 -36.4375 27.125 C-34.70082624 32.14119608 -32.70766325 36.81441934 -28.0625 39.6875 C-21.54712949 42.27118141 -17.0979359 42.53691885 -10.578125 40.1640625 C-8.42122441 39.1170998 -6.89677152 37.97675304 -5.125 36.375 C-2.4375 34.125 -2.4375 34.125 -0.375 34.125 C2.01027757 35.356111 4.30046784 36.67981278 6.5625 38.125 C4.00531621 44.00135668 -1.25623372 48.43466397 -7.0625 51.0625 C-15.43926499 53.70085118 -25.2496195 53.23260023 -33.1875 49.51171875 C-39.2905576 45.75028568 -44.19939513 40.53967192 -46.8125 33.80859375 C-48.71883476 25.62326889 -48.75134895 16.5537071 -44.6875 9.046875 C-39.73094561 1.42617263 -33.91310954 -3.32477832 -24.859375 -5.4921875 C-15.83723457 -6.91826776 -7.49332315 -5.33469612 0 0 Z " fill="#154F4C" transform="translate(1791.4375,740.875)"/>
<path d="M0 0 C-0.59927826 3.35595828 -1.84622436 5.37801226 -4 8 C-6.23353971 7.50365784 -8.19780822 6.91253378 -10.296875 5.984375 C-14.78959227 4.34829877 -19.28659121 4.37637976 -24 5 C-26.70101606 6.77123226 -26.70101606 6.77123226 -28 9 C-26.90975876 12.73571907 -26.90975876 12.73571907 -24.0390625 15.15234375 C-23.24242187 15.41144531 -22.44578125 15.67054688 -21.625 15.9375 C-17.51406594 17.41934833 -13.56627017 19.04414472 -9.625 20.9375 C-8.64789062 21.40027344 -7.67078125 21.86304688 -6.6640625 22.33984375 C-3.03901926 24.59885164 -0.63423876 27.06955744 0.71484375 31.17578125 C1.29154821 36.71012056 0.86769017 41.13595628 -2 46 C-6.59619924 50.59619924 -11.20589699 52.23840089 -17.67285156 52.37963867 C-18.35831055 52.37810791 -19.04376953 52.37657715 -19.75 52.375 C-20.45866211 52.37411377 -21.16732422 52.37322754 -21.89746094 52.37231445 C-29.4450705 52.20219099 -35.30499526 49.95217803 -41 45 C-39.87548273 42.0280615 -38.77706209 39.66559313 -37 37 C-33.86903623 37.6837737 -31.11751997 38.7751369 -28.1875 40.0625 C-23.92851612 41.77861997 -20.64110665 42.63701464 -16 42 C-13.07093326 40.72649272 -11.51971769 39.86619614 -9.875 37.125 C-9.80566737 34.73857148 -9.80566737 34.73857148 -12.046875 32.51953125 C-15.44428563 29.62094678 -18.0923236 28.74827146 -22.375 27.5625 C-29.4477084 25.43186693 -34.60649102 23.0585587 -38.4375 16.5625 C-39.74605395 10.60130977 -39.23341576 6.11033819 -36.33984375 0.796875 C-27.69554283 -10.79606501 -10.22359475 -6.38974672 0 0 Z " fill="#154F4C" transform="translate(1524,741)"/>
<path d="M0 0 C0.61875 0.433125 1.2375 0.86625 1.875 1.3125 C0.75048273 4.2844385 -0.34793791 6.64690687 -2.125 9.3125 C-4.73631646 8.86484575 -7.01570228 8.36044404 -9.44921875 7.29296875 C-12.37450768 6.22107456 -14.64381336 6.01283548 -17.75 6 C-18.69101563 5.98324219 -19.63203125 5.96648438 -20.6015625 5.94921875 C-23.16135259 6.11391291 -23.16135259 6.11391291 -24.96484375 7.67578125 C-26.37438491 9.31827559 -26.37438491 9.31827559 -26.0625 11.8125 C-24.8879516 14.94462907 -23.95477013 15.53935878 -21.125 17.3125 C-17.79161032 18.62692811 -14.44743974 19.8215512 -11.05664062 20.97460938 C-6.05042299 22.75282539 -1.9062353 24.66223778 1.1640625 29.23046875 C2.98855485 34.57362492 2.87047925 41.14862207 0.375 46.25 C-3.83286037 51.40462896 -7.19629298 53.01471742 -13.8515625 53.69140625 C-23.08501115 54.10259015 -31.50411975 53.2732545 -38.75 47.0625 C-39.20375 46.485 -39.6575 45.9075 -40.125 45.3125 C-38.475 43.0025 -36.825 40.6925 -35.125 38.3125 C-34.465 38.580625 -33.805 38.84875 -33.125 39.125 C-32.135 39.516875 -31.145 39.90875 -30.125 40.3125 C-29.52042969 40.57675781 -28.91585938 40.84101562 -28.29296875 41.11328125 C-22.35690908 43.58371239 -17.35513669 44.52380126 -11.125 42.1875 C-8.78015665 40.40214481 -8.78015665 40.40214481 -8.8125 37.125 C-8.915625 36.196875 -9.01875 35.26875 -9.125 34.3125 C-14.29715915 31.57495806 -19.37552985 29.15641402 -24.9375 27.3125 C-30.12324728 25.49602355 -33.39737824 23.26538542 -36.2265625 18.4296875 C-38.23534363 13.6959511 -37.6346537 8.73416558 -35.9375 4 C-27.65099921 -8.28688049 -11.54416866 -6.23385108 0 0 Z " fill="#154F4C" transform="translate(2026.125,739.6875)"/>
<path d="M0 0 C0.61875 0.433125 1.2375 0.86625 1.875 1.3125 C0.75048273 4.2844385 -0.34793791 6.64690687 -2.125 9.3125 C-4.73631646 8.86484575 -7.01570228 8.36044404 -9.44921875 7.29296875 C-12.37450768 6.22107456 -14.64381336 6.01283548 -17.75 6 C-18.69101563 5.98324219 -19.63203125 5.96648438 -20.6015625 5.94921875 C-23.16135259 6.11391291 -23.16135259 6.11391291 -24.96484375 7.67578125 C-26.37438491 9.31827559 -26.37438491 9.31827559 -26.0625 11.8125 C-24.88790313 14.94475831 -23.95688417 15.54257239 -21.125 17.3125 C-17.7906425 18.5957543 -14.44999216 19.77322668 -11.05664062 20.88671875 C-5.57035158 22.8097479 -2.05792211 25.31676272 1.16796875 30.31640625 C2.85475692 35.07855407 2.608274 40.47931499 0.75 45.125 C-2.36883269 48.76363814 -5.49577874 51.76942625 -10.125 53.3125 C-20.55270939 54.03450939 -30.38949494 54.2286472 -38.75 47.0625 C-39.20375 46.485 -39.6575 45.9075 -40.125 45.3125 C-38.475 43.0025 -36.825 40.6925 -35.125 38.3125 C-34.465 38.580625 -33.805 38.84875 -33.125 39.125 C-32.135 39.516875 -31.145 39.90875 -30.125 40.3125 C-29.52042969 40.57675781 -28.91585937 40.84101562 -28.29296875 41.11328125 C-22.35690908 43.58371239 -17.35513669 44.52380126 -11.125 42.1875 C-8.78015665 40.40214481 -8.78015665 40.40214481 -8.8125 37.125 C-8.915625 36.196875 -9.01875 35.26875 -9.125 34.3125 C-14.29352156 31.57688338 -19.39607722 29.13980586 -24.9375 27.25 C-29.6599678 25.58913209 -33.53738707 23.93600222 -36.2265625 19.4921875 C-38.28840092 14.4899882 -37.69564803 8.93434176 -35.9375 3.9375 C-27.53206942 -8.23588222 -11.57649325 -6.25130636 0 0 Z " fill="#154F4C" transform="translate(2284.125,739.6875)"/>
<path d="M0 0 C2.32421875 1.60546875 2.32421875 1.60546875 4 3 C3.40072174 6.35595828 2.15377564 8.37801226 0 11 C-2.23524806 10.50327821 -4.19738325 9.91238601 -6.296875 8.98046875 C-9.21621967 7.9215735 -11.46678978 7.70041673 -14.5625 7.6875 C-15.49191406 7.67074219 -16.42132812 7.65398438 -17.37890625 7.63671875 C-20.39383356 8.05458498 -21.75514486 8.99811741 -24 11 C-23.83364684 13.42544311 -23.83364684 13.42544311 -23 16 C-21.13513312 17.51691572 -21.13513312 17.51691572 -18.6875 18.5 C-17.79160156 18.9125 -16.89570312 19.325 -15.97265625 19.75 C-13.92875857 20.60945763 -11.87312811 21.44136965 -9.80859375 22.25 C-8.75800781 22.6625 -7.70742187 23.075 -6.625 23.5 C-5.64789062 23.8609375 -4.67078125 24.221875 -3.6640625 24.59375 C0.15049141 26.60729752 2.21724703 29.20523588 3.93359375 33.140625 C5.34848548 39.06342759 4.92162804 43.59118676 2 49 C-2.51513167 53.63395093 -7.25235315 55.23941549 -13.67285156 55.37963867 C-14.35831055 55.37810791 -15.04376953 55.37657715 -15.75 55.375 C-16.45866211 55.37411377 -17.16732422 55.37322754 -17.89746094 55.37231445 C-25.4450705 55.20219099 -31.30499526 52.95217803 -37 48 C-35.87548273 45.0280615 -34.77706209 42.66559313 -33 40 C-29.32297872 40.70711948 -26.33144966 42.33427517 -23 44 C-18.36068058 45.64621012 -13.64493195 45.71518781 -9.125 43.75 C-6.95473603 42.16174974 -6.95473603 42.16174974 -5.875 40.125 C-5.80799702 37.7514886 -5.80799702 37.7514886 -7.98046875 35.546875 C-11.65151952 32.45046478 -14.89943204 31.44762089 -19.4375 30.125 C-26.14473736 27.98035943 -30.22894975 26.24580197 -34 20 C-35.68268168 14.95195496 -35.56212419 10.67916054 -33.4375 5.8125 C-30.83344572 1.03067791 -27.2579315 -1.03492685 -22.03515625 -2.58203125 C-14.53155169 -4.12307864 -7.08023774 -2.70944531 0 0 Z " fill="#154F4C" transform="translate(1911,738)"/>
<path d="M0 0 C3.63 0 7.26 0 11 0 C15.19180922 7.87646128 18.37957533 16.16449974 21.6875 24.4375 C22.57590435 26.6567086 23.46530108 28.87549348 24.35786438 31.09303284 C24.91015908 32.4653508 25.46003467 33.83864534 26.00724792 35.21299744 C27.11695529 38.34095458 27.11695529 38.34095458 29 41 C29.47945068 39.82904785 29.95890137 38.6580957 30.45288086 37.45166016 C32.22814678 33.11654394 34.00442193 28.78184185 35.78100586 24.44726562 C36.55048822 22.56944927 37.31969506 20.69151999 38.08862305 18.81347656 C39.19247567 16.1175425 40.29731124 13.42201312 41.40234375 10.7265625 C41.74716293 9.88380768 42.09198212 9.04105286 42.44725037 8.17276001 C42.76750687 7.39210175 43.08776337 6.61144348 43.41772461 5.80712891 C43.84075111 4.77454453 43.84075111 4.77454453 44.27232361 3.72109985 C44.80487249 2.46151549 45.38841827 1.22316347 46 0 C49.63 0 53.26 0 57 0 C56.07583053 4.62084736 54.6537657 8.57179804 52.83203125 12.87109375 C52.35608772 14.00926292 52.35608772 14.00926292 51.87052917 15.17042542 C50.85550811 17.59462258 49.83405327 20.01604935 48.8125 22.4375 C48.14477041 24.03042637 47.47744893 25.62352387 46.81054688 27.21679688 C45.19117887 31.08110161 43.56367472 34.94189214 41.9307251 38.80047607 C41.3159033 40.25344564 40.70191433 41.70676793 40.08880615 43.16046143 C39.25320318 45.14063711 38.41431176 47.11938206 37.57421875 49.09765625 C36.862052 50.77807007 36.862052 50.77807007 36.13549805 52.49243164 C35 55 35 55 34 56 C32.14712498 56.07226502 30.29166122 56.0838122 28.4375 56.0625 C27.42558594 56.05347656 26.41367187 56.04445313 25.37109375 56.03515625 C24.19740234 56.01775391 24.19740234 56.01775391 23 56 C16.65531872 41.44825341 10.32288477 26.89151668 4.1875 12.25 C3.76162598 11.24001953 3.33575195 10.23003906 2.89697266 9.18945312 C2.51202637 8.26583984 2.12708008 7.34222656 1.73046875 6.390625 C1.39426514 5.58657227 1.05806152 4.78251953 0.71166992 3.95410156 C0 2 0 2 0 0 Z " fill="#154F4C" transform="translate(319,736)"/>
<path d="M0 0 C3.63 0 7.26 0 11 0 C11 5.94 11 11.88 11 18 C16.28 18 21.56 18 27 18 C27 21.3 27 24.6 27 28 C21.72 28 16.44 28 11 28 C11.495 45.82 11.495 45.82 12 64 C19.06002091 64.85269047 19.06002091 64.85269047 26 65 C26 67.97 26 70.94 26 74 C22.96843143 75.51578428 20.12033386 75.24971927 16.75 75.3125 C15.44546875 75.34988281 14.1409375 75.38726563 12.796875 75.42578125 C8.25559512 74.9165225 6.33041745 74.13309503 3 71 C-1.75258866 63.37917844 -0.32954708 53.06306337 -0.1875 44.4375 C-0.17242639 42.84050741 -0.15874272 41.24350106 -0.14648438 39.64648438 C-0.11368925 35.76397876 -0.06205574 31.88214367 0 28 C-2.64 28 -5.28 28 -8 28 C-8 24.7 -8 21.4 -8 18 C-5.36 18 -2.72 18 0 18 C0 12.06 0 6.12 0 0 Z " fill="#154F4C" transform="translate(2045,718)"/>
<path d="M0 0 C3.3 0 6.6 0 10 0 C10 5.94 10 11.88 10 18 C15.28 18 20.56 18 26 18 C26 21.3 26 24.6 26 28 C20.72 28 15.44 28 10 28 C10.09693587 32.6452689 10.19966159 37.28964512 10.31738281 41.93432617 C10.35566221 43.51432451 10.39051697 45.09440969 10.421875 46.67456055 C10.46754876 48.94611645 10.52553784 51.21707509 10.5859375 53.48828125 C10.59748871 54.19463211 10.60903992 54.90098297 10.62094116 55.6287384 C10.73071048 59.27741393 10.92142364 60.88213546 13 64 C17.02336293 64.83503759 20.89767934 65.12431275 25 65 C25 67.97 25 70.94 25 74 C22.07539571 75.46230215 19.44347176 75.20908727 16.1875 75.25 C14.96417969 75.27578125 13.74085937 75.3015625 12.48046875 75.328125 C7.3809133 74.84735883 5.12049798 73.35347792 1.88061523 69.43994141 C-0.50227981 65.08125114 -0.5162729 61.97185882 -0.390625 57.1015625 C-0.38496521 56.26660248 -0.37930542 55.43164246 -0.37347412 54.57138062 C-0.35120223 51.92198734 -0.30102523 49.27397984 -0.25 46.625 C-0.22992302 44.82163421 -0.21167435 43.01824708 -0.1953125 41.21484375 C-0.15136786 36.80936731 -0.08240601 32.40491806 0 28 C-2.97 28 -5.94 28 -9 28 C-9 24.7 -9 21.4 -9 18 C-6.03 18 -3.06 18 0 18 C0 12.06 0 6.12 0 0 Z " fill="#154F4C" transform="translate(1356,718)"/>
<path d="M0 0 C3.3 0 6.6 0 10 0 C10 5.94 10 11.88 10 18 C15.28 18 20.56 18 26 18 C26 21.3 26 24.6 26 28 C20.72 28 15.44 28 10 28 C10.09704605 32.48454916 10.19984048 36.96819757 10.31738281 41.45214844 C10.35561266 42.97680658 10.390476 44.50155307 10.421875 46.02636719 C10.46765662 48.22102381 10.52562766 50.4150754 10.5859375 52.609375 C10.59748871 53.2886908 10.60903992 53.96800659 10.62094116 54.66790771 C10.73062782 58.20289787 10.84353985 61.10629614 13 64 C17.01712758 64.90953832 20.89102857 65.12451429 25 65 C25.02689216 66.47906892 25.04634621 67.95827483 25.0625 69.4375 C25.07410156 70.26121094 25.08570313 71.08492187 25.09765625 71.93359375 C25 74 25 74 24 75 C21.58646168 75.18153617 19.22875181 75.27814571 16.8125 75.3125 C15.49894531 75.34988281 14.18539062 75.38726563 12.83203125 75.42578125 C8.36122749 74.92902528 6.37392881 73.94425336 3 71 C-0.16543095 66.00414455 -0.4066172 62.03333689 -0.29296875 56.3203125 C-0.28872391 55.50754852 -0.28447906 54.69478455 -0.28010559 53.85739136 C-0.26340804 51.27958041 -0.22577362 48.7025718 -0.1875 46.125 C-0.17244158 44.36980301 -0.1587552 42.61459369 -0.14648438 40.859375 C-0.11353392 36.57261087 -0.06181453 32.28644114 0 28 C-2.97 28 -5.94 28 -9 28 C-9 24.7 -9 21.4 -9 18 C-6.03 18 -3.06 18 0 18 C0 12.06 0 6.12 0 0 Z " fill="#154F4C" transform="translate(596,718)"/>
<path d="M0 0 C3.3 0 6.6 0 10 0 C10 28.05 10 56.1 10 85 C6.7 85 3.4 85 0 85 C0 56.95 0 28.9 0 0 Z " fill="#154F4C" transform="translate(231,736)"/>
<path d="M0 0 C3.3 0 6.6 0 10 0 C10 18.48 10 36.96 10 56 C6.7 56 3.4 56 0 56 C0 37.52 0 19.04 0 0 Z " fill="#154F4C" transform="translate(1394,736)"/>
<path d="M0 0 C3.3 0 6.6 0 10 0 C10 18.48 10 36.96 10 56 C6.7 56 3.4 56 0 56 C0 37.52 0 19.04 0 0 Z " fill="#154F4C" transform="translate(1325,736)"/>
<path d="M0 0 C3.3 0 6.6 0 10 0 C10 18.48 10 36.96 10 56 C6.7 56 3.4 56 0 56 C0 37.52 0 19.04 0 0 Z " fill="#154F4C" transform="translate(634,736)"/>
<path d="M0 0 C2.875 1 2.875 1 4.8125 2.625 C6.35600034 6.07517724 5.80833407 8.39999716 4.875 12 C1.38375983 14.32749345 -0.01722251 14.50299316 -4.125 14 C-7.21384321 11.88658096 -7.99608765 10.68753254 -8.6875 7 C-8.125 4 -8.125 4 -6 1.5625 C-3.125 0 -3.125 0 0 0 Z " fill="#154F4C" transform="translate(1331.125,711)"/>
<path d="M0 0 C1.9375 1.6875 1.9375 1.6875 3 4 C2.87177883 7.14141856 2.4995896 9.21117432 0.8125 11.875 C-1.94344924 13.58558918 -3.82625484 13.45339217 -7 13 C-9.375 11.375 -9.375 11.375 -11 9 C-11.4375 5.9375 -11.4375 5.9375 -11 3 C-7.79504038 -1.2247195 -4.98014497 -1.32126295 0 0 Z " fill="#154F4C" transform="translate(1403,712)"/>
<path d="M0 0 C4.32624283 1.50478011 4.32624283 1.50478011 5.875 4 C6.41568562 7.63031776 6.33879841 9.32214079 4.25 12.375 C1.19714079 14.46379841 -0.49468224 14.54068562 -4.125 14 C-6.72943772 12.38345245 -7.11219689 11.03680893 -8.125 8.125 C-8.125 5 -8.125 5 -6.0625 2.0625 C-3.125 0 -3.125 0 0 0 Z " fill="#154F4C" transform="translate(640.125,711)"/>
<path d="M0 0 C1.9375 1.6875 1.9375 1.6875 3 4 C2.87177883 7.14141856 2.4995896 9.21117432 0.8125 11.875 C-1.94344924 13.58558918 -3.82625484 13.45339217 -7 13 C-9.375 11.375 -9.375 11.375 -11 9 C-11.4375 5.9375 -11.4375 5.9375 -11 3 C-7.79504038 -1.2247195 -4.98014497 -1.32126295 0 0 Z " fill="#154F4C" transform="translate(240,712)"/>
</svg>
