<?xml version="1.0" encoding="UTF-8"?>
<svg version="1.1" xmlns="http://www.w3.org/2000/svg" width="843" height="314">
<path d="M0 0 C9.9 0.33 19.8 0.66 30 1 C33.35140769 9.04337845 36.61045416 17.07576508 39.6953125 25.21875 C40.12495804 26.34771698 40.55460358 27.47668396 40.99726868 28.63986206 C41.9072802 31.03116994 42.81653246 33.42276687 43.72506714 35.81463623 C50.29592914 53.1126206 56.88504076 70.40012833 63.7175293 87.59667969 C66.57811779 94.82775858 69.22222394 102.10798147 71.68359375 109.484375 C73.18934835 113.50567807 75.02352799 117.18973124 77 121 C84.05191853 105.30544951 91.07739205 89.59940551 98.0625 73.875 C98.3991568 73.11716217 98.7358136 72.35932434 99.08267212 71.57852173 C101.98879857 65.03605698 104.8934391 58.49293281 107.79785156 51.94970703 C108.9131003 49.43723514 110.02857449 46.92486358 111.14428711 44.41259766 C112.13253099 42.1872119 113.1203626 39.961643 114.10766602 37.73583984 C117.03632496 31.1408943 120.00307075 24.56420279 123 18 C126 19 126 19 127.08056641 20.80541992 C127.58595947 22.00581909 127.58595947 22.00581909 128.1015625 23.23046875 C128.50012451 24.15835205 128.89868652 25.08623535 129.30932617 26.04223633 C129.96058472 27.59914185 129.96058472 27.59914185 130.625 29.1875 C131.61161715 31.48769366 132.60001378 33.78712457 133.58984375 36.0859375 C133.85640274 36.70823746 134.12296173 37.33053741 134.39759827 37.97169495 C137.55108001 45.3217637 140.83174482 52.61445269 144.10855103 59.91015625 C145.92383777 63.95199963 147.73573646 67.99535888 149.546875 72.0390625 C149.91102005 72.85199768 150.2751651 73.66493286 150.65034485 74.50250244 C153.30779577 80.44043795 155.94675595 86.38640363 158.578125 92.3359375 C158.94702347 93.16927109 159.31592194 94.00260468 159.69599915 94.8611908 C161.46682913 98.86152911 163.23508252 102.86296671 164.9987793 106.86645508 C165.63317052 108.30035061 166.26768511 109.73419156 166.90234375 111.16796875 C167.18801208 111.81925751 167.47368042 112.47054626 167.76800537 113.14157104 C169.01503455 115.95165993 170.28791667 118.431875 172 121 C172.21725235 120.42261581 172.4345047 119.84523163 172.65834045 119.25035095 C183.19688818 91.24631043 193.76738798 63.25630839 204.5506134 35.34545898 C206.41000276 30.53225444 208.26223984 25.71635731 210.109375 20.8984375 C210.58101074 19.66891357 211.05264648 18.43938965 211.53857422 17.17260742 C212.40022066 14.92562113 213.26126868 12.67840523 214.12158203 10.4309082 C214.49138184 9.46757568 214.86118164 8.50424316 215.2421875 7.51171875 C215.5604248 6.68115967 215.87866211 5.85060059 216.20654297 4.99487305 C217 3 217 3 218 1 C227.9 1 237.8 1 248 1 C247.13942544 5.30287281 246.03451026 8.70243346 244.40234375 12.73828125 C244.13667099 13.39892578 243.87099823 14.05957031 243.59727478 14.74023438 C242.71463583 16.93260637 241.82600806 19.12250079 240.9375 21.3125 C240.31024229 22.86789429 239.68346174 24.42348109 239.05712891 25.97924805 C237.72746578 29.28113188 236.39582417 32.58220819 235.06298828 35.8828125 C231.978712 43.52642991 228.92284716 51.18141138 225.86477661 58.83554077 C223.98123276 63.54919158 222.09544404 68.26194461 220.20985413 72.97477722 C218.28635603 77.78278333 216.36421273 82.59132725 214.44335938 87.40039062 C205.95767739 108.63874009 197.42033807 129.85621462 188.878479 151.07202148 C186.9669219 155.82005266 185.05574535 160.568237 183.14453125 165.31640625 C179.43004775 174.54441588 175.71516199 183.77226351 172 193 C169 192 169 192 167.91249084 189.97473145 C167.57277756 189.07105835 167.23306427 188.16738525 166.88305664 187.23632812 C166.48219345 186.19109985 166.08133026 185.14587158 165.6683197 184.06896973 C165.23250076 182.90152222 164.79668182 181.73407471 164.34765625 180.53125 C163.6205332 178.63249955 162.89332614 176.73378013 162.16377735 174.83596039 C161.63422455 173.45774316 161.10596646 172.07902789 160.57887554 170.69986725 C157.14660851 161.73088607 153.56499224 152.82150575 149.99609375 143.90625 C149.29298133 142.14734601 148.58998914 140.38839395 147.88711548 138.62939453 C146.46144906 135.06191258 145.03508584 131.49471048 143.6081543 127.92773438 C141.77404062 123.34250197 139.94234342 118.75630809 138.11117458 114.16989899 C136.68572059 110.60072169 135.25871173 107.03216762 133.83125496 103.46379089 C133.15411032 101.77034141 132.47752142 100.0766696 131.80151176 98.38276672 C130.86597009 96.0390263 129.92825881 93.69616546 128.98999023 91.35351562 C128.71523865 90.6638269 128.44048706 89.97413818 128.15740967 89.2635498 C126.89051949 86.1066989 125.5886751 83.00962541 124 80 C108.90884333 117.32992385 108.90884333 117.32992385 93.90866089 154.69644165 C93.07311645 156.78595063 92.23605033 158.87484456 91.39868164 160.96362305 C89.05998985 166.80281816 86.741278 172.64814194 84.484375 178.51953125 C84.11046631 179.48334717 83.73655762 180.44716309 83.35131836 181.44018555 C82.68869179 183.15273653 82.03490942 184.86875412 81.39282227 186.58911133 C80.6790236 188.4275206 79.85095785 190.22091936 79 192 C78.01 192.33 77.02 192.66 76 193 C30.42675781 79.06689453 30.42675781 79.06689453 29.61520386 77.03796387 C29.06000905 75.65000761 28.50477157 74.26206842 27.94949341 72.87414551 C26.51953685 69.29979295 25.09032226 65.72514706 23.66259766 62.14990234 C20.57959419 54.43225468 17.48565763 46.71919703 14.37423706 39.01295471 C12.70010467 34.86482488 11.02995342 30.71509751 9.36016846 26.56521606 C8.53940346 24.52839102 7.71678316 22.49231258 6.89227295 20.45700073 C5.73859393 17.60861611 4.59129069 14.75773985 3.4453125 11.90625 C3.09603699 11.04854507 2.74676147 10.19084015 2.38690186 9.30714417 C2.07118225 8.51807175 1.75546265 7.72899933 1.43017578 6.91601562 C1.15263458 6.22882446 0.87509338 5.5416333 0.58914185 4.83361816 C0 3 0 3 0 0 Z " fill="#FEFEFE" transform="translate(31,21)"/>
<path d="M0 0 C0.80662582 0.00045319 1.61325165 0.00090637 2.44432068 0.00137329 C3.71290924 -0.00366463 3.71290924 -0.00366463 5.00712585 -0.00880432 C7.82385198 -0.01835692 10.64051877 -0.02026059 13.45726013 -0.02133179 C15.41769434 -0.02454502 17.37812831 -0.02790914 19.33856201 -0.03141785 C23.46382705 -0.03742238 27.58907111 -0.03925676 31.71434021 -0.03866577 C36.9671291 -0.0385649 42.21978052 -0.05213279 47.47253704 -0.06943798 C51.53153075 -0.08064095 55.59049232 -0.08258233 59.64949989 -0.08205605 C61.58332092 -0.08322694 63.51714303 -0.087598 65.45094872 -0.09538841 C88.14440134 -0.17813755 109.05362725 1.75394792 126.38304138 18.14663696 C126.38304138 18.80663696 126.38304138 19.46663696 126.38304138 20.14663696 C127.04304138 20.14663696 127.70304138 20.14663696 128.38304138 20.14663696 C134.83592171 27.33046303 140.13686291 35.00191469 143.38304138 44.14663696 C143.70015076 45.00901978 144.01726013 45.87140259 144.34397888 46.75991821 C149.45797519 63.34521817 147.39567908 82.58031041 139.69554138 97.95913696 C136.31214582 103.69471685 132.06447342 108.44090683 127.38304138 113.14663696 C126.80296326 113.76151978 126.22288513 114.37640259 125.62522888 115.00991821 C118.68254052 121.78137435 104.3373755 131.14663696 94.38304138 131.14663696 C105.95671548 147.77064157 118.74168557 158.18396651 139.00804138 161.89663696 C141.44179138 162.30913696 143.87554138 162.72163696 146.38304138 163.14663696 C146.38304138 173.04663696 146.38304138 182.94663696 146.38304138 193.14663696 C131.93556641 196.75850571 113.17579304 188.36595232 100.77757263 181.23648071 C95.91418136 178.24233304 91.60212298 174.99068909 87.38304138 171.14663696 C86.40593201 170.26234009 85.42882263 169.37804321 84.42210388 168.46694946 C74.14886338 158.85403886 66.27775767 147.42878166 61.38304138 134.14663696 C61.38304138 133.48663696 61.38304138 132.82663696 61.38304138 132.14663696 C48.84304138 132.14663696 36.30304138 132.14663696 23.38304138 132.14663696 C23.38304138 152.60663696 23.38304138 173.06663696 23.38304138 194.14663696 C13.48304138 194.14663696 3.58304138 194.14663696 -6.61695862 194.14663696 C-6.61695862 163.78663696 -6.61695862 133.42663696 -6.61695862 102.14663696 C38.07054138 101.89663696 38.07054138 101.89663696 52.10838318 101.8487854 C56.31144714 101.81550889 56.31144714 101.81550889 60.51446533 101.77706909 C62.36635191 101.7625877 64.21830837 101.75568865 66.07025146 101.75509644 C79.97248026 101.74305676 93.30340042 101.68337904 104.44554138 92.13882446 C112.35687175 84.00419042 114.81133207 75.78095568 114.74436951 64.61734009 C114.50090799 54.87048429 111.35305277 48.15342663 104.55882263 41.12319946 C92.18249634 29.88007361 73.19111792 31.83448519 57.44554138 31.73257446 C55.58510021 31.71381136 53.72466709 31.69423437 51.86424255 31.67388916 C47.02461041 31.62310407 42.18495083 31.58319559 37.34519958 31.54574585 C32.38378924 31.50536513 27.42248766 31.45443034 22.46116638 31.40444946 C12.76853505 31.30832733 3.07584152 31.22372395 -6.61695862 31.14663696 C-6.64161484 26.89249074 -6.6597976 22.63838198 -6.67189026 18.38418579 C-6.67692963 16.93593624 -6.68376115 15.4876918 -6.69239807 14.03945923 C-6.70448109 11.96189108 -6.71019073 9.88438999 -6.71461487 7.80679321 C-6.71985168 6.55519409 -6.7250885 5.30359497 -6.73048401 4.0140686 C-6.53283717 -0.97810788 -4.46283891 0.02607381 0 0 Z " fill="#FEFEFE" transform="translate(665.6169586181641,20.853363037109375)"/>
<path d="M0 0 C1.75424538 -0.00422974 1.75424538 -0.00422974 3.54393005 -0.00854492 C4.83851639 -0.00652069 6.13310272 -0.00449646 7.46691895 -0.00241089 C8.83488512 -0.00376491 10.20285093 -0.00554485 11.57081604 -0.00772095 C15.29592081 -0.01229516 19.02099801 -0.01050577 22.74610329 -0.00734186 C26.63607485 -0.0048182 30.52604398 -0.00715582 34.41601562 -0.00872803 C40.94975205 -0.01054971 47.4834772 -0.00814346 54.01721191 -0.00338745 C61.5817739 0.00205517 69.14630893 0.00029251 76.71087027 -0.00521386 C83.19408191 -0.00974504 89.67728542 -0.01039551 96.16049814 -0.00777519 C100.03770292 -0.00621244 103.91489502 -0.00601858 107.792099 -0.00931168 C111.43637294 -0.01219047 115.08061198 -0.01021456 118.72488213 -0.00441742 C120.70827562 -0.00245424 122.69167205 -0.00544367 124.67506409 -0.00854492 C125.844561 -0.0057251 127.01405792 -0.00290527 128.21899414 0 C129.24180733 0.00037703 130.26462051 0.00075405 131.31842804 0.0011425 C133.60949707 0.12698364 133.60949707 0.12698364 134.60949707 1.12698364 C134.69733249 3.34553629 134.71644316 5.56686861 134.70715332 7.78713989 C134.70465576 9.0028064 134.7021582 10.2184729 134.69958496 11.47097778 C134.69048096 13.02808472 134.68137695 14.58519165 134.67199707 16.18948364 C134.65137207 21.11885864 134.63074707 26.04823364 134.60949707 31.12698364 C116.45949707 31.12698364 98.30949707 31.12698364 79.60949707 31.12698364 C79.60949707 84.91698364 79.60949707 138.70698364 79.60949707 194.12698364 C69.37949707 194.12698364 59.14949707 194.12698364 48.60949707 194.12698364 C48.60949707 140.33698364 48.60949707 86.54698364 48.60949707 31.12698364 C30.45949707 31.12698364 12.30949707 31.12698364 -6.39050293 31.12698364 C-6.41112793 26.19760864 -6.43175293 21.26823364 -6.45300293 16.18948364 C-6.46210693 14.63237671 -6.47121094 13.07526978 -6.48059082 11.47097778 C-6.48308838 10.25531128 -6.48558594 9.03964478 -6.48815918 7.78713989 C-6.493396 6.53554077 -6.49863281 5.28394165 -6.50402832 3.99441528 C-6.31024937 -0.9000659 -4.39633011 0.00162056 0 0 Z " fill="#FEFEFE" transform="translate(491.3905029296875,20.873016357421875)"/>
<path d="M0 0 C1.155 0.391875 2.31 0.78375 3.5 1.1875 C4.32242187 1.45820312 5.14484375 1.72890625 5.9921875 2.0078125 C8.21011487 2.73944049 10.42294762 3.48655628 12.6328125 4.2421875 C35.0539221 11.75031458 57.92939837 11.77653439 80.63452148 5.23339844 C84.45376952 4.17785444 87.24554143 3.59051888 91 5 C93.5 6.92578125 93.5 6.92578125 96 9.3125 C98.45050906 11.62899685 100.83662007 13.8744795 103.51171875 15.9296875 C118.90694046 28.73889865 128.31393085 51.6253867 131 71 C131.21479689 75.0473489 131.19200864 79.07355458 131.125 83.125 C131.11597656 84.176875 131.10695313 85.22875 131.09765625 86.3125 C131.07435853 88.87524878 131.04165112 91.43749512 131 94 C121.45293511 98.29918142 111.45344991 100.43399256 101 101 C100.31035156 101.04125 99.62070312 101.0825 98.91015625 101.125 C74.14343217 101.86292846 50.81593605 91.94545825 31.765625 76.69921875 C31.18296875 76.13847656 30.6003125 75.57773438 30 75 C30 74.34 30 73.68 30 73 C28.515 72.505 28.515 72.505 27 72 C27 71.34 27 70.68 27 70 C26.34 70 25.68 70 25 70 C7.11621514 50.28794717 -0.59395942 26.29920328 0 0 Z " fill="#FCC32F" transform="translate(278,114)"/>
<path d="M0 0 C1.61050068 1.51412426 3.21504624 3.03461709 4.8125 4.5625 C5.48925781 5.16449219 6.16601562 5.76648438 6.86328125 6.38671875 C23.16154955 21.44383636 32.60068974 44.74074643 33.93896484 66.63110352 C34.89925937 92.78230902 27.37375595 116.06101959 10.8125 136.5625 C10.34585938 137.19414062 9.87921875 137.82578125 9.3984375 138.4765625 C3.7793246 145.75038349 -4.60362347 151.50658231 -12.1875 156.5625 C-13.1775 156.5625 -14.1675 156.5625 -15.1875 156.5625 C-15.28546875 155.31597656 -15.3834375 154.06945312 -15.484375 152.78515625 C-18.26473092 120.10547927 -29.79734329 93.117218 -54.1875 70.5625 C-54.96480469 69.99660156 -55.74210937 69.43070312 -56.54296875 68.84765625 C-57.08566406 68.42355469 -57.62835938 67.99945313 -58.1875 67.5625 C-58.1875 66.9025 -58.1875 66.2425 -58.1875 65.5625 C-56.85960561 64.68888527 -55.5280333 63.82058815 -54.18359375 62.97265625 C-46.67484551 57.67577342 -46.67484551 57.67577342 -41.1875 50.5625 C-40.5275 50.5625 -39.8675 50.5625 -39.1875 50.5625 C-38.85878906 49.77359375 -38.85878906 49.77359375 -38.5234375 48.96875 C-37.06827137 46.34774901 -35.28160002 44.1775602 -33.35302734 41.89160156 C-25.91082549 33.05531372 -20.05389451 23.51036487 -14.32568359 13.50097656 C-13.33814045 11.81906053 -12.26939051 10.18533577 -11.1875 8.5625 C-24.47455326 1.53520097 -37.1403476 -3.5370133 -52.1875 -5.4375 C-53.156875 -5.57285156 -54.12625 -5.70820312 -55.125 -5.84765625 C-68.74700714 -7.35928204 -82.83659223 -5.18621631 -96.1875 -2.4375 C-96.8475 -7.0575 -97.5075 -11.6775 -98.1875 -16.4375 C-90.85971904 -19.2924796 -83.97592596 -21.36784493 -76.1875 -22.4375 C-74.91326172 -22.623125 -74.91326172 -22.623125 -73.61328125 -22.8125 C-47.40870724 -25.94608135 -19.75324598 -17.47517816 0 0 Z " fill="#1275BC" transform="translate(437.1875,44.4375)"/>
<path d="M0 0 C13.04323422 -0.39326334 27.41220492 1.20083868 39.171875 7.15625 C38.66051105 11.81052866 36.57452774 14.91966811 33.859375 18.59375 C33.417146 19.19993164 32.97491699 19.80611328 32.51928711 20.43066406 C17.06932303 41.29605174 1.17400002 55.89929864 -24.828125 61.15625 C-25.73046875 61.34832031 -26.6328125 61.54039063 -27.5625 61.73828125 C-44.29901254 63.8803947 -64.80729316 63.84052456 -79.828125 55.15625 C-80.158125 54.49625 -80.488125 53.83625 -80.828125 53.15625 C-79.82394531 52.94871094 -78.81976563 52.74117187 -77.78515625 52.52734375 C-61.16452467 48.87427808 -47.52567103 41.83701334 -38.015625 27.34375 C-33.61962271 20.37094211 -30.74910489 13.17264683 -28.828125 5.15625 C-19.15605377 2.576231 -10.01460035 0.55329284 0 0 Z " fill="#6BBE45" transform="translate(368.828125,49.84375)"/>
<path d="M0 0 C2.75090896 13.41068119 0.13626033 25.38247512 -7 37 C-14.49735154 47.40721472 -25.2692789 54.70080622 -38 57 C-40.72586396 57.19533879 -43.26302258 57.1520543 -46 57 C-44.74329442 51.29404893 -43.03062672 46.38270601 -40.375 41.1875 C-40.02453613 40.495354 -39.67407227 39.80320801 -39.31298828 39.09008789 C-36.11766203 32.94111668 -32.34121306 27.40381123 -28 22 C-27.48695313 21.34644531 -26.97390625 20.69289063 -26.4453125 20.01953125 C-20.95175514 13.29363535 -8.93536315 0 0 0 Z " fill="#6CBE45" transform="translate(328,34)"/>
<path d="M0 0 C0.33 0.99 0.66 1.98 1 3 C0.67 3.66 0.34 4.32 0 5 C-2.64 5 -5.28 5 -8 5 C-9.01111093 8.04913228 -9.01111093 8.04913228 -8 11 C-5.67843403 11.40729228 -3.3431213 11.74438677 -1 12 C-0.67 10.35 -0.34 8.7 0 7 C2.475 7.495 2.475 7.495 5 8 C5 8.99 5 9.98 5 11 C5.99 11.33 6.98 11.66 8 12 C8 13.65 8 15.3 8 17 C7.01 17.33 6.02 17.66 5 18 C5 20.64 5 23.28 5 26 C5.99 26.33 6.98 26.66 8 27 C8 28.65 8 30.3 8 32 C5.62429457 32.0816082 3.25144159 32.14077222 0.875 32.1875 C0.20984375 32.21263672 -0.4553125 32.23777344 -1.140625 32.26367188 C-5.87189545 32.33324938 -9.00309139 31.52030587 -13 29 C-15 26.25 -15 26.25 -16 23 C-15.1875 19.3125 -15.1875 19.3125 -14 16 C-13.90498905 12.83307103 -13.90498905 12.83307103 -14.75 9.125 C-15.1987547 5.74064163 -15.10393007 5.17445405 -13.25 2.0625 C-8.88797095 -1.93602663 -5.4306584 -0.80124468 0 0 Z M-10 19 C-10.41666667 22 -10.41666667 22 -10 25 C-6.5647952 27.29013653 -5.014669 27.17842973 -1 27 C-1 23.7 -1 20.4 -1 17 C-6.0205829 16.49708619 -6.0205829 16.49708619 -10 19 Z " fill="#FEFEFE" transform="translate(572,250)"/>
<path d="M0 0 C2.701875 -0.0825 5.40375 -0.165 8.1875 -0.25 C9.02949951 -0.28641602 9.87149902 -0.32283203 10.73901367 -0.36035156 C14.61533274 -0.41748499 16.58543479 -0.24982296 19.98828125 1.80078125 C22.76632527 4.83774976 23 6.92576703 23 11 C21.49467224 14.31172107 19.57030308 16.48745654 17 19 C17.433125 19.68707031 17.86625 20.37414062 18.3125 21.08203125 C18.869375 21.98308594 19.42625 22.88414062 20 23.8125 C20.556875 24.70582031 21.11375 25.59914063 21.6875 26.51953125 C23 29 23 29 23 32 C20.75 32.40234375 20.75 32.40234375 18 32 C16.41235087 29.83803083 15.2141812 27.91929482 14 25.5625 C12.77779172 23.20502915 11.53914724 21.19503385 10 19 C8.35 18.67 6.7 18.34 5 18 C5 22.62 5 27.24 5 32 C3.35 32 1.7 32 0 32 C0 21.44 0 10.88 0 0 Z M5 5 C5 7.97 5 10.94 5 14 C6.81293089 13.85962479 8.6253443 13.71255111 10.4375 13.5625 C11.44683594 13.48128906 12.45617187 13.40007812 13.49609375 13.31640625 C15.93640779 13.26788532 15.93640779 13.26788532 17 12 C17.16666667 9 17.16666667 9 17 6 C15.94021067 4.71387324 15.94021067 4.71387324 13.49609375 4.90234375 C12.48675781 4.91394531 11.47742188 4.92554688 10.4375 4.9375 C9.42558594 4.94652344 8.41367187 4.95554688 7.37109375 4.96484375 C6.58863281 4.97644531 5.80617188 4.98804688 5 5 Z " fill="#FEFEFE" transform="translate(31,250)"/>
<path d="M0 0 C1.66621616 0.03874921 3.33394172 0.0450286 5 0 C5.11668214 3.87474457 5.18741231 7.74903396 5.25 11.625 C5.30027344 13.26662109 5.30027344 13.26662109 5.3515625 14.94140625 C5.42813939 21.25899979 5.37138667 25.25623595 1 30 C-2.70987327 31.85493664 -6.96139651 31.59596347 -11 31 C-13.29327525 29.55214852 -14.34437719 28.20749707 -16 26 C-15.34 25.34 -14.68 24.68 -14 24 C-12.1875 24.3125 -12.1875 24.3125 -10 25 C-6.63458676 25.8208325 -5.36002129 26.1200071 -2 25 C-1.67 23.35 -1.34 21.7 -1 20 C-1.66 20.33 -2.32 20.66 -3 21 C-7.37959914 21.50533836 -9.51443013 21.27875307 -13.375 19.0625 C-16.4126901 16.18812657 -17.04020009 13.31698088 -17.23828125 9.21875 C-16.85446191 5.64482569 -15.36759726 3.62355372 -13 1 C-8.98483814 -1.94445203 -4.55828975 -1.51942992 0 0 Z M-10.25 5.125 C-12.28308178 6.9464041 -12.28308178 6.9464041 -12.4375 10 C-12.20737857 12.92733832 -12.20737857 12.92733832 -10.875 14.875 C-8.08893958 16.54663625 -6.18011138 16.46376624 -3 16 C-0.90235835 14.48105194 -0.90235835 14.48105194 0 12 C0.00674926 8.87319901 0.00674926 8.87319901 -1 6 C-4.48254307 3.67830462 -6.42283713 3.21141857 -10.25 5.125 Z " fill="#FDFDFD" transform="translate(274,261)"/>
<path d="M0 0 C3.05448544 0.17967561 4.62545344 0.61085596 7.1875 2.1875 C8.1775 1.5275 9.1675 0.8675 10.1875 0.1875 C13.0625 -0.25 13.0625 -0.25 16.1875 0.1875 C18.90716716 2.19648041 20.90250401 3.76060852 21.58789062 7.19213867 C21.67922492 9.48082394 21.62460172 11.71307923 21.5 14 C21.47744141 14.78826172 21.45488281 15.57652344 21.43164062 16.38867188 C21.37304161 18.32243929 21.28336827 20.25522167 21.1875 22.1875 C19.5375 22.1875 17.8875 22.1875 16.1875 22.1875 C15.8575 16.9075 15.5275 11.6275 15.1875 6.1875 C13.2075 6.1875 11.2275 6.1875 9.1875 6.1875 C8.8575 11.4675 8.5275 16.7475 8.1875 22.1875 C6.5375 21.8575 4.8875 21.5275 3.1875 21.1875 C2.8575 16.2375 2.5275 11.2875 2.1875 6.1875 C0.2075 6.1875 -1.7725 6.1875 -3.8125 6.1875 C-4.1425 11.4675 -4.4725 16.7475 -4.8125 22.1875 C-6.4625 22.1875 -8.1125 22.1875 -9.8125 22.1875 C-9.8125 15.2575 -9.8125 8.3275 -9.8125 1.1875 C-7.8325 1.1875 -5.8525 1.1875 -3.8125 1.1875 C-2.8125 0.1875 -2.8125 0.1875 0 0 Z " fill="#FEFEFE" transform="translate(359.8125,259.8125)"/>
<path d="M0 0 C0.99 -0.66 1.98 -1.32 3 -2 C5.9375 -2.375 5.9375 -2.375 9 -2 C11.84780619 0.23206431 12.84997666 1.54992999 14 5 C14.07029121 7.57265818 14.09370832 10.11641431 14.0625 12.6875 C14.05798828 13.38939453 14.05347656 14.09128906 14.04882812 14.81445312 C14.03706927 16.54300538 14.01913454 18.27151365 14 20 C12.35 20 10.7 20 9 20 C8.67 15.05 8.34 10.1 8 5 C5.525 4.505 5.525 4.505 3 4 C1.00383446 5.99616554 1.59016573 9.81701963 1.4375 12.5625 C1.39431641 13.27341797 1.35113281 13.98433594 1.30664062 14.71679688 C1.20028223 16.47761912 1.09961154 18.2387832 1 20 C-0.65 20 -2.3 20 -4 20 C-4.33 15.05 -4.66 10.1 -5 5 C-6.65 4.67 -8.3 4.34 -10 4 C-11.4807848 6.9615696 -11.35314037 9.83506295 -11.5625 13.125 C-11.64628906 14.40632813 -11.73007812 15.68765625 -11.81640625 17.0078125 C-11.90728516 18.48894531 -11.90728516 18.48894531 -12 20 C-13.65 20 -15.3 20 -17 20 C-17 13.07 -17 6.14 -17 -1 C-4.52173913 -2.7826087 -4.52173913 -2.7826087 0 0 Z " fill="#FDFDFD" transform="translate(403,262)"/>
<path d="M0 0 C3.05448544 0.17967561 4.62545344 0.61085596 7.1875 2.1875 C8.1775 1.5275 9.1675 0.8675 10.1875 0.1875 C13.125 -0.1875 13.125 -0.1875 16.1875 0.1875 C19.03530619 2.41956431 20.03747666 3.73742999 21.1875 7.1875 C21.25779121 9.76015818 21.28120832 12.30391431 21.25 14.875 C21.24548828 15.57689453 21.24097656 16.27878906 21.23632812 17.00195312 C21.22456927 18.73050538 21.20663454 20.45901365 21.1875 22.1875 C19.5375 22.1875 17.8875 22.1875 16.1875 22.1875 C15.8575 17.2375 15.5275 12.2875 15.1875 7.1875 C12.7125 6.6925 12.7125 6.6925 10.1875 6.1875 C8.19133446 8.18366554 8.77766573 12.00451963 8.625 14.75 C8.58181641 15.46091797 8.53863281 16.17183594 8.49414062 16.90429688 C8.38778223 18.66511912 8.28711154 20.4262832 8.1875 22.1875 C6.5375 22.1875 4.8875 22.1875 3.1875 22.1875 C2.8575 17.2375 2.5275 12.2875 2.1875 7.1875 C0.5375 6.8575 -1.1125 6.5275 -2.8125 6.1875 C-4.2932848 9.1490696 -4.16564037 12.02256295 -4.375 15.3125 C-4.45878906 16.59382813 -4.54257812 17.87515625 -4.62890625 19.1953125 C-4.71978516 20.67644531 -4.71978516 20.67644531 -4.8125 22.1875 C-6.4625 22.1875 -8.1125 22.1875 -9.8125 22.1875 C-9.8125 15.2575 -9.8125 8.3275 -9.8125 1.1875 C-7.8325 1.1875 -5.8525 1.1875 -3.8125 1.1875 C-2.8125 0.1875 -2.8125 0.1875 0 0 Z " fill="#FDFDFD" transform="translate(771.8125,259.8125)"/>
<path d="M0 0 C6.6 0 13.2 0 20 0 C20 1.65 20 3.3 20 5 C15.05 5 10.1 5 5 5 C5 7.31 5 9.62 5 12 C8.96 12 12.92 12 17 12 C17 13.98 17 15.96 17 18 C13.04 18 9.08 18 5 18 C5 20.97 5 23.94 5 27 C9.95 27 14.9 27 20 27 C20 28.65 20 30.3 20 32 C13.4 32 6.8 32 0 32 C0 21.44 0 10.88 0 0 Z " fill="#FEFEFE" transform="translate(596,250)"/>
<path d="M0 0 C0.61875 0.639375 1.2375 1.27875 1.875 1.9375 C1.215 3.2575 0.555 4.5775 -0.125 5.9375 C-0.69476563 5.62554687 -1.26453125 5.31359375 -1.8515625 4.9921875 C-5.51088055 3.29456572 -9.1005628 2.75646995 -13.125 2.9375 C-16.64162056 4.50190372 -16.64162056 4.50190372 -19.125 6.9375 C-20.36171367 10.64764101 -20.68868603 14.08188758 -20.125 17.9375 C-18.33136089 20.7475346 -17.10619065 22.44690468 -14.125 23.9375 C-8.8877306 24.19936347 -5.06284652 23.91263861 -0.125 21.9375 C0.535 23.2575 1.195 24.5775 1.875 25.9375 C-3.00341823 29.33118225 -6.64402741 30.6511215 -12.625 30.38671875 C-18.09246248 29.40428409 -21.8037925 26.67158484 -25.125 22.3125 C-26.95084032 16.15028891 -27.30390435 10.33897183 -24.4375 4.5 C-17.67655251 -2.99186074 -9.05506855 -5.97634524 0 0 Z " fill="#FDFDFD" transform="translate(321.125,252.0625)"/>
<path d="M0 0 C1.65 0 3.3 0 5 0 C5 6.93 5 13.86 5 21 C2.33333333 21 -0.33333333 21 -3 21 C-4.093125 21.103125 -5.18625 21.20625 -6.3125 21.3125 C-11.23004868 20.89575859 -12.56037106 19.43962894 -16 16 C-17.61540873 12.76918255 -17.5896275 9.49240902 -17 6 C-13.17830396 -0.89085734 -7.29315926 -2.43105309 0 0 Z M-10.8125 5.125 C-12.55198782 7.87155972 -12.39769128 9.81846974 -12 13 C-11 15 -11 15 -9 16 C-5.85514075 16.39310741 -3.86718329 16.47555213 -1.0625 14.9375 C0.66665678 11.78433176 -0.1409301 9.37491745 -1 6 C-4.5161842 3.6558772 -7.05264908 2.79129943 -10.8125 5.125 Z " fill="#FEFEFE" transform="translate(200,261)"/>
<path d="M0 0 C3.80812781 2.05053036 6.71023757 3.74378398 8 8 C8 9.65 8 11.3 8 13 C2.72 13 -2.56 13 -8 13 C-7.01 14.485 -7.01 14.485 -6 16 C-2.14880946 16.28527337 1.30992118 16.18082522 5 15 C5.33 16.32 5.66 17.64 6 19 C2.30908324 21.76818757 -0.56022169 22.55258388 -5.0703125 22.33984375 C-8.38028459 21.75691344 -9.84356561 20.53698164 -12 18 C-14.03780884 13.69068864 -14.2231006 10.80053745 -12.9375 6.1875 C-9.69940761 0.86031575 -6.21313605 -0.88759086 0 0 Z M-8 7 C-8 7.66 -8 8.32 -8 9 C-4.7 9 -1.4 9 2 9 C1.34 7.68 0.68 6.36 0 5 C-3.71599191 4.79913557 -4.77208445 4.8480563 -8 7 Z " fill="#FEFEFE" transform="translate(149,260)"/>
<path d="M0 0 C3.45405075 1.79344943 5.48781603 3.06875642 7.375 6.5 C8 9 8 9 8 13 C2.72 13 -2.56 13 -8 13 C-7.01 14.485 -7.01 14.485 -6 16 C-2.14880946 16.28527337 1.30992118 16.18082522 5 15 C5.33 16.32 5.66 17.64 6 19 C2.30596901 21.77052324 -0.55960366 22.53879947 -5.0703125 22.3515625 C-8.242153 21.77369682 -9.85500693 20.33425716 -12 18 C-13.83548272 14.91305179 -14.00207001 13.11592056 -13.9375 9.5 C-12.82276962 5.33833993 -11.28026327 3.72021832 -8 1 C-5.13391871 -0.43304064 -3.18699217 -0.30644155 0 0 Z M-6 5 C-6.66 6.32 -7.32 7.64 -8 9 C-4.37 9 -0.74 9 3 9 C2.01 7.68 1.02 6.36 0 5 C-3.12586875 4.66602213 -3.12586875 4.66602213 -6 5 Z " fill="#FEFEFE" transform="translate(70,260)"/>
<path d="M0 0 C5.57894737 3.15789474 5.57894737 3.15789474 7 6 C7 8.31 7 10.62 7 13 C2.05 13 -2.9 13 -8 13 C-7.01 14.485 -7.01 14.485 -6 16 C-2.14880946 16.28527337 1.30992118 16.18082522 5 15 C5.33 16.32 5.66 17.64 6 19 C1.89826183 21.98308231 -0.96266839 22.5397141 -6 22 C-10.1240462 20.21916187 -12.32481141 18.18797148 -14 14 C-14 8.90698471 -13.83162749 7.00221774 -10.5625 3.0625 C-6.81369488 0.04516905 -4.81898725 -0.46336416 0 0 Z M-6 5 C-6.66 6.32 -7.32 7.64 -8 9 C-4.37 9 -0.74 9 3 9 C2.01 7.68 1.02 6.36 0 5 C-3.12586875 4.66602213 -3.12586875 4.66602213 -6 5 Z " fill="#FEFEFE" transform="translate(751,260)"/>
<path d="M0 0 C3.80812781 2.05053036 6.71023757 3.74378398 8 8 C8 9.65 8 11.3 8 13 C2.72 13 -2.56 13 -8 13 C-7.01 14.485 -7.01 14.485 -6 16 C-2.14880946 16.28527337 1.30992118 16.18082522 5 15 C5.33 16.32 5.66 17.64 6 19 C3.32444477 21.67555523 1.91609626 22.00799083 -1.9375 22.375 C-5.6720415 22.22895648 -8.02528159 21.36227638 -11 19 C-13.48239134 15.276413 -13.59530761 12.91116145 -13.51171875 8.51953125 C-12.75031753 4.77064737 -10.99047197 3.16503247 -7.93359375 1 C-4.99910036 -0.51763699 -3.23219103 -0.68770022 0 0 Z M-8 7 C-8 7.66 -8 8.32 -8 9 C-4.37 9 -0.74 9 3 9 C2.67 8.01 2.34 7.02 2 6 C-3.28199593 4.80011955 -3.28199593 4.80011955 -8 7 Z " fill="#FEFEFE" transform="translate(516,260)"/>
<path d="M0 0 C3.11366985 1.06147836 4.48779879 2.07024346 6.078125 4.95703125 C7.63842658 8.83795087 8.50146621 11.86540272 7 15.875 C4.82560088 19.27249862 3.75340975 20.58204521 0 22 C-4.28202591 22.69485207 -7.09337679 22.5321484 -10.875 20.3125 C-14.19958254 16.69457195 -15.02549542 14.42774356 -14.9375 9.5 C-13.82276962 5.33833993 -12.28026327 3.72021832 -9 1 C-5.93570224 -0.53214888 -3.3834358 -0.22938548 0 0 Z M-7.75 6.25 C-9.22013929 8.30819501 -9.85061029 9.46037496 -10 12 C-9.15254366 14.85701707 -9.15254366 14.85701707 -7 17 C-3.45769191 17.58342353 -3.45769191 17.58342353 0 17 C2.36410488 15.06268472 2.36410488 15.06268472 2.3125 11.5625 C2.27836668 8.13088181 2.27836668 8.13088181 0.8125 6.0625 C-2.25734691 4.26293457 -4.82331132 4.15950809 -7.75 6.25 Z " fill="#FEFEFE" transform="translate(655,260)"/>
<path d="M0 0 C3.39549127 1.72977857 5.42059334 3.06791103 7.4375 6.3125 C8.18847343 9.90048416 7.88880825 12.44476699 7 16 C5.17660948 18.70567626 3.92542564 20.53728718 1 22 C-4.29304255 22.34708476 -7.73358414 22.51351894 -12 19 C-14.31069059 16.0291121 -14.47087809 12.74838896 -14.39453125 9.03515625 C-13.68647817 5.38272403 -11.62465368 3.56216192 -9 1 C-5.89046621 -0.5547669 -3.43733239 -0.28644437 0 0 Z M-7.8125 6.125 C-9.55198782 8.87155972 -9.39769128 10.81846974 -9 14 C-8 16 -8 16 -6 17 C-3 17.58333333 -3 17.58333333 0 17 C2.09764165 15.48105194 2.09764165 15.48105194 3 13 C3.00674926 9.87319901 3.00674926 9.87319901 2 7 C-1.5161842 4.6558772 -4.05264908 3.79129943 -7.8125 6.125 Z " fill="#FEFEFE" transform="translate(339,260)"/>
<path d="M0 0 C3.33761045 2.15090451 4.73470933 3.20412799 6 7 C6.07029121 9.57265818 6.09370832 12.11641431 6.0625 14.6875 C6.05798828 15.38939453 6.05347656 16.09128906 6.04882812 16.81445312 C6.03706927 18.54300538 6.01913454 20.27151365 6 22 C4.35 22 2.7 22 1 22 C0.93941406 21.01257813 0.87882812 20.02515625 0.81640625 19.0078125 C0.73261719 17.72648437 0.64882813 16.44515625 0.5625 15.125 C0.44068359 13.21074219 0.44068359 13.21074219 0.31640625 11.2578125 C0.20793973 8.11699848 0.20793973 8.11699848 -1 6 C-3.41619823 5.74969023 -3.41619823 5.74969023 -6 6 C-8.34770643 9.52155964 -8.37669614 11.50771843 -8.625 15.6875 C-8.69976562 16.86699219 -8.77453125 18.04648437 -8.8515625 19.26171875 C-8.90054687 20.16535156 -8.94953125 21.06898438 -9 22 C-10.65 22 -12.3 22 -14 22 C-14 15.07 -14 8.14 -14 1 C-12.02 1 -10.04 1 -8 1 C-5.14675563 -0.42662219 -3.16545451 -0.31033868 0 0 Z " fill="#FDFDFD" transform="translate(459,260)"/>
<path d="M0 0 C3.10164769 2.55024365 4.72566416 4.17699247 6 8 C6.06970052 10.39490986 6.08448003 12.79167691 6.0625 15.1875 C6.05347656 16.45980469 6.04445312 17.73210937 6.03515625 19.04296875 C6.02355469 20.01878906 6.01195312 20.99460937 6 22 C4.35 22 2.7 22 1 22 C0.93941406 21.01257813 0.87882813 20.02515625 0.81640625 19.0078125 C0.73261719 17.72648437 0.64882812 16.44515625 0.5625 15.125 C0.44068359 13.21074219 0.44068359 13.21074219 0.31640625 11.2578125 C0.20793973 8.11699848 0.20793973 8.11699848 -1 6 C-3.31 6 -5.62 6 -8 6 C-8.33 11.28 -8.66 16.56 -9 22 C-10.65 22 -12.3 22 -14 22 C-14 15.07 -14 8.14 -14 1 C-12.02 1 -10.04 1 -8 1 C-5.11138291 -0.44430855 -3.20352299 -0.37688506 0 0 Z " fill="#FEFEFE" transform="translate(248,260)"/>
<path d="M0 0 C1.17849222 2.85286947 0.98881091 4.03425016 0.01196289 7.02441406 C-0.4960083 8.17651367 -1.00397949 9.32861328 -1.52734375 10.515625 C-1.79511124 11.13145447 -2.06287872 11.74728394 -2.33876038 12.3817749 C-3.19433425 14.3427341 -4.0656147 16.29624656 -4.9375 18.25 C-5.52123235 19.58026889 -6.10392711 20.91099359 -6.68554688 22.2421875 C-8.11170734 25.50016196 -9.55203469 28.75164784 -11 32 C-12.65 32 -14.3 32 -16 32 C-15.70222656 31.33097656 -15.40445313 30.66195313 -15.09765625 29.97265625 C-11.78882419 20.670468 -14.35097554 14.95611669 -18.36328125 6.4921875 C-20 3 -20 3 -20 1 C-18.35 1 -16.7 1 -15 1 C-13.02 4.96 -11.04 8.92 -9 13 C-8.2575 11.040625 -7.515 9.08125 -6.75 7.0625 C-5.484375 3.72265625 -5.484375 3.72265625 -4 1 C-1.828125 0.12109375 -1.828125 0.12109375 0 0 Z " fill="#FDFDFD" transform="translate(702,260)"/>
<path d="M0 0 C2.72590774 2.00668135 4.71453047 3.56969139 5.40014648 7.00488281 C5.49174285 9.29352338 5.43709979 11.52561463 5.3125 13.8125 C5.28994141 14.60076172 5.26738281 15.38902344 5.24414062 16.20117188 C5.18554161 18.13493929 5.09586827 20.06772167 5 22 C3.68 22 2.36 22 1 22 C0.67 16.72 0.34 11.44 0 6 C-2.64 6 -5.28 6 -8 6 C-8.33 11.28 -8.66 16.56 -9 22 C-10.65 22 -12.3 22 -14 22 C-14 15.07 -14 8.14 -14 1 C-12.02 1 -10.04 1 -8 1 C-5.11138291 -0.44430855 -3.20352299 -0.37688506 0 0 Z " fill="#FDFDFD" transform="translate(174,260)"/>
<path d="M0 0 C1.65 0 3.3 0 5 0 C5.06058594 0.91523438 5.12117188 1.83046875 5.18359375 2.7734375 C5.26738281 3.96195312 5.35117187 5.15046875 5.4375 6.375 C5.51871094 7.55835938 5.59992188 8.74171875 5.68359375 9.9609375 C5.81084936 12.91518901 5.81084936 12.91518901 7 15 C8.98 15 10.96 15 13 15 C14.41634833 12.16730334 14.3463005 9.52533562 14.5625 6.375 C14.64628906 5.18648438 14.73007812 3.99796875 14.81640625 2.7734375 C14.87699219 1.85820312 14.93757813 0.94296875 15 0 C16.65 0 18.3 0 20 0 C20.054348 2.0622048 20.09294961 4.12482816 20.125 6.1875 C20.14820313 7.33605469 20.17140625 8.48460937 20.1953125 9.66796875 C19.95240363 13.81199402 19.16059027 16.70549547 16.375 19.8125 C12.93690123 21.53154938 9.72010003 21.67168473 6 21 C1.47407407 18.3037037 1.47407407 18.3037037 0.375 15.28125 C-0.12362472 12.24794963 -0.0932227 9.32226957 -0.0625 6.25 C-0.05347656 5.07953125 -0.04445313 3.9090625 -0.03515625 2.703125 C-0.02355469 1.81109375 -0.01195312 0.9190625 0 0 Z " fill="#FEFEFE" transform="translate(421,261)"/>
<path d="M0 0 C1.65 0 3.3 0 5 0 C5.06058594 0.99902344 5.12117188 1.99804688 5.18359375 3.02734375 C5.26738281 4.31769531 5.35117188 5.60804688 5.4375 6.9375 C5.51871094 8.22527344 5.59992188 9.51304687 5.68359375 10.83984375 C5.64919188 13.86023957 5.64919188 13.86023957 7 15 C8.98 15 10.96 15 13 15 C13.33 10.05 13.66 5.1 14 0 C15.65 0 17.3 0 19 0 C19.13559675 2.56428515 19.23433188 5.12135216 19.3125 7.6875 C19.35439453 8.40873047 19.39628906 9.12996094 19.43945312 9.87304688 C19.53411896 14.01941059 19.33046059 15.56356411 16.734375 18.9921875 C12.67683103 21.97158407 10.92810682 21.54756742 6 21 C3.41937875 20.18506697 2.42569413 19.62029717 0.90625 17.40625 C-0.36303118 14.03608963 -0.21211479 10.79490164 -0.125 7.25 C-0.11597656 6.55261719 -0.10695313 5.85523438 -0.09765625 5.13671875 C-0.07419888 3.42433042 -0.03833104 1.71211996 0 0 Z " fill="#FDFDFD" transform="translate(91,261)"/>
<path d="M0 0 C2.9375 1.8125 2.9375 1.8125 5 4 C5 4.99 5 5.98 5 7 C3.125 7.625 3.125 7.625 1 8 C0.34 7.34 -0.32 6.68 -1 6 C-4.59679066 6.32326553 -4.59679066 6.32326553 -8 7 C-8.68493373 9.85778033 -8.68493373 9.85778033 -9 13 C-8.01 14.485 -8.01 14.485 -7 16 C-2.65413172 16.39507893 -0.67996503 16.45331002 3 14 C3.99 14.99 4.98 15.98 6 17 C2.56880749 20.54556559 1.23103485 21.8990955 -3.8125 22.3125 C-7.03706396 22.27153458 -7.99286634 22.00434223 -10.875 20.25 C-14.33566277 16.58576883 -15.01961934 15.23601864 -14.9375 10.0625 C-14.28014922 5.7656705 -12.39286462 3.73084225 -9 1 C-5.89951072 -0.55024464 -3.42105782 -0.28992015 0 0 Z " fill="#FDFDFD" transform="translate(633,260)"/>
<path d="M0 0 C2.4375 1 2.4375 1 4 2 C3.67 3.32 3.34 4.64 3 6 C0.03 5.67 -2.94 5.34 -6 5 C-6 5.99 -6 6.98 -6 8 C-3.03 8.99 -0.06 9.98 3 11 C4.44230769 17.25 4.44230769 17.25 2.5625 20.4375 C-0.99718524 22.60803978 -3.92899364 22.58395583 -8 22 C-10.5 21 -10.5 21 -12 20 C-11.34 18.35 -10.68 16.7 -10 15 C-5.545 15.99 -5.545 15.99 -1 17 C-1 16.01 -1 15.02 -1 14 C-2.27875 13.731875 -3.5575 13.46375 -4.875 13.1875 C-8.49675855 12.42809901 -8.80051868 12.29922197 -11 9 C-10.8125 5.4375 -10.8125 5.4375 -10 2 C-6.29873141 -0.46751239 -4.37776468 -0.30721156 0 0 Z " fill="#FEFEFE" transform="translate(808,260)"/>
<path d="M0 0 C0.33 1.32 0.66 2.64 1 4 C-2.07322544 4.91058531 -4.80097361 5.08886184 -8 5 C-6.03307413 7.18834262 -6.03307413 7.18834262 -3 8.4375 C0 10 0 10 2 13 C1.84946418 16.01071639 1.41319987 17.52068815 -0.5625 19.8125 C-4.2332001 21.60078979 -6.9252106 21.32339598 -11 21 C-11.99 20.34 -12.98 19.68 -14 19 C-13.67 17.35 -13.34 15.7 -13 14 C-10.03 14.33 -7.06 14.66 -4 15 C-5.86152669 12.85406086 -5.86152669 12.85406086 -8.4375 12.125 C-11.40701275 10.82131148 -12.52056414 9.87668084 -14 7 C-13.92564006 3.95124256 -13.40213389 2.50266736 -11.5 0.125 C-7.63656327 -1.61354653 -4.08157275 -0.72386867 0 0 Z " fill="#FEFEFE" transform="translate(719,261)"/>
<path d="M0 0 C0.33 1.32 0.66 2.64 1 4 C-2.57644848 5.2380014 -5.33694766 4.74926071 -9 4 C-6.45115655 6.97365069 -3.49777936 8.327149 0 10 C1 11 1 11 1.25 14.375 C1 18 1 18 0 19.9375 C-3.20630751 21.64085087 -6.48915543 21.43090849 -10 21 C-12.5 20 -12.5 20 -14 19 C-13.67 17.35 -13.34 15.7 -13 14 C-9.7 14.66 -6.4 15.32 -3 16 C-5.65257794 12.93361911 -5.65257794 12.93361911 -8.5 12.0625 C-11.45261833 10.80763721 -12.53619405 9.84628936 -14 7 C-13.92564006 3.95124256 -13.40213389 2.50266736 -11.5 0.125 C-7.63656327 -1.61354653 -4.08157275 -0.72386867 0 0 Z " fill="#FDFDFD" transform="translate(679,261)"/>
<path d="M0 0 C0.33 1.32 0.66 2.64 1 4 C-2.07322544 4.91058531 -4.80097361 5.08886184 -8 5 C-6.03307413 7.18834262 -6.03307413 7.18834262 -3 8.4375 C0 10 0 10 2 13 C1.79874167 15.68344433 1.29749125 17.49251493 -0.0625 19.8125 C-3.18427554 21.7258463 -6.48190469 21.43179842 -10 21 C-12.5 20 -12.5 20 -14 19 C-13.67 17.35 -13.34 15.7 -13 14 C-9.7 14.66 -6.4 15.32 -3 16 C-5.9385951 13.0614049 -8.30492216 11.76721114 -12 10 C-13 9 -13 9 -13.3125 5.625 C-13 2 -13 2 -11.5625 0 C-7.64106095 -1.53031768 -4.0713729 -0.72205972 0 0 Z " fill="#FDFDFD" transform="translate(540,261)"/>
<path d="M0 0 C1.65 0 3.3 0 5 0 C5 2.31 5 4.62 5 7 C6.98 7 8.96 7 11 7 C11 8.32 11 9.64 11 11 C9.02 11 7.04 11 5 11 C5.33 14.63 5.66 18.26 6 22 C7.65 22.33 9.3 22.66 11 23 C10.67 24.65 10.34 26.3 10 28 C6.6875 28.25 6.6875 28.25 3 28 C0.44832491 25.63390128 0.02298676 24.2537738 -0.29296875 20.765625 C-0.25816406 19.60546875 -0.22335937 18.4453125 -0.1875 17.25 C-0.16042969 16.07953125 -0.13335938 14.9090625 -0.10546875 13.703125 C-0.07066406 12.81109375 -0.03585937 11.9190625 0 11 C-0.99 11 -1.98 11 -3 11 C-3 9.68 -3 8.36 -3 7 C-2.01 7 -1.02 7 0 7 C0 4.69 0 2.38 0 0 Z " fill="#FDFDFD" transform="translate(725,254)"/>
<path d="M0 0 C2.32421875 0.15234375 2.32421875 0.15234375 5 1 C6.58203125 3.50390625 6.58203125 3.50390625 7.8125 6.5625 C8.23144531 7.57441406 8.65039062 8.58632813 9.08203125 9.62890625 C9.38496094 10.41136719 9.68789062 11.19382812 10 12 C12.18194704 9.81805296 12.73623061 8.29075885 13.8125 5.4375 C14.84765625 3 14.84765625 3 16 1 C18.75 -0.0625 18.75 -0.0625 21 0 C20.29807915 4.93321834 18.36469225 9.25974682 16.4375 13.8125 C16.10814453 14.60076172 15.77878906 15.38902344 15.43945312 16.20117188 C14.63041094 18.13583796 13.81576148 20.06815753 13 22 C11.35 22 9.7 22 8 22 C6.65791246 18.89954577 5.32786246 15.79407011 4 12.6875 C3.6184375 11.80642578 3.236875 10.92535156 2.84375 10.01757812 C2.4828125 9.17001953 2.121875 8.32246094 1.75 7.44921875 C1.41484375 6.66893311 1.0796875 5.88864746 0.734375 5.0847168 C0 3 0 3 0 0 Z " fill="#FCFCFC" transform="translate(113,260)"/>
<path d="M0 0 C1.65 0 3.3 0 5 0 C5 2.31 5 4.62 5 7 C6.65 7 8.3 7 10 7 C10 8.32 10 9.64 10 11 C8.35 11 6.7 11 5 11 C5 14.96 5 18.92 5 23 C6.65 23 8.3 23 10 23 C10 24.65 10 26.3 10 28 C3.58718861 28.36298932 3.58718861 28.36298932 1.28125 26.9375 C-0.69137102 23.95451212 -0.28441673 21.33380768 -0.1875 17.8125 C-0.16042969 16.54019531 -0.13335937 15.26789063 -0.10546875 13.95703125 C-0.07066406 12.98121094 -0.03585938 12.00539063 0 11 C-0.99 11 -1.98 11 -3 11 C-3 9.68 -3 8.36 -3 7 C-2.01 7 -1.02 7 0 7 C0 4.69 0 2.38 0 0 Z " fill="#FDFDFD" transform="translate(211,254)"/>
<path d="M0 0 C1.32 0 2.64 0 4 0 C4 2.31 4 4.62 4 7 C5.98 7 7.96 7 10 7 C10 8.32 10 9.64 10 11 C8.02 11 6.04 11 4 11 C4.33 14.63 4.66 18.26 5 22 C6.65 22.33 8.3 22.66 10 23 C10 24.65 10 26.3 10 28 C3.9453125 28.1953125 3.9453125 28.1953125 2 28 C0 26 0 26 -0.1953125 22.5234375 C-0.18201493 21.14049032 -0.15816232 19.75761346 -0.125 18.375 C-0.11597656 17.66859375 -0.10695313 16.9621875 -0.09765625 16.234375 C-0.07407603 14.48943902 -0.03820461 12.74467705 0 11 C-1.32 11 -2.64 11 -4 11 C-4 9.68 -4 8.36 -4 7 C-2.68 7 -1.36 7 0 7 C0 4.69 0 2.38 0 0 Z " fill="#FEFEFE" transform="translate(481,254)"/>
<path d="M0 0 C1.65 0 3.3 0 5 0 C5 10.23 5 20.46 5 31 C3.35 31 1.7 31 0 31 C0 20.77 0 10.54 0 0 Z " fill="#FEFEFE" transform="translate(81,261)"/>
<path d="M0 0 C1.65 0 3.3 0 5 0 C5 6.93 5 13.86 5 21 C3.35 21 1.7 21 0 21 C0 14.07 0 7.14 0 0 Z " fill="#FEFEFE" transform="translate(494,261)"/>
<path d="M0 0 C1.65 0 3.3 0 5 0 C5 6.93 5 13.86 5 21 C3.35 21 1.7 21 0 21 C0 14.07 0 7.14 0 0 Z " fill="#FDFDFD" transform="translate(224,261)"/>
<path d="M0 0 C2.475 0.495 2.475 0.495 5 1 C4.67 7.6 4.34 14.2 4 21 C2.68 21 1.36 21 0 21 C0 14.07 0 7.14 0 0 Z " fill="#FEFEFE" transform="translate(470,261)"/>
<path d="M0 0 C1.65 0.33 3.3 0.66 5 1 C4.67 2.65 4.34 4.3 4 6 C2.35 5.67 0.7 5.34 -1 5 C-0.67 3.35 -0.34 1.7 0 0 Z " fill="#FDFDFD" transform="translate(470,252)"/>
<path d="M0 0 C1.65 0 3.3 0 5 0 C5 1.65 5 3.3 5 5 C3.68 5.33 2.36 5.66 1 6 C-0.0625 4.125 -0.0625 4.125 -1 2 C-0.67 1.34 -0.34 0.68 0 0 Z " fill="#FEFEFE" transform="translate(494,252)"/>
<path d="M0 0 C1.67542976 0.28604898 3.34385343 0.61781233 5 1 C4.67 2.32 4.34 3.64 4 5 C2.68 5.33 1.36 5.66 0 6 C-0.38218767 4.34385343 -0.71395102 2.67542976 -1 1 C-0.67 0.67 -0.34 0.34 0 0 Z " fill="#FEFEFE" transform="translate(225,252)"/>
<path d="M0 0 C1.32 0 2.64 0 4 0 C5.125 3.75 5.125 3.75 4 6 C2.35 5.67 0.7 5.34 -1 5 C-0.67 3.35 -0.34 1.7 0 0 Z " fill="#FDFDFD" transform="translate(82,252)"/>
</svg>
